%TF.GenerationSoftware,KiCad,Pcbnew,10.0.1*%
%TF.CreationDate,2026-05-05T22:16:42-06:00*%
%TF.ProjectId,Kicad1,4b696361-6431-42e6-9b69-6361645f7063,rev?*%
%TF.SameCoordinates,Original*%
%TF.FileFunction,Paste,Top*%
%TF.FilePolarity,Positive*%
%FSLAX46Y46*%
G04 Gerber Fmt 4.6, Leading zero omitted, Abs format (unit mm)*
G04 Created by KiCad (PCBNEW 10.0.1) date 2026-05-05 22:16:42*
%MOMM*%
%LPD*%
G01*
G04 APERTURE LIST*
G04 Aperture macros list*
%AMRoundRect*
0 Rectangle with rounded corners*
0 $1 Rounding radius*
0 $2 $3 $4 $5 $6 $7 $8 $9 X,Y pos of 4 corners*
0 Add a 4 corners polygon primitive as box body*
4,1,4,$2,$3,$4,$5,$6,$7,$8,$9,$2,$3,0*
0 Add four circle primitives for the rounded corners*
1,1,$1+$1,$2,$3*
1,1,$1+$1,$4,$5*
1,1,$1+$1,$6,$7*
1,1,$1+$1,$8,$9*
0 Add four rect primitives between the rounded corners*
20,1,$1+$1,$2,$3,$4,$5,0*
20,1,$1+$1,$4,$5,$6,$7,0*
20,1,$1+$1,$6,$7,$8,$9,0*
20,1,$1+$1,$8,$9,$2,$3,0*%
G04 Aperture macros list end*
%ADD10RoundRect,0.250000X-0.475000X0.337500X-0.475000X-0.337500X0.475000X-0.337500X0.475000X0.337500X0*%
%ADD11RoundRect,0.250000X-0.350000X-0.450000X0.350000X-0.450000X0.350000X0.450000X-0.350000X0.450000X0*%
%ADD12RoundRect,0.150000X-0.512500X-0.150000X0.512500X-0.150000X0.512500X0.150000X-0.512500X0.150000X0*%
%ADD13RoundRect,0.237500X0.250000X0.237500X-0.250000X0.237500X-0.250000X-0.237500X0.250000X-0.237500X0*%
%ADD14RoundRect,0.250000X0.350000X0.450000X-0.350000X0.450000X-0.350000X-0.450000X0.350000X-0.450000X0*%
%ADD15RoundRect,0.237500X-0.250000X-0.237500X0.250000X-0.237500X0.250000X0.237500X-0.250000X0.237500X0*%
%ADD16RoundRect,0.250000X-0.312500X-1.450000X0.312500X-1.450000X0.312500X1.450000X-0.312500X1.450000X0*%
%ADD17RoundRect,0.250000X-0.325000X-0.450000X0.325000X-0.450000X0.325000X0.450000X-0.325000X0.450000X0*%
%ADD18RoundRect,0.150000X-0.500000X0.150000X-0.500000X-0.150000X0.500000X-0.150000X0.500000X0.150000X0*%
%ADD19RoundRect,0.075000X-0.575000X0.075000X-0.575000X-0.075000X0.575000X-0.075000X0.575000X0.075000X0*%
%ADD20R,1.750000X0.450000*%
%ADD21RoundRect,0.250000X0.337500X0.475000X-0.337500X0.475000X-0.337500X-0.475000X0.337500X-0.475000X0*%
%ADD22RoundRect,0.375000X-0.625000X-0.375000X0.625000X-0.375000X0.625000X0.375000X-0.625000X0.375000X0*%
%ADD23RoundRect,0.500000X-0.500000X-1.400000X0.500000X-1.400000X0.500000X1.400000X-0.500000X1.400000X0*%
%ADD24RoundRect,0.250000X-0.337500X-0.475000X0.337500X-0.475000X0.337500X0.475000X-0.337500X0.475000X0*%
%ADD25R,1.400000X1.200000*%
%ADD26RoundRect,0.250000X0.475000X-0.337500X0.475000X0.337500X-0.475000X0.337500X-0.475000X-0.337500X0*%
%ADD27R,1.250000X0.900000*%
%ADD28R,0.900000X0.800000*%
%ADD29RoundRect,0.250001X0.944999X-0.872499X0.944999X0.872499X-0.944999X0.872499X-0.944999X-0.872499X0*%
%ADD30R,2.300000X1.500000*%
%ADD31RoundRect,0.075000X-0.700000X-0.075000X0.700000X-0.075000X0.700000X0.075000X-0.700000X0.075000X0*%
%ADD32RoundRect,0.075000X-0.075000X-0.700000X0.075000X-0.700000X0.075000X0.700000X-0.075000X0.700000X0*%
%ADD33RoundRect,0.090000X-0.660000X-0.360000X0.660000X-0.360000X0.660000X0.360000X-0.660000X0.360000X0*%
%ADD34RoundRect,0.250000X-0.450000X0.350000X-0.450000X-0.350000X0.450000X-0.350000X0.450000X0.350000X0*%
%ADD35RoundRect,0.250000X0.450000X-0.350000X0.450000X0.350000X-0.450000X0.350000X-0.450000X-0.350000X0*%
G04 APERTURE END LIST*
D10*
%TO.C,C14*%
X147500000Y-116537500D03*
X147500000Y-114462500D03*
%TD*%
D11*
%TO.C,R9*%
X113000000Y-114685000D03*
X115000000Y-114685000D03*
%TD*%
D12*
%TO.C,U5*%
X110000000Y-125550000D03*
X110000000Y-126500000D03*
X110000000Y-127450000D03*
X112275000Y-127450000D03*
X112275000Y-126500000D03*
X112275000Y-125550000D03*
%TD*%
D13*
%TO.C,R6*%
X111000000Y-130500000D03*
X109175000Y-130500000D03*
%TD*%
D14*
%TO.C,R7*%
X118500000Y-125000000D03*
X116500000Y-125000000D03*
%TD*%
D15*
%TO.C,R5*%
X109000000Y-123500000D03*
X110825000Y-123500000D03*
%TD*%
D16*
%TO.C,F1*%
X108500000Y-118500000D03*
X112775000Y-118500000D03*
%TD*%
D17*
%TO.C,D4*%
X112975000Y-112000000D03*
X115025000Y-112000000D03*
%TD*%
D18*
%TO.C,J8*%
X105245000Y-123300000D03*
X105245000Y-124100000D03*
D19*
X105245000Y-125250000D03*
X105245000Y-126250000D03*
X105245000Y-126750000D03*
X105245000Y-127750000D03*
D18*
X105245000Y-128900000D03*
X105245000Y-129700000D03*
X105245000Y-129700000D03*
X105245000Y-128900000D03*
D19*
X105245000Y-128250000D03*
X105245000Y-127250000D03*
X105245000Y-125750000D03*
X105245000Y-124750000D03*
D18*
X105245000Y-124100000D03*
X105245000Y-123300000D03*
%TD*%
D14*
%TO.C,R8*%
X118500000Y-127950000D03*
X116500000Y-127950000D03*
%TD*%
D20*
%TO.C,U4*%
X134900000Y-112425000D03*
X134900000Y-113075000D03*
X134900000Y-113725000D03*
X134900000Y-114375000D03*
X134900000Y-115025000D03*
X134900000Y-115675000D03*
X134900000Y-116325000D03*
X134900000Y-116975000D03*
X134900000Y-117625000D03*
X134900000Y-118275000D03*
X134900000Y-118925000D03*
X134900000Y-119575000D03*
X142100000Y-119575000D03*
X142100000Y-118925000D03*
X142100000Y-118275000D03*
X142100000Y-117625000D03*
X142100000Y-116975000D03*
X142100000Y-116325000D03*
X142100000Y-115675000D03*
X142100000Y-115025000D03*
X142100000Y-114375000D03*
X142100000Y-113725000D03*
X142100000Y-113075000D03*
X142100000Y-112425000D03*
%TD*%
D17*
%TO.C,D2*%
X184975000Y-82500000D03*
X187025000Y-82500000D03*
%TD*%
D21*
%TO.C,C10*%
X169537500Y-81510000D03*
X167462500Y-81510000D03*
%TD*%
D22*
%TO.C,U3*%
X175700000Y-74200000D03*
X175700000Y-76500000D03*
D23*
X182000000Y-76500000D03*
D22*
X175700000Y-78800000D03*
%TD*%
D24*
%TO.C,C21*%
X158202500Y-81035000D03*
X160277500Y-81035000D03*
%TD*%
D21*
%TO.C,C7*%
X169500000Y-58000000D03*
X167425000Y-58000000D03*
%TD*%
D25*
%TO.C,Y1*%
X137600000Y-87300000D03*
X135400000Y-87300000D03*
X135400000Y-89000000D03*
X137600000Y-89000000D03*
%TD*%
D26*
%TO.C,C2*%
X142490000Y-50037500D03*
X142490000Y-47962500D03*
%TD*%
D27*
%TO.C,S1*%
X147925000Y-62750000D03*
X147925000Y-59750000D03*
X147925000Y-58250000D03*
D28*
X148950000Y-64300000D03*
X148950000Y-56700000D03*
X151050000Y-64300000D03*
X151050000Y-56700000D03*
%TD*%
D11*
%TO.C,R1*%
X184475000Y-48500000D03*
X186475000Y-48500000D03*
%TD*%
D22*
%TO.C,U2*%
X175700000Y-52875000D03*
X175700000Y-55175000D03*
D23*
X182000000Y-55175000D03*
D22*
X175700000Y-57475000D03*
%TD*%
D29*
%TO.C,C17*%
X180500000Y-106982500D03*
X180500000Y-101867500D03*
%TD*%
D26*
%TO.C,C1*%
X139490000Y-50037500D03*
X139490000Y-47962500D03*
%TD*%
D27*
%TO.C,S2*%
X184075000Y-61750000D03*
X184075000Y-64750000D03*
X184075000Y-66250000D03*
D28*
X183050000Y-60200000D03*
X183050000Y-67800000D03*
X180950000Y-60200000D03*
X180950000Y-67800000D03*
%TD*%
D21*
%TO.C,C20*%
X128150000Y-97215000D03*
X126075000Y-97215000D03*
%TD*%
D30*
%TO.C,SW1*%
X123800000Y-102500000D03*
X130500000Y-102500000D03*
%TD*%
D26*
%TO.C,C3*%
X145490000Y-50000000D03*
X145490000Y-47925000D03*
%TD*%
D24*
%TO.C,C13*%
X186925000Y-76510000D03*
X189000000Y-76510000D03*
%TD*%
D31*
%TO.C,U1*%
X144000000Y-84000000D03*
X144000000Y-84500000D03*
X144000000Y-85000000D03*
X144000000Y-85500000D03*
X144000000Y-86000000D03*
X144000000Y-86500000D03*
X144000000Y-87000000D03*
X144000000Y-87500000D03*
X144000000Y-88000000D03*
X144000000Y-88500000D03*
X144000000Y-89000000D03*
X144000000Y-89500000D03*
X144000000Y-90000000D03*
X144000000Y-90500000D03*
X144000000Y-91000000D03*
X144000000Y-91500000D03*
D32*
X145925000Y-93425000D03*
X146425000Y-93425000D03*
X146925000Y-93425000D03*
X147425000Y-93425000D03*
X147925000Y-93425000D03*
X148425000Y-93425000D03*
X148925000Y-93425000D03*
X149425000Y-93425000D03*
X149925000Y-93425000D03*
X150425000Y-93425000D03*
X150925000Y-93425000D03*
X151425000Y-93425000D03*
X151925000Y-93425000D03*
X152425000Y-93425000D03*
X152925000Y-93425000D03*
X153425000Y-93425000D03*
D31*
X155350000Y-91500000D03*
X155350000Y-91000000D03*
X155350000Y-90500000D03*
X155350000Y-90000000D03*
X155350000Y-89500000D03*
X155350000Y-89000000D03*
X155350000Y-88500000D03*
X155350000Y-88000000D03*
X155350000Y-87500000D03*
X155350000Y-87000000D03*
X155350000Y-86500000D03*
X155350000Y-86000000D03*
X155350000Y-85500000D03*
X155350000Y-85000000D03*
X155350000Y-84500000D03*
X155350000Y-84000000D03*
D32*
X153425000Y-82075000D03*
X152925000Y-82075000D03*
X152425000Y-82075000D03*
X151925000Y-82075000D03*
X151425000Y-82075000D03*
X150925000Y-82075000D03*
X150425000Y-82075000D03*
X149925000Y-82075000D03*
X149425000Y-82075000D03*
X148925000Y-82075000D03*
X148425000Y-82075000D03*
X147925000Y-82075000D03*
X147425000Y-82075000D03*
X146925000Y-82075000D03*
X146425000Y-82075000D03*
X145925000Y-82075000D03*
%TD*%
D24*
%TO.C,C16*%
X135640000Y-91835000D03*
X137715000Y-91835000D03*
%TD*%
%TO.C,C22*%
X152425000Y-97000000D03*
X154500000Y-97000000D03*
%TD*%
D17*
%TO.C,D5*%
X151485000Y-102535000D03*
X153535000Y-102535000D03*
%TD*%
D24*
%TO.C,C6*%
X186425000Y-53000000D03*
X188500000Y-53000000D03*
%TD*%
D11*
%TO.C,R10*%
X151500000Y-100035000D03*
X153500000Y-100035000D03*
%TD*%
D26*
%TO.C,C5*%
X151510000Y-50000000D03*
X151510000Y-47925000D03*
%TD*%
D21*
%TO.C,C9*%
X169537500Y-60500000D03*
X167462500Y-60500000D03*
%TD*%
D17*
%TO.C,D1*%
X184450000Y-46000000D03*
X186500000Y-46000000D03*
%TD*%
D21*
%TO.C,C11*%
X169537500Y-78500000D03*
X167462500Y-78500000D03*
%TD*%
D24*
%TO.C,C8*%
X186425000Y-55520000D03*
X188500000Y-55520000D03*
%TD*%
%TO.C,C19*%
X107425000Y-98500000D03*
X109500000Y-98500000D03*
%TD*%
%TO.C,C12*%
X186925000Y-73500000D03*
X189000000Y-73500000D03*
%TD*%
D21*
%TO.C,C15*%
X137677500Y-84335000D03*
X135602500Y-84335000D03*
%TD*%
D33*
%TO.C,D3*%
X107650000Y-102700000D03*
X107650000Y-106000000D03*
X112550000Y-106000000D03*
X112550000Y-102700000D03*
%TD*%
D34*
%TO.C,R4*%
X144500000Y-60500000D03*
X144500000Y-62500000D03*
%TD*%
D26*
%TO.C,C18*%
X184500000Y-106000000D03*
X184500000Y-103925000D03*
%TD*%
D11*
%TO.C,R2*%
X185000000Y-80000000D03*
X187000000Y-80000000D03*
%TD*%
D26*
%TO.C,C4*%
X148500000Y-50000000D03*
X148500000Y-47925000D03*
%TD*%
D35*
%TO.C,R3*%
X168960000Y-93040000D03*
X168960000Y-91040000D03*
%TD*%
M02*
