M48
; DRILL file KiCad 10.0.1 date 2026-06-09T10:09:58
; FORMAT={-:-/ absolute / metric / decimal}
; #@! TF.CreationDate,2026-06-09T10:09:58-06:00
; #@! TF.GenerationSoftware,Kicad,Pcbnew,10.0.1
; #@! TF.FileFunction,Plated,1,2,PTH
FMAT,2
METRIC
; #@! TA.AperFunction,Plated,PTH,ViaDrill
T1C0.300
; #@! TA.AperFunction,Plated,PTH,ComponentDrill
T2C0.600
; #@! TA.AperFunction,Plated,PTH,ComponentDrill
T3C0.950
; #@! TA.AperFunction,Plated,PTH,ComponentDrill
T4C1.000
%
G90
G05
T1
X107.0Y-121.5
X107.0Y-130.0
X108.5Y-126.5
X111.015Y-98.315
X111.5Y-112.0
X112.0Y-123.5
X112.5Y-130.5
X114.15Y-106.0
X114.5Y-72.8
X117.0Y-117.5
X117.0Y-120.0
X123.0Y-84.5
X123.5Y-81.5
X123.612Y-101.215
X124.625Y-97.355
X133.1Y-113.525
X133.1Y-114.525
X133.1Y-117.525
X133.1Y-118.525
X133.64Y-87.335
X134.38Y-84.37
X138.938Y-91.8
X139.14Y-89.335
X139.5Y-46.5
X139.5Y-48.95
X142.5Y-46.5
X142.5Y-48.95
X144.1Y-116.525
X145.5Y-46.5
X145.5Y-89.0
X145.5Y-92.0
X146.0Y-116.5
X147.0Y-83.5
X147.925Y-61.25
X148.5Y-46.5
X151.5Y-46.5
X151.5Y-95.0
X151.5Y-104.035
X153.5Y-95.0
X155.722Y-96.965
X157.0Y-81.0
X157.42Y-53.0
X157.5Y-84.5
X158.5Y-61.0
X158.5Y-73.0
X161.5Y-61.5
X162.5Y-103.5
X163.5Y-118.5
X163.5Y-128.0
X166.0Y-78.5
X166.0Y-81.5
X167.5Y-56.5
X167.5Y-62.0
X169.96Y-95.5
X174.0Y-53.0
X174.0Y-74.0
X174.5Y-45.5
X177.0Y-85.0
X180.0Y-85.0
X180.25Y-100.065
X182.5Y-46.0
X183.5Y-82.5
X184.25Y-102.565
X187.5Y-62.0
X187.5Y-64.5
X190.0Y-53.0
X190.0Y-55.5
X190.5Y-73.5
X190.5Y-76.5
T3
X151.0Y-71.0
X153.5Y-71.0
X156.0Y-71.0
X158.5Y-71.0
X160.0Y-101.5
X162.5Y-101.5
X165.0Y-101.5
X167.5Y-101.5
X170.0Y-101.5
T4
X112.0Y-70.8
X112.0Y-73.34
X112.0Y-75.88
X112.0Y-78.42
X112.0Y-80.96
X112.0Y-83.5
X112.0Y-86.04
X112.0Y-88.58
X127.075Y-122.192
X127.075Y-124.692
X128.1Y-112.942
X128.1Y-115.442
X154.88Y-55.5
X157.42Y-55.5
X159.96Y-55.5
X162.5Y-55.5
X172.0Y-43.5
X172.46Y-88.0
X172.46Y-90.54
X172.46Y-93.08
X172.46Y-95.62
X174.5Y-43.5
X175.0Y-88.0
X175.0Y-90.54
X175.0Y-93.08
X175.0Y-95.62
T2
G00X100.725Y-122.18
M15
G01X100.125Y-122.18
M16
G05
G00X100.725Y-130.82
M15
G01X100.125Y-130.82
M16
G05
G00X105.155Y-122.18
M15
G01X104.055Y-122.18
M16
G05
G00X105.155Y-130.82
M15
G01X104.055Y-130.82
M16
G05
M30
