%TF.GenerationSoftware,KiCad,Pcbnew,10.0.1*%
%TF.CreationDate,2026-05-05T12:32:01-06:00*%
%TF.ProjectId,Kicad1,4b696361-6431-42e6-9b69-6361645f7063,rev?*%
%TF.SameCoordinates,Original*%
%TF.FileFunction,Copper,L1,Top*%
%TF.FilePolarity,Positive*%
%FSLAX46Y46*%
G04 Gerber Fmt 4.6, Leading zero omitted, Abs format (unit mm)*
G04 Created by KiCad (PCBNEW 10.0.1) date 2026-05-05 12:32:01*
%MOMM*%
%LPD*%
G01*
G04 APERTURE LIST*
G04 Aperture macros list*
%AMRoundRect*
0 Rectangle with rounded corners*
0 $1 Rounding radius*
0 $2 $3 $4 $5 $6 $7 $8 $9 X,Y pos of 4 corners*
0 Add a 4 corners polygon primitive as box body*
4,1,4,$2,$3,$4,$5,$6,$7,$8,$9,$2,$3,0*
0 Add four circle primitives for the rounded corners*
1,1,$1+$1,$2,$3*
1,1,$1+$1,$4,$5*
1,1,$1+$1,$6,$7*
1,1,$1+$1,$8,$9*
0 Add four rect primitives between the rounded corners*
20,1,$1+$1,$2,$3,$4,$5,0*
20,1,$1+$1,$4,$5,$6,$7,0*
20,1,$1+$1,$6,$7,$8,$9,0*
20,1,$1+$1,$8,$9,$2,$3,0*%
G04 Aperture macros list end*
%TA.AperFunction,Conductor*%
%ADD10C,0.200000*%
%TD*%
%TA.AperFunction,ComponentPad*%
%ADD11RoundRect,0.250000X-0.600000X-0.725000X0.600000X-0.725000X0.600000X0.725000X-0.600000X0.725000X0*%
%TD*%
%TA.AperFunction,ComponentPad*%
%ADD12O,1.700000X1.950000*%
%TD*%
%TA.AperFunction,SMDPad,CuDef*%
%ADD13RoundRect,0.250000X-0.325000X-0.450000X0.325000X-0.450000X0.325000X0.450000X-0.325000X0.450000X0*%
%TD*%
%TA.AperFunction,SMDPad,CuDef*%
%ADD14RoundRect,0.250000X0.337500X0.475000X-0.337500X0.475000X-0.337500X-0.475000X0.337500X-0.475000X0*%
%TD*%
%TA.AperFunction,ComponentPad*%
%ADD15R,1.700000X1.700000*%
%TD*%
%TA.AperFunction,ComponentPad*%
%ADD16O,1.700000X1.700000*%
%TD*%
%TA.AperFunction,ComponentPad*%
%ADD17C,1.700000*%
%TD*%
%TA.AperFunction,SMDPad,CuDef*%
%ADD18RoundRect,0.375000X-0.625000X-0.375000X0.625000X-0.375000X0.625000X0.375000X-0.625000X0.375000X0*%
%TD*%
%TA.AperFunction,SMDPad,CuDef*%
%ADD19RoundRect,0.500000X-0.500000X-1.400000X0.500000X-1.400000X0.500000X1.400000X-0.500000X1.400000X0*%
%TD*%
%TA.AperFunction,SMDPad,CuDef*%
%ADD20RoundRect,0.250000X-0.337500X-0.475000X0.337500X-0.475000X0.337500X0.475000X-0.337500X0.475000X0*%
%TD*%
%TA.AperFunction,SMDPad,CuDef*%
%ADD21R,1.400000X1.200000*%
%TD*%
%TA.AperFunction,ComponentPad*%
%ADD22RoundRect,0.250000X-0.750000X0.600000X-0.750000X-0.600000X0.750000X-0.600000X0.750000X0.600000X0*%
%TD*%
%TA.AperFunction,ComponentPad*%
%ADD23O,2.000000X1.700000*%
%TD*%
%TA.AperFunction,SMDPad,CuDef*%
%ADD24RoundRect,0.250000X0.475000X-0.337500X0.475000X0.337500X-0.475000X0.337500X-0.475000X-0.337500X0*%
%TD*%
%TA.AperFunction,SMDPad,CuDef*%
%ADD25R,1.250000X0.900000*%
%TD*%
%TA.AperFunction,SMDPad,CuDef*%
%ADD26R,0.900000X0.800000*%
%TD*%
%TA.AperFunction,SMDPad,CuDef*%
%ADD27RoundRect,0.250000X-0.350000X-0.450000X0.350000X-0.450000X0.350000X0.450000X-0.350000X0.450000X0*%
%TD*%
%TA.AperFunction,SMDPad,CuDef*%
%ADD28RoundRect,0.250001X0.944999X-0.872499X0.944999X0.872499X-0.944999X0.872499X-0.944999X-0.872499X0*%
%TD*%
%TA.AperFunction,SMDPad,CuDef*%
%ADD29R,2.300000X1.500000*%
%TD*%
%TA.AperFunction,SMDPad,CuDef*%
%ADD30RoundRect,0.075000X-0.700000X-0.075000X0.700000X-0.075000X0.700000X0.075000X-0.700000X0.075000X0*%
%TD*%
%TA.AperFunction,SMDPad,CuDef*%
%ADD31RoundRect,0.075000X-0.075000X-0.700000X0.075000X-0.700000X0.075000X0.700000X-0.075000X0.700000X0*%
%TD*%
%TA.AperFunction,SMDPad,CuDef*%
%ADD32RoundRect,0.150000X-0.500000X0.150000X-0.500000X-0.150000X0.500000X-0.150000X0.500000X0.150000X0*%
%TD*%
%TA.AperFunction,SMDPad,CuDef*%
%ADD33RoundRect,0.075000X-0.575000X0.075000X-0.575000X-0.075000X0.575000X-0.075000X0.575000X0.075000X0*%
%TD*%
%TA.AperFunction,ComponentPad*%
%ADD34O,2.100000X1.000000*%
%TD*%
%TA.AperFunction,ComponentPad*%
%ADD35O,1.600000X1.000000*%
%TD*%
%TA.AperFunction,SMDPad,CuDef*%
%ADD36R,1.750000X0.450000*%
%TD*%
%TA.AperFunction,SMDPad,CuDef*%
%ADD37RoundRect,0.250000X0.350000X0.450000X-0.350000X0.450000X-0.350000X-0.450000X0.350000X-0.450000X0*%
%TD*%
%TA.AperFunction,ComponentPad*%
%ADD38RoundRect,0.250000X0.750000X-0.600000X0.750000X0.600000X-0.750000X0.600000X-0.750000X-0.600000X0*%
%TD*%
%TA.AperFunction,SMDPad,CuDef*%
%ADD39RoundRect,0.250000X-0.312500X-1.450000X0.312500X-1.450000X0.312500X1.450000X-0.312500X1.450000X0*%
%TD*%
%TA.AperFunction,SMDPad,CuDef*%
%ADD40RoundRect,0.237500X-0.250000X-0.237500X0.250000X-0.237500X0.250000X0.237500X-0.250000X0.237500X0*%
%TD*%
%TA.AperFunction,ComponentPad*%
%ADD41RoundRect,0.250000X-0.600000X-0.750000X0.600000X-0.750000X0.600000X0.750000X-0.600000X0.750000X0*%
%TD*%
%TA.AperFunction,ComponentPad*%
%ADD42O,1.700000X2.000000*%
%TD*%
%TA.AperFunction,SMDPad,CuDef*%
%ADD43RoundRect,0.237500X0.250000X0.237500X-0.250000X0.237500X-0.250000X-0.237500X0.250000X-0.237500X0*%
%TD*%
%TA.AperFunction,SMDPad,CuDef*%
%ADD44RoundRect,0.090000X-0.660000X-0.360000X0.660000X-0.360000X0.660000X0.360000X-0.660000X0.360000X0*%
%TD*%
%TA.AperFunction,SMDPad,CuDef*%
%ADD45RoundRect,0.250000X-0.450000X0.350000X-0.450000X-0.350000X0.450000X-0.350000X0.450000X0.350000X0*%
%TD*%
%TA.AperFunction,SMDPad,CuDef*%
%ADD46RoundRect,0.250000X0.450000X-0.350000X0.450000X0.350000X-0.450000X0.350000X-0.450000X-0.350000X0*%
%TD*%
%TA.AperFunction,SMDPad,CuDef*%
%ADD47RoundRect,0.150000X-0.512500X-0.150000X0.512500X-0.150000X0.512500X0.150000X-0.512500X0.150000X0*%
%TD*%
%TA.AperFunction,ViaPad*%
%ADD48C,0.600000*%
%TD*%
%TA.AperFunction,Conductor*%
%ADD49C,0.254000*%
%TD*%
%TA.AperFunction,Conductor*%
%ADD50C,0.508000*%
%TD*%
%TA.AperFunction,Conductor*%
%ADD51C,0.381000*%
%TD*%
%TA.AperFunction,Conductor*%
%ADD52C,0.304800*%
%TD*%
G04 APERTURE END LIST*
%TO.N,GND*%
D10*
X94000000Y-37500000D02*
X193860333Y-37500000D01*
X193860333Y-137631562D01*
X94000000Y-137631562D01*
X94000000Y-37500000D01*
%TD*%
D11*
%TO.P,J9,1,Pin_1_1*%
%TO.N,+3.3V*%
X160000000Y-101500000D03*
D12*
%TO.P,J9,2,Pin_2_2*%
%TO.N,GND*%
X162500000Y-101500000D03*
%TO.P,J9,3,Pin_3_3*%
%TO.N,/MT_PWM*%
X165000000Y-101500000D03*
%TO.P,J9,4,Pin_4_4*%
%TO.N,/MT_SCL*%
X167500000Y-101500000D03*
%TO.P,J9,5,Pin_5_5*%
%TO.N,/MT_SDA*%
X170000000Y-101500000D03*
%TD*%
D13*
%TO.P,D2,1,K_1*%
%TO.N,GND*%
X184975000Y-82500000D03*
%TO.P,D2,2,A_2*%
%TO.N,Net-(D2-A)*%
X187025000Y-82500000D03*
%TD*%
D14*
%TO.P,C10,1*%
%TO.N,+5V*%
X169537500Y-81510000D03*
%TO.P,C10,2*%
%TO.N,GND*%
X167462500Y-81510000D03*
%TD*%
D15*
%TO.P,J5,1,Pin_1_1*%
%TO.N,GND*%
X172460000Y-95620000D03*
D16*
%TO.P,J5,2,Pin_2_2*%
%TO.N,unconnected-(J5-Pin_2-Pad2)*%
X175000000Y-95620000D03*
%TO.P,J5,3,Pin_3_3*%
%TO.N,Net-(J5-Pin_3)*%
X172460000Y-93080000D03*
%TO.P,J5,4,Pin_4_4*%
%TO.N,/ESP_RX*%
X175000000Y-93080000D03*
%TO.P,J5,5,Pin_5_5*%
%TO.N,+3.3V*%
X172460000Y-90540000D03*
%TO.P,J5,6,Pin_6_6*%
X175000000Y-90540000D03*
%TO.P,J5,7,Pin_7_7*%
X172460000Y-88000000D03*
%TO.P,J5,8,Pin_8_8*%
%TO.N,/ESP_TX*%
X175000000Y-88000000D03*
%TD*%
D15*
%TO.P,J4,1,Pin_1_1*%
%TO.N,+5V*%
X112000000Y-70800000D03*
D17*
%TO.P,J4,2,Pin_2_2*%
%TO.N,GND*%
X112000000Y-73340000D03*
%TO.P,J4,3,Pin_3_3*%
%TO.N,/IMU_SCL*%
X112000000Y-75880000D03*
%TO.P,J4,4,Pin_4_4*%
%TO.N,/IMU_SDA*%
X112000000Y-78420000D03*
%TO.P,J4,5,Pin_5_5*%
%TO.N,unconnected-(J4-Pin_5-Pad5)*%
X112000000Y-80960000D03*
%TO.P,J4,6,Pin_6_6*%
%TO.N,unconnected-(J4-Pin_6-Pad6)*%
X112000000Y-83500000D03*
%TO.P,J4,7,Pin_7_7*%
%TO.N,unconnected-(J4-Pin_7-Pad7)*%
X112000000Y-86040000D03*
%TO.P,J4,8,Pin_8_8*%
%TO.N,/IMU_INT*%
X112000000Y-88580000D03*
%TD*%
D18*
%TO.P,U3,1,GND_1*%
%TO.N,GND*%
X175700000Y-74200000D03*
%TO.P,U3,2,VO_2*%
%TO.N,+3.3V*%
X175700000Y-76500000D03*
D19*
X182000000Y-76500000D03*
D18*
%TO.P,U3,3,VI_3*%
%TO.N,+5V*%
X175700000Y-78800000D03*
%TD*%
D20*
%TO.P,C21,1*%
%TO.N,GND*%
X158202500Y-81035000D03*
%TO.P,C21,2*%
%TO.N,+3.3V*%
X160277500Y-81035000D03*
%TD*%
D14*
%TO.P,C7,1*%
%TO.N,VM*%
X169500000Y-58000000D03*
%TO.P,C7,2*%
%TO.N,GND*%
X167425000Y-58000000D03*
%TD*%
D21*
%TO.P,Y1,1,1_1*%
%TO.N,Net-(U1-PH0)*%
X137600000Y-87300000D03*
%TO.P,Y1,2,2_2*%
%TO.N,GND*%
X135400000Y-87300000D03*
%TO.P,Y1,3,3_3*%
%TO.N,Net-(U1-PH1)*%
X135400000Y-89000000D03*
%TO.P,Y1,4,4_4*%
%TO.N,GND*%
X137600000Y-89000000D03*
%TD*%
D22*
%TO.P,J1,1,Pin_1_1*%
%TO.N,/MD_AO1*%
X123100000Y-112942500D03*
D23*
%TO.P,J1,2,Pin_2_2*%
%TO.N,/MD_AO2*%
X123100000Y-115442500D03*
%TD*%
D24*
%TO.P,C2,1*%
%TO.N,+3.3V*%
X142490000Y-50037500D03*
%TO.P,C2,2*%
%TO.N,GND*%
X142490000Y-47962500D03*
%TD*%
D25*
%TO.P,S1,1*%
%TO.N,GND*%
X147925000Y-62750000D03*
%TO.P,S1,2*%
%TO.N,Net-(R4-Pad1)*%
X147925000Y-59750000D03*
%TO.P,S1,3*%
%TO.N,+3.3V*%
X147925000Y-58250000D03*
D26*
%TO.P,S1,SH1*%
%TO.N,N/C*%
X148950000Y-64300000D03*
%TO.P,S1,SH2*%
X148950000Y-56700000D03*
%TO.P,S1,SH3*%
X151050000Y-64300000D03*
%TO.P,S1,SH4*%
X151050000Y-56700000D03*
%TD*%
D27*
%TO.P,R1,1*%
%TO.N,5V_REG*%
X184475000Y-48500000D03*
%TO.P,R1,2*%
%TO.N,Net-(D1-A)*%
X186475000Y-48500000D03*
%TD*%
D18*
%TO.P,U2,1,GND_1*%
%TO.N,GND*%
X175700000Y-52875000D03*
%TO.P,U2,2,VO_2*%
%TO.N,5V_REG*%
X175700000Y-55175000D03*
D19*
X182000000Y-55175000D03*
D18*
%TO.P,U2,3,VI_3*%
%TO.N,VM*%
X175700000Y-57475000D03*
%TD*%
D15*
%TO.P,J7,1,Pin_1_1*%
%TO.N,/SWDIO*%
X154880000Y-55500000D03*
D16*
%TO.P,J7,2,Pin_2_2*%
%TO.N,GND*%
X157420000Y-55500000D03*
%TO.P,J7,3,Pin_3_3*%
%TO.N,/SWCLK*%
X159960000Y-55500000D03*
%TO.P,J7,4,Pin_4_4*%
%TO.N,+3.3V*%
X162500000Y-55500000D03*
%TD*%
D28*
%TO.P,C17,1*%
%TO.N,VM*%
X180500000Y-106982500D03*
%TO.P,C17,2*%
%TO.N,GND*%
X180500000Y-101867500D03*
%TD*%
D24*
%TO.P,C1,1*%
%TO.N,+3.3V*%
X139490000Y-50037500D03*
%TO.P,C1,2*%
%TO.N,GND*%
X139490000Y-47962500D03*
%TD*%
D25*
%TO.P,S2,1*%
%TO.N,5V_REG*%
X184075000Y-61750000D03*
%TO.P,S2,2*%
%TO.N,+5V*%
X184075000Y-64750000D03*
%TO.P,S2,3*%
%TO.N,Vusb*%
X184075000Y-66250000D03*
D26*
%TO.P,S2,SH1*%
%TO.N,N/C*%
X183050000Y-60200000D03*
%TO.P,S2,SH2*%
X183050000Y-67800000D03*
%TO.P,S2,SH3*%
X180950000Y-60200000D03*
%TO.P,S2,SH4*%
X180950000Y-67800000D03*
%TD*%
D14*
%TO.P,C20,1*%
%TO.N,Net-(SW1A-B)*%
X128150000Y-97215000D03*
%TO.P,C20,2*%
%TO.N,GND*%
X126075000Y-97215000D03*
%TD*%
D29*
%TO.P,SW1,1,A_1*%
%TO.N,GND*%
X123800000Y-102500000D03*
%TO.P,SW1,2,B_2*%
%TO.N,Net-(SW1A-B)*%
X130500000Y-102500000D03*
%TD*%
D24*
%TO.P,C3,1*%
%TO.N,+3.3V*%
X145490000Y-50000000D03*
%TO.P,C3,2*%
%TO.N,GND*%
X145490000Y-47925000D03*
%TD*%
D20*
%TO.P,C13,1*%
%TO.N,+3.3V*%
X186925000Y-76510000D03*
%TO.P,C13,2*%
%TO.N,GND*%
X189000000Y-76510000D03*
%TD*%
%TO.P,C14,1*%
%TO.N,+3.3V*%
X140925000Y-114500000D03*
%TO.P,C14,2*%
%TO.N,GND*%
X143000000Y-114500000D03*
%TD*%
D30*
%TO.P,U1,1,VBAT_1*%
%TO.N,unconnected-(U1-VBAT-Pad1)*%
X144000000Y-84000000D03*
%TO.P,U1,2,PC13_2*%
%TO.N,/IMU_INT*%
X144000000Y-84500000D03*
%TO.P,U1,3,PC14_3*%
%TO.N,unconnected-(U1-PC14-Pad3)*%
X144000000Y-85000000D03*
%TO.P,U1,4,PC15_4*%
%TO.N,unconnected-(U1-PC15-Pad4)*%
X144000000Y-85500000D03*
%TO.P,U1,5,PH0_5*%
%TO.N,Net-(U1-PH0)*%
X144000000Y-86000000D03*
%TO.P,U1,6,PH1_6*%
%TO.N,Net-(U1-PH1)*%
X144000000Y-86500000D03*
%TO.P,U1,7,NRST_7*%
%TO.N,Net-(SW1A-B)*%
X144000000Y-87000000D03*
%TO.P,U1,8,PC0_8*%
%TO.N,unconnected-(U1-PC0-Pad8)*%
X144000000Y-87500000D03*
%TO.P,U1,9,PC1_9*%
%TO.N,unconnected-(U1-PC1-Pad9)*%
X144000000Y-88000000D03*
%TO.P,U1,10,PC2_10*%
%TO.N,unconnected-(U1-PC2-Pad10)*%
X144000000Y-88500000D03*
%TO.P,U1,11,PC3_11*%
%TO.N,unconnected-(U1-PC3-Pad11)*%
X144000000Y-89000000D03*
%TO.P,U1,12,VSSA_12*%
%TO.N,GND*%
X144000000Y-89500000D03*
%TO.P,U1,13,VREF+_13*%
%TO.N,+3.3V*%
X144000000Y-90000000D03*
%TO.P,U1,14,PA0_14*%
%TO.N,/WS_DIN*%
X144000000Y-90500000D03*
%TO.P,U1,15,PA1_15*%
%TO.N,/MD_PWMA*%
X144000000Y-91000000D03*
%TO.P,U1,16,PA2_16*%
%TO.N,/MD_AIN2*%
X144000000Y-91500000D03*
D31*
%TO.P,U1,17,PA3_17*%
%TO.N,/MD_AIN1*%
X145925000Y-93425000D03*
%TO.P,U1,18,VSS_18*%
%TO.N,GND*%
X146425000Y-93425000D03*
%TO.P,U1,19,VDD_19*%
%TO.N,+3.3V*%
X146925000Y-93425000D03*
%TO.P,U1,20,PA4_20*%
%TO.N,/MD_STBY*%
X147425000Y-93425000D03*
%TO.P,U1,21,PA5_21*%
%TO.N,/MD_PWMB*%
X147925000Y-93425000D03*
%TO.P,U1,22,PA6_22*%
%TO.N,/MD_BIN1*%
X148425000Y-93425000D03*
%TO.P,U1,23,PA7_23*%
%TO.N,/MD_BIN2*%
X148925000Y-93425000D03*
%TO.P,U1,24,PC4_24*%
%TO.N,unconnected-(U1-PC4-Pad24)*%
X149425000Y-93425000D03*
%TO.P,U1,25,PC5_25*%
%TO.N,unconnected-(U1-PC5-Pad25)*%
X149925000Y-93425000D03*
%TO.P,U1,26,PB0_26*%
%TO.N,unconnected-(U1-PB0-Pad26)*%
X150425000Y-93425000D03*
%TO.P,U1,27,PB1_27*%
%TO.N,/USER_LED*%
X150925000Y-93425000D03*
%TO.P,U1,28,PB2_28*%
%TO.N,GND*%
X151425000Y-93425000D03*
%TO.P,U1,29,PB10_29*%
%TO.N,unconnected-(U1-PB10-Pad29)*%
X151925000Y-93425000D03*
%TO.P,U1,30,VCAP1_30*%
%TO.N,Net-(U1-VCAP1)*%
X152425000Y-93425000D03*
%TO.P,U1,31,VSS_31*%
%TO.N,GND*%
X152925000Y-93425000D03*
%TO.P,U1,32,VDD_32*%
%TO.N,+3.3V*%
X153425000Y-93425000D03*
D30*
%TO.P,U1,33,PB12_33*%
%TO.N,unconnected-(U1-PB12-Pad33)*%
X155350000Y-91500000D03*
%TO.P,U1,34,PB13_34*%
%TO.N,unconnected-(U1-PB13-Pad34)*%
X155350000Y-91000000D03*
%TO.P,U1,35,PB14_35*%
%TO.N,unconnected-(U1-PB14-Pad35)*%
X155350000Y-90500000D03*
%TO.P,U1,36,PB15_36*%
%TO.N,unconnected-(U1-PB15-Pad36)*%
X155350000Y-90000000D03*
%TO.P,U1,37,PC6_37*%
%TO.N,/MT_PWM*%
X155350000Y-89500000D03*
%TO.P,U1,38,PC7_38*%
%TO.N,unconnected-(U1-PC7-Pad38)*%
X155350000Y-89000000D03*
%TO.P,U1,39,PC8_39*%
%TO.N,unconnected-(U1-PC8-Pad39)*%
X155350000Y-88500000D03*
%TO.P,U1,40,PC9_40*%
%TO.N,/MT_SDA*%
X155350000Y-88000000D03*
%TO.P,U1,41,PA8_41*%
%TO.N,/MT_SCL*%
X155350000Y-87500000D03*
%TO.P,U1,42,PA9_42*%
%TO.N,/ESP_RX*%
X155350000Y-87000000D03*
%TO.P,U1,43,PA10_43*%
%TO.N,/ESP_TX*%
X155350000Y-86500000D03*
%TO.P,U1,44,PA11_44*%
%TO.N,/ESD_D-*%
X155350000Y-86000000D03*
%TO.P,U1,45,PA12_45*%
%TO.N,/ESD_D+*%
X155350000Y-85500000D03*
%TO.P,U1,46,PA13_46*%
%TO.N,/SWDIO*%
X155350000Y-85000000D03*
%TO.P,U1,47,VSS_47*%
%TO.N,GND*%
X155350000Y-84500000D03*
%TO.P,U1,48,VDD_48*%
%TO.N,+3.3V*%
X155350000Y-84000000D03*
D31*
%TO.P,U1,49,PA14_49*%
%TO.N,/SWCLK*%
X153425000Y-82075000D03*
%TO.P,U1,50,PA15_50*%
%TO.N,unconnected-(U1-PA15-Pad50)*%
X152925000Y-82075000D03*
%TO.P,U1,51,PC10_51*%
%TO.N,unconnected-(U1-PC10-Pad51)*%
X152425000Y-82075000D03*
%TO.P,U1,52,PC11_52*%
%TO.N,unconnected-(U1-PC11-Pad52)*%
X151925000Y-82075000D03*
%TO.P,U1,53,PC12_53*%
%TO.N,unconnected-(U1-PC12-Pad53)*%
X151425000Y-82075000D03*
%TO.P,U1,54,PD2_54*%
%TO.N,unconnected-(U1-PD2-Pad54)*%
X150925000Y-82075000D03*
%TO.P,U1,55,PB3_55*%
%TO.N,unconnected-(U1-PB3-Pad55)*%
X150425000Y-82075000D03*
%TO.P,U1,56,PB4_56*%
%TO.N,unconnected-(U1-PB4-Pad56)*%
X149925000Y-82075000D03*
%TO.P,U1,57,PB5_57*%
%TO.N,unconnected-(U1-PB5-Pad57)*%
X149425000Y-82075000D03*
%TO.P,U1,58,PB6_58*%
%TO.N,/ENC_B*%
X148925000Y-82075000D03*
%TO.P,U1,59,PB7_59*%
%TO.N,/ENC_A*%
X148425000Y-82075000D03*
%TO.P,U1,60,BOOT0_60*%
%TO.N,Net-(U1-BOOT0)*%
X147925000Y-82075000D03*
%TO.P,U1,61,PB8_61*%
%TO.N,/IMU_SCL*%
X147425000Y-82075000D03*
%TO.P,U1,62,PB9_62*%
%TO.N,/IMU_SDA*%
X146925000Y-82075000D03*
%TO.P,U1,63,VSS_63*%
%TO.N,GND*%
X146425000Y-82075000D03*
%TO.P,U1,64,VDD_64*%
%TO.N,+3.3V*%
X145925000Y-82075000D03*
%TD*%
D20*
%TO.P,C16,1*%
%TO.N,Net-(U1-PH1)*%
X135640000Y-91835000D03*
%TO.P,C16,2*%
%TO.N,GND*%
X137715000Y-91835000D03*
%TD*%
%TO.P,C22,1*%
%TO.N,Net-(U1-VCAP1)*%
X152425000Y-97000000D03*
%TO.P,C22,2*%
%TO.N,GND*%
X154500000Y-97000000D03*
%TD*%
D32*
%TO.P,J8,A1,GND_A1*%
%TO.N,GND*%
X100245000Y-123300000D03*
%TO.P,J8,A4,VBUS_A4*%
%TO.N,Net-(F1-Pad1)*%
X100245000Y-124100000D03*
D33*
%TO.P,J8,A5,CC1_A5*%
%TO.N,Net-(J8-CC1)*%
X100245000Y-125250000D03*
%TO.P,J8,A6,D+_A6*%
%TO.N,Net-(J8-D+-PadA6)*%
X100245000Y-126250000D03*
%TO.P,J8,A7,D-_A7*%
%TO.N,Net-(J8-D--PadA7)*%
X100245000Y-126750000D03*
%TO.P,J8,A8*%
%TO.N,N/C*%
X100245000Y-127750000D03*
D32*
%TO.P,J8,A9,VBUS_A9*%
%TO.N,Net-(F1-Pad1)*%
X100245000Y-128900000D03*
%TO.P,J8,A12,GND_A12*%
%TO.N,GND*%
X100245000Y-129700000D03*
%TO.P,J8,B1,GND_B1*%
X100245000Y-129700000D03*
%TO.P,J8,B4,VBUS_B4*%
%TO.N,Net-(F1-Pad1)*%
X100245000Y-128900000D03*
D33*
%TO.P,J8,B5,CC2_B5*%
%TO.N,Net-(J8-CC2)*%
X100245000Y-128250000D03*
%TO.P,J8,B6,D+_B6*%
%TO.N,Net-(J8-D+-PadA6)*%
X100245000Y-127250000D03*
%TO.P,J8,B7,D-_B7*%
%TO.N,Net-(J8-D--PadA7)*%
X100245000Y-125750000D03*
%TO.P,J8,B8*%
%TO.N,N/C*%
X100245000Y-124750000D03*
D32*
%TO.P,J8,B9,VBUS_B9*%
%TO.N,Net-(F1-Pad1)*%
X100245000Y-124100000D03*
%TO.P,J8,B12,GND_B12*%
%TO.N,GND*%
X100245000Y-123300000D03*
D34*
%TO.P,J8,SH*%
%TO.N,N/C*%
X99605000Y-122180000D03*
D35*
X95425000Y-122180000D03*
D34*
X99605000Y-130820000D03*
D35*
X95425000Y-130820000D03*
%TD*%
D13*
%TO.P,D5,1,K_1*%
%TO.N,GND*%
X151485000Y-102535000D03*
%TO.P,D5,2,A_2*%
%TO.N,Net-(D5-A)*%
X153535000Y-102535000D03*
%TD*%
D36*
%TO.P,U4,1,AO1_1*%
%TO.N,/MD_AO1*%
X129900000Y-112425000D03*
%TO.P,U4,2,AO1_2*%
X129900000Y-113075000D03*
%TO.P,U4,3,PGND1_3*%
%TO.N,GND*%
X129900000Y-113725000D03*
%TO.P,U4,4,PGND1_4*%
X129900000Y-114375000D03*
%TO.P,U4,5,AO2_5*%
%TO.N,/MD_AO2*%
X129900000Y-115025000D03*
%TO.P,U4,6,AO2_6*%
X129900000Y-115675000D03*
%TO.P,U4,7,BO2_7*%
%TO.N,/MD_BO2*%
X129900000Y-116325000D03*
%TO.P,U4,8,BO2_8*%
X129900000Y-116975000D03*
%TO.P,U4,9,PGND2_9*%
%TO.N,GND*%
X129900000Y-117625000D03*
%TO.P,U4,10,PGND2_10*%
X129900000Y-118275000D03*
%TO.P,U4,11,BO1_11*%
%TO.N,/MD_BO1*%
X129900000Y-118925000D03*
%TO.P,U4,12,BO1_12*%
X129900000Y-119575000D03*
%TO.P,U4,13,VM2_13*%
%TO.N,VM*%
X137100000Y-119575000D03*
%TO.P,U4,14,VM3_14*%
X137100000Y-118925000D03*
%TO.P,U4,15,PWMB_15*%
%TO.N,/MD_PWMB*%
X137100000Y-118275000D03*
%TO.P,U4,16,BIN2_16*%
%TO.N,/MD_BIN2*%
X137100000Y-117625000D03*
%TO.P,U4,17,BIN1_17*%
%TO.N,/MD_BIN1*%
X137100000Y-116975000D03*
%TO.P,U4,18,GND_18*%
%TO.N,GND*%
X137100000Y-116325000D03*
%TO.P,U4,19,STBY_19*%
%TO.N,/MD_STBY*%
X137100000Y-115675000D03*
%TO.P,U4,20,VCC_20*%
%TO.N,+3.3V*%
X137100000Y-115025000D03*
%TO.P,U4,21,AIN1_21*%
%TO.N,/MD_AIN1*%
X137100000Y-114375000D03*
%TO.P,U4,22,AIN2_22*%
%TO.N,/MD_AIN2*%
X137100000Y-113725000D03*
%TO.P,U4,23,PWMA_23*%
%TO.N,/MD_PWMA*%
X137100000Y-113075000D03*
%TO.P,U4,24,VM1_24*%
%TO.N,VM*%
X137100000Y-112425000D03*
%TD*%
D20*
%TO.P,C6,1*%
%TO.N,5V_REG*%
X186425000Y-53000000D03*
%TO.P,C6,2*%
%TO.N,GND*%
X188500000Y-53000000D03*
%TD*%
D27*
%TO.P,R10,1*%
%TO.N,/USER_LED*%
X151500000Y-100035000D03*
%TO.P,R10,2*%
%TO.N,Net-(D5-A)*%
X153500000Y-100035000D03*
%TD*%
D24*
%TO.P,C5,1*%
%TO.N,+3.3V*%
X151510000Y-50000000D03*
%TO.P,C5,2*%
%TO.N,GND*%
X151510000Y-47925000D03*
%TD*%
D37*
%TO.P,R8,1*%
%TO.N,/ESD_D+*%
X113500000Y-127950000D03*
%TO.P,R8,2*%
%TO.N,Net-(R8-Pad2)*%
X111500000Y-127950000D03*
%TD*%
D14*
%TO.P,C9,1*%
%TO.N,VM*%
X169537500Y-60500000D03*
%TO.P,C9,2*%
%TO.N,GND*%
X167462500Y-60500000D03*
%TD*%
D13*
%TO.P,D1,1,K_1*%
%TO.N,GND*%
X184450000Y-46000000D03*
%TO.P,D1,2,A_2*%
%TO.N,Net-(D1-A)*%
X186500000Y-46000000D03*
%TD*%
D14*
%TO.P,C11,1*%
%TO.N,+5V*%
X169537500Y-78500000D03*
%TO.P,C11,2*%
%TO.N,GND*%
X167462500Y-78500000D03*
%TD*%
D20*
%TO.P,C8,1*%
%TO.N,5V_REG*%
X186425000Y-55520000D03*
%TO.P,C8,2*%
%TO.N,GND*%
X188500000Y-55520000D03*
%TD*%
%TO.P,C19,1*%
%TO.N,+5V*%
X107425000Y-98500000D03*
%TO.P,C19,2*%
%TO.N,GND*%
X109500000Y-98500000D03*
%TD*%
D27*
%TO.P,R9,1*%
%TO.N,Vusb*%
X108000000Y-114685000D03*
%TO.P,R9,2*%
%TO.N,Net-(D4-A)*%
X110000000Y-114685000D03*
%TD*%
D38*
%TO.P,J2,1,Pin_1_1*%
%TO.N,/MD_BO1*%
X122075000Y-124692500D03*
D23*
%TO.P,J2,2,Pin_2_2*%
%TO.N,/MD_BO2*%
X122075000Y-122192500D03*
%TD*%
D39*
%TO.P,F1,1*%
%TO.N,Net-(F1-Pad1)*%
X103500000Y-118500000D03*
%TO.P,F1,2*%
%TO.N,Vusb*%
X107775000Y-118500000D03*
%TD*%
D20*
%TO.P,C12,1*%
%TO.N,+3.3V*%
X186925000Y-73500000D03*
%TO.P,C12,2*%
%TO.N,GND*%
X189000000Y-73500000D03*
%TD*%
D40*
%TO.P,R5,1*%
%TO.N,Net-(J8-CC1)*%
X104000000Y-123500000D03*
%TO.P,R5,2*%
%TO.N,GND*%
X105825000Y-123500000D03*
%TD*%
D41*
%TO.P,J3,1,Pin_1_1*%
%TO.N,VM*%
X172000000Y-43500000D03*
D42*
%TO.P,J3,2,Pin_2_2*%
%TO.N,GND*%
X174500000Y-43500000D03*
%TD*%
D11*
%TO.P,J6,1,Pin_1_1*%
%TO.N,+3.3V*%
X151000000Y-71000000D03*
D12*
%TO.P,J6,2,Pin_2_2*%
%TO.N,/ENC_A*%
X153500000Y-71000000D03*
%TO.P,J6,3,Pin_3_3*%
%TO.N,/ENC_B*%
X156000000Y-71000000D03*
%TO.P,J6,4,Pin_4_4*%
%TO.N,GND*%
X158500000Y-71000000D03*
%TD*%
D14*
%TO.P,C15,1*%
%TO.N,Net-(U1-PH0)*%
X137677500Y-84335000D03*
%TO.P,C15,2*%
%TO.N,GND*%
X135602500Y-84335000D03*
%TD*%
D13*
%TO.P,D4,1,K_1*%
%TO.N,GND*%
X107975000Y-112000000D03*
%TO.P,D4,2,A_2*%
%TO.N,Net-(D4-A)*%
X110025000Y-112000000D03*
%TD*%
D37*
%TO.P,R7,1*%
%TO.N,/ESD_D-*%
X113500000Y-125000000D03*
%TO.P,R7,2*%
%TO.N,Net-(R7-Pad2)*%
X111500000Y-125000000D03*
%TD*%
D43*
%TO.P,R6,1*%
%TO.N,GND*%
X106000000Y-130500000D03*
%TO.P,R6,2*%
%TO.N,Net-(J8-CC2)*%
X104175000Y-130500000D03*
%TD*%
D44*
%TO.P,D3,1,VDD_1*%
%TO.N,+5V*%
X107650000Y-102700000D03*
%TO.P,D3,2,DOUT_2*%
%TO.N,unconnected-(D3-DOUT-Pad2)*%
X107650000Y-106000000D03*
%TO.P,D3,3,VSS_3*%
%TO.N,GND*%
X112550000Y-106000000D03*
%TO.P,D3,4,DIN_4*%
%TO.N,/WS_DIN*%
X112550000Y-102700000D03*
%TD*%
D45*
%TO.P,R4,1*%
%TO.N,Net-(R4-Pad1)*%
X144500000Y-60500000D03*
%TO.P,R4,2*%
%TO.N,Net-(U1-BOOT0)*%
X144500000Y-62500000D03*
%TD*%
D24*
%TO.P,C18,1*%
%TO.N,VM*%
X184500000Y-106000000D03*
%TO.P,C18,2*%
%TO.N,GND*%
X184500000Y-103925000D03*
%TD*%
D27*
%TO.P,R2,1*%
%TO.N,+3.3V*%
X185000000Y-80000000D03*
%TO.P,R2,2*%
%TO.N,Net-(D2-A)*%
X187000000Y-80000000D03*
%TD*%
D24*
%TO.P,C4,1*%
%TO.N,+3.3V*%
X148500000Y-50000000D03*
%TO.P,C4,2*%
%TO.N,GND*%
X148500000Y-47925000D03*
%TD*%
D46*
%TO.P,R3,1*%
%TO.N,Net-(J5-Pin_3)*%
X168960000Y-93040000D03*
%TO.P,R3,2*%
%TO.N,+3.3V*%
X168960000Y-91040000D03*
%TD*%
D47*
%TO.P,U5,1,I/O1_1*%
%TO.N,Net-(J8-D--PadA7)*%
X105000000Y-125550000D03*
%TO.P,U5,2,GND_2*%
%TO.N,GND*%
X105000000Y-126500000D03*
%TO.P,U5,3,I/O2_3*%
%TO.N,Net-(J8-D+-PadA6)*%
X105000000Y-127450000D03*
%TO.P,U5,4,I/O2_4*%
%TO.N,Net-(R8-Pad2)*%
X107275000Y-127450000D03*
%TO.P,U5,5,VBUS_5*%
%TO.N,Vusb*%
X107275000Y-126500000D03*
%TO.P,U5,6,I/O1_6*%
%TO.N,Net-(R7-Pad2)*%
X107275000Y-125550000D03*
%TD*%
D48*
%TO.N,GND*%
X155722500Y-96965000D03*
X174500000Y-45500000D03*
X102000000Y-121500000D03*
X138937500Y-91800000D03*
X107500000Y-130500000D03*
X134380000Y-84370000D03*
X147925000Y-61250000D03*
X123612500Y-101215000D03*
X162500000Y-103500000D03*
X158500000Y-73000000D03*
X174000000Y-74000000D03*
X182500000Y-46000000D03*
X166000000Y-81500000D03*
X128100000Y-117525000D03*
X190500000Y-73500000D03*
X166000000Y-78500000D03*
X124625000Y-97355000D03*
X157500000Y-84500000D03*
X102000000Y-130000000D03*
X151500000Y-95000000D03*
X167500000Y-56500000D03*
X133640000Y-87335000D03*
X139500000Y-48950000D03*
X169960000Y-95500000D03*
X128100000Y-114525000D03*
X128100000Y-113525000D03*
X153500000Y-95000000D03*
X128100000Y-118525000D03*
X103500000Y-126500000D03*
X157000000Y-81000000D03*
X147000000Y-83500000D03*
X106500000Y-112000000D03*
X183500000Y-82500000D03*
X167500000Y-62000000D03*
X142500000Y-46500000D03*
X190000000Y-53000000D03*
X142500000Y-48950000D03*
X139500000Y-46500000D03*
X145500000Y-46500000D03*
X184250000Y-102565000D03*
X114150000Y-106000000D03*
X145500000Y-89000000D03*
X180250000Y-100065000D03*
X139140000Y-89335000D03*
X111015000Y-98315000D03*
X139100000Y-116525000D03*
X190500000Y-76500000D03*
X148500000Y-46500000D03*
X190000000Y-55500000D03*
X114500000Y-72800000D03*
X145500000Y-92000000D03*
X151500000Y-46500000D03*
X174000000Y-53000000D03*
X157420000Y-53000000D03*
X151500000Y-104035000D03*
X107000000Y-123500000D03*
X143000000Y-113000000D03*
%TO.N,Vusb*%
X187500000Y-64500000D03*
X187500000Y-62000000D03*
%TO.N,/ESD_D-*%
X123000000Y-84500000D03*
X112000000Y-117500000D03*
X123500000Y-81500000D03*
X112000000Y-120000000D03*
%TO.N,/ESD_D+*%
X180000000Y-85000000D03*
X163500000Y-128000000D03*
X177000000Y-85000000D03*
X163500000Y-118500000D03*
%TO.N,/SWDIO*%
X158500000Y-61000000D03*
X161500000Y-61500000D03*
%TD*%
%TO.N,+3.3V*%
D49*
X152500000Y-69500000D02*
X152500000Y-52000000D01*
X146919000Y-106606000D02*
X138500000Y-115025000D01*
D50*
X186925000Y-73500000D02*
X186925000Y-74075000D01*
X186925000Y-74075000D02*
X184500000Y-76500000D01*
X145490000Y-51490000D02*
X146000000Y-52000000D01*
D49*
X142490000Y-50037500D02*
X142490000Y-51490000D01*
X155350000Y-84000000D02*
X156730466Y-84000000D01*
D50*
X147925000Y-57925000D02*
X145000000Y-55000000D01*
D49*
X178500000Y-87040000D02*
X178500000Y-82689000D01*
D50*
X145000000Y-55000000D02*
X142000000Y-52000000D01*
X185000000Y-77000000D02*
X184500000Y-76500000D01*
X148500000Y-51500000D02*
X149000000Y-52000000D01*
X182000000Y-76500000D02*
X184500000Y-76500000D01*
X142000000Y-52000000D02*
X140000000Y-52000000D01*
X143000000Y-52000000D02*
X142000000Y-52000000D01*
D49*
X146925000Y-91925000D02*
X146925000Y-93425000D01*
X175000000Y-90540000D02*
X172460000Y-90540000D01*
D50*
X162500000Y-82689000D02*
X161500000Y-82689000D01*
D49*
X146925000Y-93425000D02*
X146919000Y-93431000D01*
X153425000Y-93425000D02*
X160000000Y-100000000D01*
D50*
X158041466Y-82689000D02*
X156834466Y-83896000D01*
X185000000Y-80000000D02*
X185000000Y-78000000D01*
D49*
X140400000Y-115025000D02*
X140925000Y-114500000D01*
D50*
X186915000Y-76500000D02*
X186925000Y-76510000D01*
X151510000Y-50000000D02*
X151510000Y-50510000D01*
X153000000Y-52000000D02*
X159000000Y-52000000D01*
X185000000Y-78000000D02*
X185000000Y-77000000D01*
X152500000Y-52000000D02*
X153000000Y-52000000D01*
D49*
X144000000Y-90000000D02*
X145000000Y-90000000D01*
D50*
X162500000Y-82689000D02*
X164500000Y-80689000D01*
X147925000Y-58250000D02*
X147925000Y-57925000D01*
X178500000Y-82689000D02*
X173000000Y-82689000D01*
D49*
X169460000Y-90540000D02*
X168960000Y-91040000D01*
D50*
X161500000Y-82689000D02*
X158041466Y-82689000D01*
D49*
X172460000Y-90540000D02*
X169460000Y-90540000D01*
X151000000Y-71000000D02*
X152500000Y-69500000D01*
D50*
X180311000Y-82689000D02*
X178500000Y-82689000D01*
X163500000Y-82689000D02*
X162500000Y-82689000D01*
D49*
X175000000Y-90540000D02*
X178500000Y-87040000D01*
D50*
X149000000Y-52000000D02*
X146000000Y-52000000D01*
X160277500Y-81035000D02*
X160277500Y-81466500D01*
D49*
X137100000Y-115025000D02*
X138500000Y-115025000D01*
D50*
X173000000Y-82689000D02*
X164500000Y-82689000D01*
X159000000Y-52000000D02*
X164000000Y-52000000D01*
D49*
X142490000Y-51490000D02*
X143000000Y-52000000D01*
X156730466Y-84000000D02*
X156834466Y-83896000D01*
D50*
X164500000Y-82689000D02*
X163500000Y-82689000D01*
D49*
X140925000Y-114500000D02*
X140602500Y-114500000D01*
X142490000Y-50037500D02*
X141952500Y-50037500D01*
D50*
X184500000Y-76500000D02*
X186915000Y-76500000D01*
D49*
X160000000Y-100000000D02*
X160000000Y-101500000D01*
X138500000Y-115025000D02*
X140400000Y-115025000D01*
D50*
X185000000Y-78000000D02*
X180311000Y-82689000D01*
X145490000Y-50000000D02*
X145490000Y-51490000D01*
D49*
X146919000Y-93431000D02*
X146919000Y-106606000D01*
D50*
X172460000Y-88000000D02*
X172460000Y-90540000D01*
X140000000Y-52000000D02*
X139490000Y-51490000D01*
X148500000Y-50000000D02*
X148500000Y-51500000D01*
X145000000Y-55000000D02*
X147554000Y-57554000D01*
X182000000Y-76500000D02*
X175700000Y-76500000D01*
X139490000Y-51490000D02*
X139490000Y-50037500D01*
X146000000Y-52000000D02*
X143000000Y-52000000D01*
X164500000Y-80689000D02*
X164500000Y-52500000D01*
X159000000Y-52000000D02*
X159500000Y-52500000D01*
X160277500Y-81466500D02*
X161500000Y-82689000D01*
X151510000Y-50510000D02*
X153000000Y-52000000D01*
D49*
X145000000Y-90000000D02*
X146925000Y-91925000D01*
D50*
X149000000Y-52000000D02*
X152500000Y-52000000D01*
X164000000Y-52000000D02*
X164500000Y-52500000D01*
X159500000Y-52500000D02*
X162500000Y-55500000D01*
%TO.N,GND*%
X157420000Y-55500000D02*
X157420000Y-53000000D01*
D49*
X146425000Y-82075000D02*
X146425000Y-82925000D01*
D50*
X190000000Y-53000000D02*
X188500000Y-53000000D01*
D49*
X155350000Y-84500000D02*
X157500000Y-84500000D01*
D50*
X123612500Y-102312500D02*
X123800000Y-102500000D01*
X175700000Y-74200000D02*
X174200000Y-74200000D01*
X180500000Y-100315000D02*
X180250000Y-100065000D01*
X112550000Y-106000000D02*
X114150000Y-106000000D01*
X174125000Y-52875000D02*
X174000000Y-53000000D01*
D51*
X100245000Y-129700000D02*
X101700000Y-129700000D01*
D50*
X100700000Y-123300000D02*
X102000000Y-122000000D01*
X167425000Y-58000000D02*
X167425000Y-56575000D01*
D52*
X129900000Y-114375000D02*
X128250000Y-114375000D01*
D49*
X152925000Y-93425000D02*
X152925000Y-94425000D01*
D50*
X175700000Y-52875000D02*
X174125000Y-52875000D01*
X137600000Y-89000000D02*
X138805000Y-89000000D01*
X184500000Y-102815000D02*
X184250000Y-102565000D01*
X180500000Y-101867500D02*
X180500000Y-100315000D01*
X134415000Y-84335000D02*
X134380000Y-84370000D01*
X155687500Y-97000000D02*
X155722500Y-96965000D01*
X112000000Y-73340000D02*
X113960000Y-73340000D01*
D52*
X128250000Y-114375000D02*
X128100000Y-114525000D01*
D50*
X184975000Y-82500000D02*
X183500000Y-82500000D01*
X133640000Y-87335000D02*
X135365000Y-87335000D01*
D52*
X128200000Y-117625000D02*
X128100000Y-117525000D01*
D50*
X167462500Y-78500000D02*
X166000000Y-78500000D01*
X190500000Y-73500000D02*
X189000000Y-73500000D01*
X188520000Y-55500000D02*
X188500000Y-55520000D01*
D49*
X145845592Y-92000000D02*
X145500000Y-92000000D01*
D50*
X184500000Y-103925000D02*
X184500000Y-102815000D01*
X147925000Y-62750000D02*
X147925000Y-61250000D01*
X142490000Y-46510000D02*
X142500000Y-46500000D01*
X107975000Y-112000000D02*
X106500000Y-112000000D01*
X174200000Y-74200000D02*
X174000000Y-74000000D01*
X158202500Y-81035000D02*
X157035000Y-81035000D01*
D52*
X129900000Y-118275000D02*
X128350000Y-118275000D01*
D50*
X109500000Y-98500000D02*
X110830000Y-98500000D01*
X145490000Y-46510000D02*
X145500000Y-46500000D01*
X151510000Y-47925000D02*
X151510000Y-46510000D01*
X139490000Y-48940000D02*
X139500000Y-48950000D01*
X184450000Y-46000000D02*
X182500000Y-46000000D01*
X157035000Y-81035000D02*
X157000000Y-81000000D01*
X110830000Y-98500000D02*
X111015000Y-98315000D01*
X158500000Y-71000000D02*
X158500000Y-73000000D01*
X154500000Y-97000000D02*
X155687500Y-97000000D01*
X174500000Y-43500000D02*
X174500000Y-45500000D01*
D52*
X137100000Y-116325000D02*
X138900000Y-116325000D01*
D50*
X126075000Y-97215000D02*
X124765000Y-97215000D01*
X145490000Y-47925000D02*
X145490000Y-46510000D01*
X137715000Y-91835000D02*
X138902500Y-91835000D01*
D49*
X151425000Y-94925000D02*
X151500000Y-95000000D01*
X145500000Y-89000000D02*
X145000000Y-89500000D01*
D50*
X135602500Y-84335000D02*
X134415000Y-84335000D01*
X190500000Y-76500000D02*
X189010000Y-76500000D01*
X167462500Y-61962500D02*
X167500000Y-62000000D01*
D52*
X129900000Y-117625000D02*
X128200000Y-117625000D01*
D50*
X139490000Y-46510000D02*
X139500000Y-46500000D01*
X142490000Y-47962500D02*
X142490000Y-46510000D01*
X190000000Y-55500000D02*
X188520000Y-55500000D01*
X167425000Y-56575000D02*
X167500000Y-56500000D01*
D52*
X129900000Y-113725000D02*
X128300000Y-113725000D01*
D50*
X172460000Y-95620000D02*
X170080000Y-95620000D01*
X151485000Y-102535000D02*
X151485000Y-104020000D01*
D49*
X151425000Y-93425000D02*
X151425000Y-94925000D01*
D50*
X139490000Y-47962500D02*
X139490000Y-48940000D01*
D52*
X138900000Y-116325000D02*
X139100000Y-116525000D01*
D50*
X151510000Y-46510000D02*
X151500000Y-46500000D01*
D49*
X146425000Y-93425000D02*
X146425000Y-92579408D01*
D50*
X143000000Y-114500000D02*
X143000000Y-113000000D01*
X139490000Y-47962500D02*
X139490000Y-46510000D01*
D49*
X146425000Y-82925000D02*
X147000000Y-83500000D01*
D52*
X128300000Y-113725000D02*
X128100000Y-113525000D01*
D50*
X170080000Y-95620000D02*
X169960000Y-95500000D01*
X105825000Y-123500000D02*
X107000000Y-123500000D01*
X135365000Y-87335000D02*
X135400000Y-87300000D01*
D52*
X128350000Y-118275000D02*
X128100000Y-118525000D01*
D50*
X138805000Y-89000000D02*
X139140000Y-89335000D01*
X189010000Y-76500000D02*
X189000000Y-76510000D01*
X124765000Y-97215000D02*
X124625000Y-97355000D01*
X162500000Y-101500000D02*
X162500000Y-103500000D01*
X113960000Y-73340000D02*
X114500000Y-72800000D01*
X167462500Y-60500000D02*
X167462500Y-61962500D01*
D51*
X101700000Y-129700000D02*
X102000000Y-130000000D01*
D50*
X167462500Y-81510000D02*
X166010000Y-81510000D01*
X105000000Y-126500000D02*
X103500000Y-126500000D01*
X166010000Y-81510000D02*
X166000000Y-81500000D01*
X102000000Y-122000000D02*
X102000000Y-121500000D01*
X148500000Y-47925000D02*
X148500000Y-46500000D01*
X123612500Y-101215000D02*
X123612500Y-102312500D01*
X106000000Y-130500000D02*
X107500000Y-130500000D01*
D49*
X145000000Y-89500000D02*
X144000000Y-89500000D01*
D50*
X151485000Y-104020000D02*
X151500000Y-104035000D01*
D49*
X152925000Y-94425000D02*
X153500000Y-95000000D01*
D50*
X138902500Y-91835000D02*
X138937500Y-91800000D01*
D49*
X146425000Y-92579408D02*
X145845592Y-92000000D01*
D50*
X100245000Y-123300000D02*
X100700000Y-123300000D01*
%TO.N,/MT_PWM*%
D49*
X165000000Y-101500000D02*
X165000000Y-98304408D01*
X156195592Y-89500000D02*
X155350000Y-89500000D01*
X165000000Y-98304408D02*
X156195592Y-89500000D01*
%TO.N,/MT_SCL*%
X167500000Y-101500000D02*
X167500000Y-98804408D01*
X167500000Y-98804408D02*
X156195592Y-87500000D01*
X156195592Y-87500000D02*
X155350000Y-87500000D01*
%TO.N,/MT_SDA*%
X154248000Y-88256408D02*
X154504408Y-88000000D01*
X170000000Y-101500000D02*
X168698000Y-102802000D01*
X164512471Y-102802000D02*
X163823000Y-102112529D01*
X163823000Y-102112529D02*
X163823000Y-98823000D01*
X163823000Y-98823000D02*
X161327408Y-98823000D01*
X154248000Y-91743592D02*
X154248000Y-88256408D01*
X168698000Y-102802000D02*
X164512471Y-102802000D01*
X154504408Y-88000000D02*
X155350000Y-88000000D01*
X161327408Y-98823000D02*
X154248000Y-91743592D01*
%TO.N,Net-(D2-A)*%
D50*
X187000000Y-82475000D02*
X187025000Y-82500000D01*
X187000000Y-80000000D02*
X187000000Y-82475000D01*
%TO.N,+5V*%
X127754000Y-45746000D02*
X104500000Y-69000000D01*
X174575420Y-71575420D02*
X181604840Y-64546000D01*
X172400000Y-73750840D02*
X174575420Y-71575420D01*
X169537500Y-81510000D02*
X169790000Y-81510000D01*
X169790000Y-81510000D02*
X172400000Y-78900000D01*
X181604840Y-64546000D02*
X183871000Y-64546000D01*
X112000000Y-70800000D02*
X105200000Y-70800000D01*
X183871000Y-64546000D02*
X184075000Y-64750000D01*
X104500000Y-96500000D02*
X104500000Y-99550000D01*
X158747264Y-45746000D02*
X127754000Y-45746000D01*
X104500000Y-69000000D02*
X104500000Y-71500000D01*
X172400000Y-78900000D02*
X172500000Y-78800000D01*
X172500000Y-78800000D02*
X169837500Y-78800000D01*
X107425000Y-98500000D02*
X106500000Y-98500000D01*
X165208000Y-62208000D02*
X165208000Y-52206736D01*
X169837500Y-78800000D02*
X169537500Y-78500000D01*
X165208000Y-52206736D02*
X158747264Y-45746000D01*
X104500000Y-99550000D02*
X107650000Y-102700000D01*
X106500000Y-98500000D02*
X104500000Y-96500000D01*
X174575420Y-71575420D02*
X165208000Y-62208000D01*
X172400000Y-78900000D02*
X172400000Y-73750840D01*
X105200000Y-70800000D02*
X104500000Y-71500000D01*
X104500000Y-71500000D02*
X104500000Y-96500000D01*
X175700000Y-78800000D02*
X172500000Y-78800000D01*
%TO.N,Net-(J5-Pin_3)*%
X172460000Y-93080000D02*
X169000000Y-93080000D01*
X169000000Y-93080000D02*
X168960000Y-93040000D01*
%TO.N,/ESP_RX*%
D49*
X156337644Y-87000000D02*
X155350000Y-87000000D01*
X163594644Y-94257000D02*
X156337644Y-87000000D01*
X175000000Y-93080000D02*
X173823000Y-94257000D01*
X173823000Y-94257000D02*
X163594644Y-94257000D01*
%TO.N,/ESP_TX*%
X175000000Y-88000000D02*
X173500000Y-86500000D01*
X173500000Y-86500000D02*
X155350000Y-86500000D01*
%TO.N,/IMU_SCL*%
X147425000Y-81087356D02*
X142217644Y-75880000D01*
X142217644Y-75880000D02*
X112000000Y-75880000D01*
X147425000Y-82075000D02*
X147425000Y-81087356D01*
%TO.N,/IMU_SDA*%
X144115592Y-78420000D02*
X112000000Y-78420000D01*
X146925000Y-82075000D02*
X146925000Y-81229408D01*
X146925000Y-81229408D02*
X144115592Y-78420000D01*
%TO.N,/IMU_INT*%
X112000000Y-88580000D02*
X118080000Y-82500000D01*
X141154408Y-82500000D02*
X143154408Y-84500000D01*
X143154408Y-84500000D02*
X144000000Y-84500000D01*
X118080000Y-82500000D02*
X141154408Y-82500000D01*
%TO.N,VM*%
D51*
X135834500Y-112434500D02*
X135844000Y-112425000D01*
D49*
X182675000Y-119575000D02*
X187875000Y-114375000D01*
X176000000Y-63500000D02*
X171237500Y-58737500D01*
X180500000Y-107000000D02*
X187875000Y-114375000D01*
D51*
X137100000Y-118925000D02*
X135869000Y-118925000D01*
X137100000Y-118925000D02*
X137100000Y-119575000D01*
D50*
X169537500Y-60437500D02*
X171237500Y-58737500D01*
D49*
X191127000Y-65627000D02*
X189000000Y-63500000D01*
D51*
X135834500Y-118890500D02*
X135834500Y-112434500D01*
D49*
X184500000Y-108000000D02*
X189375000Y-112875000D01*
D50*
X175700000Y-57475000D02*
X172500000Y-57475000D01*
X172500000Y-57475000D02*
X171500000Y-57475000D01*
X172000000Y-43500000D02*
X172000000Y-56975000D01*
X169537500Y-60500000D02*
X169537500Y-60437500D01*
D49*
X137100000Y-119575000D02*
X182675000Y-119575000D01*
X189375000Y-112875000D02*
X191127000Y-111123000D01*
X184500000Y-106000000D02*
X184500000Y-108000000D01*
D50*
X171500000Y-57475000D02*
X170025000Y-57475000D01*
D49*
X180500000Y-106982500D02*
X180500000Y-107000000D01*
D51*
X135869000Y-118925000D02*
X135834500Y-118890500D01*
D50*
X172000000Y-56975000D02*
X171500000Y-57475000D01*
X170025000Y-57475000D02*
X169500000Y-58000000D01*
D49*
X187875000Y-114375000D02*
X189375000Y-112875000D01*
D50*
X171237500Y-58737500D02*
X172500000Y-57475000D01*
D49*
X191127000Y-111123000D02*
X191127000Y-65627000D01*
X189000000Y-63500000D02*
X176000000Y-63500000D01*
D51*
X135844000Y-112425000D02*
X137100000Y-112425000D01*
%TO.N,Net-(U1-PH0)*%
D50*
X137677500Y-84335000D02*
X137677500Y-86000000D01*
X137677500Y-87222500D02*
X137600000Y-87300000D01*
D49*
X144000000Y-86000000D02*
X137677500Y-86000000D01*
D50*
X137677500Y-86000000D02*
X137677500Y-87222500D01*
%TO.N,Net-(U1-PH1)*%
D49*
X139000000Y-90500000D02*
X135640000Y-90500000D01*
D50*
X135640000Y-89240000D02*
X135400000Y-89000000D01*
D49*
X144000000Y-86500000D02*
X143000000Y-86500000D01*
D50*
X135640000Y-90500000D02*
X135640000Y-89240000D01*
X135640000Y-91835000D02*
X135640000Y-90500000D01*
D49*
X143000000Y-86500000D02*
X139000000Y-90500000D01*
%TO.N,Net-(R4-Pad1)*%
D50*
X147175000Y-60500000D02*
X147925000Y-59750000D01*
X144500000Y-60500000D02*
X147175000Y-60500000D01*
%TO.N,5V_REG*%
X184587500Y-54587500D02*
X184475000Y-54475000D01*
X184075000Y-61750000D02*
X184075000Y-56100000D01*
X182000000Y-55175000D02*
X184000000Y-55175000D01*
X184075000Y-56100000D02*
X185000000Y-55175000D01*
X186175000Y-53000000D02*
X184587500Y-54587500D01*
X186425000Y-53000000D02*
X186175000Y-53000000D01*
X184475000Y-54475000D02*
X184475000Y-48500000D01*
X185000000Y-55175000D02*
X186080000Y-55175000D01*
X184000000Y-55175000D02*
X185000000Y-55175000D01*
X186080000Y-55175000D02*
X186425000Y-55520000D01*
X182000000Y-55175000D02*
X175700000Y-55175000D01*
X184587500Y-54587500D02*
X184000000Y-55175000D01*
%TO.N,Net-(D1-A)*%
X186475000Y-46025000D02*
X186500000Y-46000000D01*
X186475000Y-48500000D02*
X186475000Y-46025000D01*
%TO.N,/SWCLK*%
D49*
X159960000Y-75540000D02*
X159960000Y-55500000D01*
X153425000Y-82075000D02*
X159960000Y-75540000D01*
%TO.N,Vusb*%
D50*
X176571658Y-126500000D02*
X191708000Y-111363658D01*
X107775000Y-116000000D02*
X107775000Y-114910000D01*
X191708000Y-65386342D02*
X188321658Y-62000000D01*
X117500000Y-126500000D02*
X118500000Y-126500000D01*
X107775000Y-118500000D02*
X107775000Y-116000000D01*
D51*
X187500000Y-65000000D02*
X186250000Y-66250000D01*
D50*
X118500000Y-126500000D02*
X119000000Y-126500000D01*
X184075000Y-66250000D02*
X186250000Y-66250000D01*
X119000000Y-126500000D02*
X176571658Y-126500000D01*
X117500000Y-125500000D02*
X118500000Y-126500000D01*
X191708000Y-111363658D02*
X191708000Y-65386342D01*
X117500000Y-122000000D02*
X114000000Y-118500000D01*
X188321658Y-62000000D02*
X187500000Y-62000000D01*
X117500000Y-122000000D02*
X117500000Y-125500000D01*
X107775000Y-118500000D02*
X114000000Y-118500000D01*
D51*
X187500000Y-64500000D02*
X187500000Y-65000000D01*
D50*
X107775000Y-114910000D02*
X108000000Y-114685000D01*
X107275000Y-126500000D02*
X117500000Y-126500000D01*
%TO.N,Net-(SW1A-B)*%
D49*
X141350000Y-90291592D02*
X133109092Y-98532500D01*
X144000000Y-87000000D02*
X143154408Y-87000000D01*
D50*
X130500000Y-102500000D02*
X130500000Y-99565000D01*
D49*
X143154408Y-87000000D02*
X141350000Y-88804408D01*
D50*
X129467500Y-98532500D02*
X128150000Y-97215000D01*
D49*
X141350000Y-88804408D02*
X141350000Y-90291592D01*
D50*
X130500000Y-99565000D02*
X129467500Y-98532500D01*
D49*
X133109092Y-98532500D02*
X129467500Y-98532500D01*
%TO.N,/WS_DIN*%
X139564500Y-92793447D02*
X141857947Y-90500000D01*
X131923000Y-103577000D02*
X113427000Y-103577000D01*
X141857947Y-90500000D02*
X144000000Y-90500000D01*
X112550000Y-102700000D02*
X113427000Y-103577000D01*
X139564500Y-95935500D02*
X139564500Y-92793447D01*
X131923000Y-103577000D02*
X139564500Y-95935500D01*
%TO.N,/MD_PWMA*%
X137100000Y-113075000D02*
X138229000Y-113075000D01*
X142000000Y-91000000D02*
X144000000Y-91000000D01*
X138229000Y-113075000D02*
X141000000Y-110304000D01*
X141000000Y-92000000D02*
X142000000Y-91000000D01*
X141000000Y-110304000D02*
X141000000Y-92000000D01*
%TO.N,/MD_AIN2*%
X144000000Y-107954000D02*
X138229000Y-113725000D01*
X138229000Y-113725000D02*
X137100000Y-113725000D01*
X144000000Y-91500000D02*
X144000000Y-107954000D01*
%TO.N,/MD_AIN1*%
X145388000Y-107216000D02*
X138229000Y-114375000D01*
X138229000Y-114375000D02*
X137100000Y-114375000D01*
X145388000Y-93962000D02*
X145388000Y-107216000D01*
X145925000Y-93425000D02*
X145388000Y-93962000D01*
%TO.N,/MD_STBY*%
X147425000Y-94575000D02*
X147425000Y-93425000D01*
X137100000Y-115675000D02*
X145174212Y-115675000D01*
X145174212Y-115675000D02*
X147373000Y-113476212D01*
X147373000Y-94627000D02*
X147425000Y-94575000D01*
X147373000Y-113476212D02*
X147373000Y-94627000D01*
%TO.N,/MD_PWMB*%
X153668592Y-92323000D02*
X161177000Y-99831408D01*
X147925000Y-92579408D02*
X148181408Y-92323000D01*
X148181408Y-92323000D02*
X153668592Y-92323000D01*
X145372928Y-118275000D02*
X137100000Y-118275000D01*
X161177000Y-99831408D02*
X161177000Y-102470928D01*
X147925000Y-93425000D02*
X147925000Y-92579408D01*
X161177000Y-102470928D02*
X145372928Y-118275000D01*
%TO.N,/MD_BIN1*%
X144339264Y-117152000D02*
X148425000Y-113066264D01*
X138663288Y-116975000D02*
X138840288Y-117152000D01*
X137100000Y-116975000D02*
X138663288Y-116975000D01*
X148425000Y-113066264D02*
X148425000Y-93425000D01*
X138840288Y-117152000D02*
X144339264Y-117152000D01*
%TO.N,/MD_BIN2*%
X148925000Y-113208316D02*
X148925000Y-93425000D01*
X137100000Y-117625000D02*
X144508316Y-117625000D01*
X144508316Y-117625000D02*
X148925000Y-113208316D01*
%TO.N,/USER_LED*%
X151500000Y-98000000D02*
X150000000Y-96500000D01*
X150000000Y-96500000D02*
X150000000Y-95500000D01*
X150000000Y-95500000D02*
X150925000Y-94575000D01*
X151500000Y-100035000D02*
X151500000Y-98000000D01*
X150925000Y-94575000D02*
X150925000Y-93425000D01*
%TO.N,Net-(U1-VCAP1)*%
X152425000Y-93425000D02*
X152425000Y-97000000D01*
%TO.N,/ESD_D-*%
X123000000Y-89500000D02*
X110000000Y-102500000D01*
D50*
X113500000Y-125000000D02*
X113500000Y-121500000D01*
D49*
X155350000Y-86000000D02*
X148500000Y-86000000D01*
X148500000Y-86000000D02*
X144000000Y-81500000D01*
X123000000Y-84500000D02*
X123000000Y-89500000D01*
X144000000Y-81500000D02*
X123500000Y-81500000D01*
X110000000Y-109000000D02*
X112000000Y-111000000D01*
D50*
X113500000Y-121500000D02*
X112000000Y-120000000D01*
D49*
X110000000Y-102500000D02*
X110000000Y-109000000D01*
X112000000Y-111000000D02*
X112000000Y-117500000D01*
%TO.N,/ESD_D+*%
D50*
X113500000Y-127950000D02*
X163450000Y-127950000D01*
X163500000Y-115748682D02*
X163500000Y-118500000D01*
D49*
X176500000Y-85500000D02*
X155350000Y-85500000D01*
D50*
X163450000Y-127950000D02*
X163500000Y-128000000D01*
X180000000Y-85000000D02*
X180000000Y-99248682D01*
X180000000Y-99248682D02*
X163500000Y-115748682D01*
D49*
X177000000Y-85000000D02*
X176500000Y-85500000D01*
%TO.N,/SWDIO*%
X154504408Y-85000000D02*
X154248000Y-84743592D01*
X158500000Y-61000000D02*
X154880000Y-57380000D01*
X155350000Y-85000000D02*
X154504408Y-85000000D01*
X154248000Y-81894052D02*
X161500000Y-74642052D01*
X154248000Y-84743592D02*
X154248000Y-81894052D01*
X161500000Y-74642052D02*
X161500000Y-61500000D01*
X154880000Y-57380000D02*
X154880000Y-55500000D01*
%TO.N,/ENC_B*%
X148925000Y-81229408D02*
X148925000Y-82075000D01*
X156000000Y-71000000D02*
X156000000Y-74154408D01*
X156000000Y-74154408D02*
X148925000Y-81229408D01*
%TO.N,/ENC_A*%
X153500000Y-73000000D02*
X153500000Y-71000000D01*
X148425000Y-78075000D02*
X153500000Y-73000000D01*
X148425000Y-82075000D02*
X148425000Y-78075000D01*
%TO.N,Net-(U1-BOOT0)*%
X144500000Y-62500000D02*
X144425000Y-62575000D01*
X147925000Y-65925000D02*
X144500000Y-62500000D01*
X147925000Y-82075000D02*
X147925000Y-65925000D01*
%TO.N,Net-(F1-Pad1)*%
X103500000Y-121494999D02*
X100894999Y-124100000D01*
X98814000Y-128106222D02*
X99607778Y-128900000D01*
X100894999Y-124100000D02*
X100245000Y-124100000D01*
X98814000Y-124960408D02*
X98814000Y-128106222D01*
X103500000Y-118500000D02*
X103500000Y-121494999D01*
X99674408Y-124100000D02*
X98814000Y-124960408D01*
X99607778Y-128900000D02*
X100245000Y-128900000D01*
X100245000Y-124100000D02*
X99674408Y-124100000D01*
%TO.N,Net-(J8-CC1)*%
X104000000Y-123500000D02*
X102250000Y-125250000D01*
X102250000Y-125250000D02*
X100245000Y-125250000D01*
%TO.N,Net-(J8-D+-PadA6)*%
X100965592Y-126250000D02*
X101222000Y-126506408D01*
X100245000Y-126250000D02*
X100965592Y-126250000D01*
X100245000Y-127250000D02*
X104800000Y-127250000D01*
X101222000Y-126506408D02*
X101222000Y-126993592D01*
X100965592Y-127250000D02*
X100245000Y-127250000D01*
X104800000Y-127250000D02*
X105000000Y-127450000D01*
X101222000Y-126993592D02*
X100965592Y-127250000D01*
%TO.N,Net-(J8-D--PadA7)*%
X104800000Y-125750000D02*
X105000000Y-125550000D01*
X99524408Y-126750000D02*
X100245000Y-126750000D01*
X99268000Y-126493592D02*
X99524408Y-126750000D01*
X99524408Y-125750000D02*
X99268000Y-126006408D01*
X100245000Y-125750000D02*
X99524408Y-125750000D01*
X100245000Y-125750000D02*
X104800000Y-125750000D01*
X99268000Y-126006408D02*
X99268000Y-126493592D01*
%TO.N,Net-(J8-CC2)*%
X104175000Y-130500000D02*
X101925000Y-128250000D01*
X101925000Y-128250000D02*
X100245000Y-128250000D01*
%TO.N,Net-(D5-A)*%
D50*
X153500000Y-102500000D02*
X153535000Y-102535000D01*
X153500000Y-100035000D02*
X153500000Y-102500000D01*
%TO.N,/MD_AO1*%
D49*
X129900000Y-113075000D02*
X129723000Y-112898000D01*
X123144500Y-112898000D02*
X123100000Y-112942500D01*
X129723000Y-112898000D02*
X123144500Y-112898000D01*
X129900000Y-113075000D02*
X129900000Y-112425000D01*
%TO.N,/MD_AO2*%
X123332500Y-115675000D02*
X123100000Y-115442500D01*
D51*
X129900000Y-115025000D02*
X129900000Y-115675000D01*
D49*
X129900000Y-115675000D02*
X123332500Y-115675000D01*
%TO.N,/MD_BO2*%
X129900000Y-116325000D02*
X127942500Y-116325000D01*
X127942500Y-116325000D02*
X122075000Y-122192500D01*
X129900000Y-116325000D02*
X129900000Y-116975000D01*
%TO.N,/MD_BO1*%
D51*
X129900000Y-118925000D02*
X129900000Y-119575000D01*
D49*
X127192500Y-119575000D02*
X122075000Y-124692500D01*
X129900000Y-119575000D02*
X127192500Y-119575000D01*
%TO.N,Net-(R8-Pad2)*%
D50*
X107275000Y-127450000D02*
X111000000Y-127450000D01*
X111000000Y-127450000D02*
X111500000Y-127950000D01*
%TO.N,Net-(D4-A)*%
X110000000Y-114685000D02*
X110000000Y-112025000D01*
X110000000Y-112025000D02*
X110025000Y-112000000D01*
%TO.N,Net-(R7-Pad2)*%
X107275000Y-125550000D02*
X110950000Y-125550000D01*
X110950000Y-125550000D02*
X111500000Y-125000000D01*
%TD*%
M02*
