%TF.GenerationSoftware,KiCad,Pcbnew,10.0.1*%
%TF.CreationDate,2026-05-05T22:16:42-06:00*%
%TF.ProjectId,Kicad1,4b696361-6431-42e6-9b69-6361645f7063,rev?*%
%TF.SameCoordinates,Original*%
%TF.FileFunction,Soldermask,Bot*%
%TF.FilePolarity,Negative*%
%FSLAX46Y46*%
G04 Gerber Fmt 4.6, Leading zero omitted, Abs format (unit mm)*
G04 Created by KiCad (PCBNEW 10.0.1) date 2026-05-05 22:16:42*
%MOMM*%
%LPD*%
G01*
G04 APERTURE LIST*
G04 Aperture macros list*
%AMRoundRect*
0 Rectangle with rounded corners*
0 $1 Rounding radius*
0 $2 $3 $4 $5 $6 $7 $8 $9 X,Y pos of 4 corners*
0 Add a 4 corners polygon primitive as box body*
4,1,4,$2,$3,$4,$5,$6,$7,$8,$9,$2,$3,0*
0 Add four circle primitives for the rounded corners*
1,1,$1+$1,$2,$3*
1,1,$1+$1,$4,$5*
1,1,$1+$1,$6,$7*
1,1,$1+$1,$8,$9*
0 Add four rect primitives between the rounded corners*
20,1,$1+$1,$2,$3,$4,$5,0*
20,1,$1+$1,$4,$5,$6,$7,0*
20,1,$1+$1,$6,$7,$8,$9,0*
20,1,$1+$1,$8,$9,$2,$3,0*%
G04 Aperture macros list end*
%ADD10RoundRect,0.250000X-0.750000X0.600000X-0.750000X-0.600000X0.750000X-0.600000X0.750000X0.600000X0*%
%ADD11O,2.000000X1.700000*%
%ADD12RoundRect,0.250000X0.750000X-0.600000X0.750000X0.600000X-0.750000X0.600000X-0.750000X-0.600000X0*%
%ADD13C,0.650000*%
%ADD14O,2.100000X1.000000*%
%ADD15O,1.600000X1.000000*%
%ADD16RoundRect,0.250000X-0.600000X-0.725000X0.600000X-0.725000X0.600000X0.725000X-0.600000X0.725000X0*%
%ADD17O,1.700000X1.950000*%
%ADD18R,1.700000X1.700000*%
%ADD19O,1.700000X1.700000*%
%ADD20C,1.700000*%
%ADD21C,0.900000*%
%ADD22RoundRect,0.250000X-0.600000X-0.750000X0.600000X-0.750000X0.600000X0.750000X-0.600000X0.750000X0*%
%ADD23O,1.700000X2.000000*%
G04 APERTURE END LIST*
D10*
%TO.C,J1*%
X128100000Y-112942500D03*
D11*
X128100000Y-115442500D03*
%TD*%
D12*
%TO.C,J2*%
X127075000Y-124692500D03*
D11*
X127075000Y-122192500D03*
%TD*%
D13*
%TO.C,J8*%
X104105000Y-123610000D03*
X104105000Y-129390000D03*
D14*
X104605000Y-122180000D03*
D15*
X100425000Y-122180000D03*
D14*
X104605000Y-130820000D03*
D15*
X100425000Y-130820000D03*
%TD*%
D16*
%TO.C,J9*%
X160000000Y-101500000D03*
D17*
X162500000Y-101500000D03*
X165000000Y-101500000D03*
X167500000Y-101500000D03*
X170000000Y-101500000D03*
%TD*%
D18*
%TO.C,J5*%
X172460000Y-95620000D03*
D19*
X175000000Y-95620000D03*
X172460000Y-93080000D03*
X175000000Y-93080000D03*
X172460000Y-90540000D03*
X175000000Y-90540000D03*
X172460000Y-88000000D03*
X175000000Y-88000000D03*
%TD*%
D18*
%TO.C,J4*%
X112000000Y-70800000D03*
D20*
X112000000Y-73340000D03*
X112000000Y-75880000D03*
X112000000Y-78420000D03*
X112000000Y-80960000D03*
X112000000Y-83500000D03*
X112000000Y-86040000D03*
X112000000Y-88580000D03*
%TD*%
D21*
%TO.C,S1*%
X150000000Y-62000000D03*
X150000000Y-59000000D03*
%TD*%
D18*
%TO.C,J7*%
X154880000Y-55500000D03*
D19*
X157420000Y-55500000D03*
X159960000Y-55500000D03*
X162500000Y-55500000D03*
%TD*%
D21*
%TO.C,S2*%
X182000000Y-62500000D03*
X182000000Y-65500000D03*
%TD*%
D22*
%TO.C,J3*%
X172000000Y-43500000D03*
D23*
X174500000Y-43500000D03*
%TD*%
D16*
%TO.C,J6*%
X151000000Y-71000000D03*
D17*
X153500000Y-71000000D03*
X156000000Y-71000000D03*
X158500000Y-71000000D03*
%TD*%
M02*
