%TF.GenerationSoftware,KiCad,Pcbnew,10.0.1*%
%TF.CreationDate,2026-06-09T10:09:23-06:00*%
%TF.ProjectId,Kicad1,4b696361-6431-42e6-9b69-6361645f7063,rev?*%
%TF.SameCoordinates,Original*%
%TF.FileFunction,Copper,L2,Bot*%
%TF.FilePolarity,Positive*%
%FSLAX46Y46*%
G04 Gerber Fmt 4.6, Leading zero omitted, Abs format (unit mm)*
G04 Created by KiCad (PCBNEW 10.0.1) date 2026-06-09 10:09:23*
%MOMM*%
%LPD*%
G01*
G04 APERTURE LIST*
G04 Aperture macros list*
%AMRoundRect*
0 Rectangle with rounded corners*
0 $1 Rounding radius*
0 $2 $3 $4 $5 $6 $7 $8 $9 X,Y pos of 4 corners*
0 Add a 4 corners polygon primitive as box body*
4,1,4,$2,$3,$4,$5,$6,$7,$8,$9,$2,$3,0*
0 Add four circle primitives for the rounded corners*
1,1,$1+$1,$2,$3*
1,1,$1+$1,$4,$5*
1,1,$1+$1,$6,$7*
1,1,$1+$1,$8,$9*
0 Add four rect primitives between the rounded corners*
20,1,$1+$1,$2,$3,$4,$5,0*
20,1,$1+$1,$4,$5,$6,$7,0*
20,1,$1+$1,$6,$7,$8,$9,0*
20,1,$1+$1,$8,$9,$2,$3,0*%
G04 Aperture macros list end*
%TA.AperFunction,ComponentPad*%
%ADD10RoundRect,0.250000X-0.600000X-0.725000X0.600000X-0.725000X0.600000X0.725000X-0.600000X0.725000X0*%
%TD*%
%TA.AperFunction,ComponentPad*%
%ADD11O,1.700000X1.950000*%
%TD*%
%TA.AperFunction,ComponentPad*%
%ADD12R,1.700000X1.700000*%
%TD*%
%TA.AperFunction,ComponentPad*%
%ADD13O,1.700000X1.700000*%
%TD*%
%TA.AperFunction,ComponentPad*%
%ADD14C,1.700000*%
%TD*%
%TA.AperFunction,ComponentPad*%
%ADD15RoundRect,0.250000X-0.750000X0.600000X-0.750000X-0.600000X0.750000X-0.600000X0.750000X0.600000X0*%
%TD*%
%TA.AperFunction,ComponentPad*%
%ADD16O,2.000000X1.700000*%
%TD*%
%TA.AperFunction,ComponentPad*%
%ADD17O,2.100000X1.000000*%
%TD*%
%TA.AperFunction,ComponentPad*%
%ADD18O,1.600000X1.000000*%
%TD*%
%TA.AperFunction,ComponentPad*%
%ADD19RoundRect,0.250000X0.750000X-0.600000X0.750000X0.600000X-0.750000X0.600000X-0.750000X-0.600000X0*%
%TD*%
%TA.AperFunction,ComponentPad*%
%ADD20RoundRect,0.250000X-0.600000X-0.750000X0.600000X-0.750000X0.600000X0.750000X-0.600000X0.750000X0*%
%TD*%
%TA.AperFunction,ComponentPad*%
%ADD21O,1.700000X2.000000*%
%TD*%
%TA.AperFunction,ViaPad*%
%ADD22C,0.600000*%
%TD*%
G04 APERTURE END LIST*
D10*
%TO.P,J9,1,Pin_1_1*%
%TO.N,+3.3V*%
X160000000Y-101500000D03*
D11*
%TO.P,J9,2,Pin_2_2*%
%TO.N,GND*%
X162500000Y-101500000D03*
%TO.P,J9,3,Pin_3_3*%
%TO.N,/MT_PWM*%
X165000000Y-101500000D03*
%TO.P,J9,4,Pin_4_4*%
%TO.N,/MT_SCL*%
X167500000Y-101500000D03*
%TO.P,J9,5,Pin_5_5*%
%TO.N,/MT_SDA*%
X170000000Y-101500000D03*
%TD*%
D12*
%TO.P,J5,1,Pin_1_1*%
%TO.N,GND*%
X172460000Y-95620000D03*
D13*
%TO.P,J5,2,Pin_2_2*%
%TO.N,unconnected-(J5-Pin_2-Pad2)*%
X175000000Y-95620000D03*
%TO.P,J5,3,Pin_3_3*%
%TO.N,Net-(J5-Pin_3)*%
X172460000Y-93080000D03*
%TO.P,J5,4,Pin_4_4*%
%TO.N,/ESP_RX*%
X175000000Y-93080000D03*
%TO.P,J5,5,Pin_5_5*%
%TO.N,+3.3V*%
X172460000Y-90540000D03*
%TO.P,J5,6,Pin_6_6*%
X175000000Y-90540000D03*
%TO.P,J5,7,Pin_7_7*%
X172460000Y-88000000D03*
%TO.P,J5,8,Pin_8_8*%
%TO.N,/ESP_TX*%
X175000000Y-88000000D03*
%TD*%
D12*
%TO.P,J4,1,Pin_1_1*%
%TO.N,+5V*%
X112000000Y-70800000D03*
D14*
%TO.P,J4,2,Pin_2_2*%
%TO.N,GND*%
X112000000Y-73340000D03*
%TO.P,J4,3,Pin_3_3*%
%TO.N,/IMU_SCL*%
X112000000Y-75880000D03*
%TO.P,J4,4,Pin_4_4*%
%TO.N,/IMU_SDA*%
X112000000Y-78420000D03*
%TO.P,J4,5,Pin_5_5*%
%TO.N,unconnected-(J4-Pin_5-Pad5)*%
X112000000Y-80960000D03*
%TO.P,J4,6,Pin_6_6*%
%TO.N,unconnected-(J4-Pin_6-Pad6)*%
X112000000Y-83500000D03*
%TO.P,J4,7,Pin_7_7*%
%TO.N,unconnected-(J4-Pin_7-Pad7)*%
X112000000Y-86040000D03*
%TO.P,J4,8,Pin_8_8*%
%TO.N,/IMU_INT*%
X112000000Y-88580000D03*
%TD*%
D15*
%TO.P,J1,1,Pin_1_1*%
%TO.N,/MD_AO1*%
X128100000Y-112942500D03*
D16*
%TO.P,J1,2,Pin_2_2*%
%TO.N,/MD_AO2*%
X128100000Y-115442500D03*
%TD*%
D12*
%TO.P,J7,1,Pin_1_1*%
%TO.N,/SWDIO*%
X154880000Y-55500000D03*
D13*
%TO.P,J7,2,Pin_2_2*%
%TO.N,GND*%
X157420000Y-55500000D03*
%TO.P,J7,3,Pin_3_3*%
%TO.N,/SWCLK*%
X159960000Y-55500000D03*
%TO.P,J7,4,Pin_4_4*%
%TO.N,+3.3V*%
X162500000Y-55500000D03*
%TD*%
D17*
%TO.P,J8,SH*%
%TO.N,N/C*%
X104605000Y-122180000D03*
D18*
X100425000Y-122180000D03*
D17*
X104605000Y-130820000D03*
D18*
X100425000Y-130820000D03*
%TD*%
D19*
%TO.P,J2,1,Pin_1_1*%
%TO.N,/MD_BO1*%
X127075000Y-124692500D03*
D16*
%TO.P,J2,2,Pin_2_2*%
%TO.N,/MD_BO2*%
X127075000Y-122192500D03*
%TD*%
D20*
%TO.P,J3,1,Pin_1_1*%
%TO.N,VM*%
X172000000Y-43500000D03*
D21*
%TO.P,J3,2,Pin_2_2*%
%TO.N,GND*%
X174500000Y-43500000D03*
%TD*%
D10*
%TO.P,J6,1,Pin_1_1*%
%TO.N,+3.3V*%
X151000000Y-71000000D03*
D11*
%TO.P,J6,2,Pin_2_2*%
%TO.N,/ENC_A*%
X153500000Y-71000000D03*
%TO.P,J6,3,Pin_3_3*%
%TO.N,/ENC_B*%
X156000000Y-71000000D03*
%TO.P,J6,4,Pin_4_4*%
%TO.N,GND*%
X158500000Y-71000000D03*
%TD*%
D22*
%TO.N,GND*%
X155722500Y-96965000D03*
X174500000Y-45500000D03*
X107000000Y-121500000D03*
X138937500Y-91800000D03*
X112500000Y-130500000D03*
X134380000Y-84370000D03*
X147925000Y-61250000D03*
X123612500Y-101215000D03*
X162500000Y-103500000D03*
X158500000Y-73000000D03*
X174000000Y-74000000D03*
X182500000Y-46000000D03*
X166000000Y-81500000D03*
X133100000Y-117525000D03*
X190500000Y-73500000D03*
X166000000Y-78500000D03*
X124625000Y-97355000D03*
X157500000Y-84500000D03*
X107000000Y-130000000D03*
X151500000Y-95000000D03*
X167500000Y-56500000D03*
X133640000Y-87335000D03*
X139500000Y-48950000D03*
X169960000Y-95500000D03*
X133100000Y-114525000D03*
X133100000Y-113525000D03*
X153500000Y-95000000D03*
X133100000Y-118525000D03*
X108500000Y-126500000D03*
X157000000Y-81000000D03*
X147000000Y-83500000D03*
X111500000Y-112000000D03*
X183500000Y-82500000D03*
X167500000Y-62000000D03*
X142500000Y-46500000D03*
X190000000Y-53000000D03*
X142500000Y-48950000D03*
X139500000Y-46500000D03*
X145500000Y-46500000D03*
X184250000Y-102565000D03*
X114150000Y-106000000D03*
X145500000Y-89000000D03*
X180250000Y-100065000D03*
X139140000Y-89335000D03*
X111015000Y-98315000D03*
X144100000Y-116525000D03*
X190500000Y-76500000D03*
X148500000Y-46500000D03*
X190000000Y-55500000D03*
X114500000Y-72800000D03*
X145500000Y-92000000D03*
X151500000Y-46500000D03*
X174000000Y-53000000D03*
X157420000Y-53000000D03*
X151500000Y-104035000D03*
X112000000Y-123500000D03*
X146000000Y-116500000D03*
%TO.N,/SWDIO*%
X158500000Y-61000000D03*
X161500000Y-61500000D03*
%TO.N,Vusb*%
X187500000Y-64500000D03*
X187500000Y-62000000D03*
%TO.N,/ESD_D-*%
X123000000Y-84500000D03*
X117000000Y-117500000D03*
X123500000Y-81500000D03*
X117000000Y-120000000D03*
%TO.N,/ESD_D+*%
X180000000Y-85000000D03*
X163500000Y-128000000D03*
X177000000Y-85000000D03*
X163500000Y-118500000D03*
%TD*%
%TA.AperFunction,Conductor*%
%TO.N,/ESD_D+*%
G36*
X180443039Y-84019685D02*
G01*
X180488794Y-84072489D01*
X180500000Y-84124000D01*
X180500000Y-85876000D01*
X180480315Y-85943039D01*
X180427511Y-85988794D01*
X180376000Y-86000000D01*
X176624000Y-86000000D01*
X176556961Y-85980315D01*
X176511206Y-85927511D01*
X176500000Y-85876000D01*
X176500000Y-84124000D01*
X176519685Y-84056961D01*
X176572489Y-84011206D01*
X176624000Y-84000000D01*
X180376000Y-84000000D01*
X180443039Y-84019685D01*
G37*
%TD.AperFunction*%
%TD*%
%TA.AperFunction,Conductor*%
%TO.N,/ESD_D-*%
G36*
X117943039Y-116519685D02*
G01*
X117988794Y-116572489D01*
X118000000Y-116624000D01*
X118000000Y-120876000D01*
X117980315Y-120943039D01*
X117927511Y-120988794D01*
X117876000Y-121000000D01*
X116124000Y-121000000D01*
X116056961Y-120980315D01*
X116011206Y-120927511D01*
X116000000Y-120876000D01*
X116000000Y-116624000D01*
X116019685Y-116556961D01*
X116072489Y-116511206D01*
X116124000Y-116500000D01*
X117876000Y-116500000D01*
X117943039Y-116519685D01*
G37*
%TD.AperFunction*%
%TD*%
%TA.AperFunction,Conductor*%
%TO.N,/ESD_D+*%
G36*
X164943039Y-117519685D02*
G01*
X164988794Y-117572489D01*
X165000000Y-117624000D01*
X165000000Y-128876000D01*
X164980315Y-128943039D01*
X164927511Y-128988794D01*
X164876000Y-129000000D01*
X162124000Y-129000000D01*
X162056961Y-128980315D01*
X162011206Y-128927511D01*
X162000000Y-128876000D01*
X162000000Y-117624000D01*
X162019685Y-117556961D01*
X162072489Y-117511206D01*
X162124000Y-117500000D01*
X164876000Y-117500000D01*
X164943039Y-117519685D01*
G37*
%TD.AperFunction*%
%TD*%
%TA.AperFunction,Conductor*%
%TO.N,/ESD_D-*%
G36*
X124443039Y-80519685D02*
G01*
X124488794Y-80572489D01*
X124500000Y-80624000D01*
X124500000Y-84876000D01*
X124480315Y-84943039D01*
X124427511Y-84988794D01*
X124376000Y-85000000D01*
X122124000Y-85000000D01*
X122056961Y-84980315D01*
X122011206Y-84927511D01*
X122000000Y-84876000D01*
X122000000Y-80624000D01*
X122019685Y-80556961D01*
X122072489Y-80511206D01*
X122124000Y-80500000D01*
X124376000Y-80500000D01*
X124443039Y-80519685D01*
G37*
%TD.AperFunction*%
%TD*%
%TA.AperFunction,Conductor*%
%TO.N,Vusb*%
G36*
X188443039Y-61519685D02*
G01*
X188488794Y-61572489D01*
X188500000Y-61624000D01*
X188500000Y-65376000D01*
X188480315Y-65443039D01*
X188427511Y-65488794D01*
X188376000Y-65500000D01*
X186624000Y-65500000D01*
X186556961Y-65480315D01*
X186511206Y-65427511D01*
X186500000Y-65376000D01*
X186500000Y-61624000D01*
X186519685Y-61556961D01*
X186572489Y-61511206D01*
X186624000Y-61500000D01*
X188376000Y-61500000D01*
X188443039Y-61519685D01*
G37*
%TD.AperFunction*%
%TD*%
%TA.AperFunction,Conductor*%
%TO.N,GND*%
G36*
X192392606Y-39505523D02*
G01*
X192407604Y-39509927D01*
X192466355Y-39547672D01*
X192467542Y-39549041D01*
X192495018Y-39603902D01*
X192496663Y-39611460D01*
X192499500Y-39637831D01*
X192499500Y-132357670D01*
X192499499Y-132357676D01*
X192499500Y-132357679D01*
X192494475Y-132392614D01*
X192490070Y-132407612D01*
X192452327Y-132466355D01*
X192452292Y-132466385D01*
X192452291Y-132466387D01*
X192452289Y-132466387D01*
X192450958Y-132467542D01*
X192396097Y-132495018D01*
X192388539Y-132496663D01*
X192362168Y-132499500D01*
X99642330Y-132499500D01*
X99642325Y-132499499D01*
X99642323Y-132499500D01*
X99607389Y-132494475D01*
X99592390Y-132490070D01*
X99533644Y-132452327D01*
X99533615Y-132452293D01*
X99533614Y-132452293D01*
X99533613Y-132452291D01*
X99532457Y-132450958D01*
X99504977Y-132396083D01*
X99503332Y-132388521D01*
X99500500Y-132362168D01*
X99500500Y-131847665D01*
X99505522Y-131812732D01*
X99509433Y-131799413D01*
X99547206Y-131740636D01*
X99610758Y-131711611D01*
X99610966Y-131711581D01*
X99615959Y-131710864D01*
X99681046Y-131719041D01*
X99786681Y-131762797D01*
X99827550Y-131779725D01*
X99831962Y-131781812D01*
X100026453Y-131820500D01*
X100823543Y-131820500D01*
X100823544Y-131820500D01*
X100845216Y-131816188D01*
X100953582Y-131794632D01*
X100953583Y-131794632D01*
X100966301Y-131792102D01*
X101016835Y-131782051D01*
X101198914Y-131706632D01*
X101362782Y-131597139D01*
X101502139Y-131457782D01*
X101611632Y-131293914D01*
X101687051Y-131111835D01*
X101725500Y-130918541D01*
X101725500Y-130892094D01*
X103049237Y-130892094D01*
X103092945Y-131111822D01*
X103092946Y-131111826D01*
X103092947Y-131111829D01*
X103092950Y-131111839D01*
X103092953Y-131111847D01*
X103092958Y-131111861D01*
X103168360Y-131293900D01*
X103168365Y-131293909D01*
X103168375Y-131293926D01*
X103277861Y-131457783D01*
X103277862Y-131457784D01*
X103277867Y-131457790D01*
X103417208Y-131597131D01*
X103417214Y-131597136D01*
X103417218Y-131597139D01*
X103581079Y-131706628D01*
X103581092Y-131706635D01*
X103581094Y-131706635D01*
X103581098Y-131706638D01*
X103663179Y-131740636D01*
X103716681Y-131762797D01*
X103757553Y-131779726D01*
X103761963Y-131781812D01*
X103956453Y-131820500D01*
X105253543Y-131820500D01*
X105253544Y-131820500D01*
X105275216Y-131816188D01*
X105383582Y-131794632D01*
X105383583Y-131794632D01*
X105396301Y-131792102D01*
X105446835Y-131782051D01*
X105628914Y-131706632D01*
X105792782Y-131597139D01*
X105932139Y-131457782D01*
X106041632Y-131293914D01*
X106117051Y-131111835D01*
X106155500Y-130918541D01*
X106155500Y-130721459D01*
X106155500Y-130721456D01*
X106155500Y-130721453D01*
X106117112Y-130528471D01*
X106117112Y-130528472D01*
X106117052Y-130528170D01*
X106117051Y-130528169D01*
X106116811Y-130526964D01*
X106114735Y-130522573D01*
X106041635Y-130346092D01*
X106041628Y-130346079D01*
X105932139Y-130182218D01*
X105932136Y-130182214D01*
X105932131Y-130182208D01*
X105792790Y-130042867D01*
X105792784Y-130042862D01*
X105792783Y-130042861D01*
X105628926Y-129933375D01*
X105628925Y-129933374D01*
X105628920Y-129933371D01*
X105628907Y-129933364D01*
X105628905Y-129933363D01*
X105628900Y-129933360D01*
X105446861Y-129857958D01*
X105446847Y-129857953D01*
X105446839Y-129857950D01*
X105446829Y-129857947D01*
X105446826Y-129857946D01*
X105446822Y-129857945D01*
X105253546Y-129819500D01*
X105253543Y-129819500D01*
X105253541Y-129819500D01*
X104754163Y-129819500D01*
X104754160Y-129819499D01*
X104754159Y-129819500D01*
X104719224Y-129814476D01*
X104705906Y-129810565D01*
X104647129Y-129772789D01*
X104618107Y-129709232D01*
X104618105Y-129709221D01*
X104617874Y-129707613D01*
X104623429Y-129649439D01*
X104625075Y-129644685D01*
X104634877Y-129623226D01*
X104636606Y-129620233D01*
X104638835Y-129616968D01*
X104639728Y-129615205D01*
X104642991Y-129609173D01*
X104651762Y-129593979D01*
X104650487Y-129588723D01*
X104654570Y-129562536D01*
X104680500Y-129465766D01*
X104680500Y-129314234D01*
X104641281Y-129167865D01*
X104641276Y-129167857D01*
X104593707Y-129085465D01*
X104565515Y-129036635D01*
X104458365Y-128929485D01*
X104392750Y-128891602D01*
X104327136Y-128853719D01*
X104253950Y-128834109D01*
X104253949Y-128834108D01*
X104180767Y-128814500D01*
X104180766Y-128814500D01*
X104029234Y-128814500D01*
X103882859Y-128853720D01*
X103882857Y-128853721D01*
X103751645Y-128929478D01*
X103751631Y-128929487D01*
X103751626Y-128929491D01*
X103644491Y-129036626D01*
X103644487Y-129036631D01*
X103644478Y-129036645D01*
X103568721Y-129167857D01*
X103568720Y-129167859D01*
X103568719Y-129167863D01*
X103529500Y-129314234D01*
X103529500Y-129465765D01*
X103567925Y-129609173D01*
X103568720Y-129612138D01*
X103606660Y-129677852D01*
X103635123Y-129727149D01*
X103643397Y-129744442D01*
X103646220Y-129751746D01*
X103646220Y-129751747D01*
X103652885Y-129768988D01*
X103658695Y-129838615D01*
X103625940Y-129900331D01*
X103625936Y-129900335D01*
X103619997Y-129906416D01*
X103583409Y-129931229D01*
X103583500Y-129931422D01*
X103583720Y-129931789D01*
X103583683Y-129931810D01*
X103583755Y-129931944D01*
X103583748Y-129931947D01*
X103583811Y-129932080D01*
X103581095Y-129933362D01*
X103581079Y-129933370D01*
X103417215Y-130042861D01*
X103417214Y-130042862D01*
X103417208Y-130042867D01*
X103277867Y-130182208D01*
X103277862Y-130182214D01*
X103277861Y-130182215D01*
X103168375Y-130346072D01*
X103168365Y-130346089D01*
X103168360Y-130346098D01*
X103092958Y-130528137D01*
X103092945Y-130528176D01*
X103054500Y-130721451D01*
X103054500Y-130874174D01*
X103049237Y-130892094D01*
X101725500Y-130892094D01*
X101725500Y-130721459D01*
X101725500Y-130721456D01*
X101725500Y-130721453D01*
X101687112Y-130528471D01*
X101687112Y-130528472D01*
X101687052Y-130528170D01*
X101687051Y-130528169D01*
X101686811Y-130526964D01*
X101684735Y-130522573D01*
X101611635Y-130346092D01*
X101611628Y-130346079D01*
X101502139Y-130182218D01*
X101502136Y-130182214D01*
X101502131Y-130182208D01*
X101362790Y-130042867D01*
X101362784Y-130042862D01*
X101362783Y-130042861D01*
X101198926Y-129933375D01*
X101198925Y-129933374D01*
X101198920Y-129933371D01*
X101198907Y-129933364D01*
X101198905Y-129933363D01*
X101198900Y-129933360D01*
X101016861Y-129857958D01*
X101016847Y-129857953D01*
X101016839Y-129857950D01*
X101016829Y-129857947D01*
X101016826Y-129857946D01*
X101016822Y-129857945D01*
X100823546Y-129819500D01*
X100823543Y-129819500D01*
X100823541Y-129819500D01*
X100026459Y-129819500D01*
X100026457Y-129819500D01*
X100026453Y-129819500D01*
X99833176Y-129857945D01*
X99833166Y-129857948D01*
X99833164Y-129857948D01*
X99833160Y-129857950D01*
X99688422Y-129917902D01*
X99654231Y-129926629D01*
X99647789Y-129927321D01*
X99640432Y-129928112D01*
X99571674Y-129915711D01*
X99520535Y-129868104D01*
X99520526Y-129868088D01*
X99517853Y-129863582D01*
X99500500Y-129800318D01*
X99500500Y-123207665D01*
X99505522Y-123172732D01*
X99507605Y-123165638D01*
X99509433Y-123159413D01*
X99519075Y-123144409D01*
X99524101Y-123127299D01*
X99537570Y-123115630D01*
X99547206Y-123100636D01*
X99563430Y-123093226D01*
X99576909Y-123081549D01*
X99610743Y-123071617D01*
X99610757Y-123071611D01*
X99610966Y-123071581D01*
X99615959Y-123070864D01*
X99681046Y-123079041D01*
X99797550Y-123127299D01*
X99827550Y-123139725D01*
X99831962Y-123141812D01*
X100026453Y-123180500D01*
X100823543Y-123180500D01*
X100823545Y-123180500D01*
X100979462Y-123149485D01*
X101016835Y-123142051D01*
X101178048Y-123075275D01*
X101198907Y-123066635D01*
X101198907Y-123066634D01*
X101198914Y-123066632D01*
X101198918Y-123066629D01*
X101201243Y-123065666D01*
X101201265Y-123065657D01*
X101210526Y-123061821D01*
X101219409Y-123052937D01*
X101362782Y-122957139D01*
X101502139Y-122817782D01*
X101611632Y-122653914D01*
X101687051Y-122471835D01*
X101725500Y-122278541D01*
X101725500Y-122252094D01*
X103049237Y-122252094D01*
X103092945Y-122471822D01*
X103092946Y-122471826D01*
X103092947Y-122471829D01*
X103092950Y-122471839D01*
X103092953Y-122471847D01*
X103092958Y-122471861D01*
X103168360Y-122653900D01*
X103168365Y-122653909D01*
X103168375Y-122653926D01*
X103277861Y-122817783D01*
X103277862Y-122817784D01*
X103277867Y-122817790D01*
X103417208Y-122957131D01*
X103417214Y-122957136D01*
X103417215Y-122957137D01*
X103581071Y-123066623D01*
X103581074Y-123066625D01*
X103581079Y-123066628D01*
X103581083Y-123066630D01*
X103581086Y-123066632D01*
X103581087Y-123066632D01*
X103581469Y-123066854D01*
X103582567Y-123067422D01*
X103584396Y-123068399D01*
X103603769Y-123081214D01*
X103615207Y-123090431D01*
X103625377Y-123105076D01*
X103639263Y-123116265D01*
X103644892Y-123133178D01*
X103655060Y-123147819D01*
X103655698Y-123165638D01*
X103661330Y-123182558D01*
X103657559Y-123217634D01*
X103657560Y-123217644D01*
X103657558Y-123217650D01*
X103654308Y-123230385D01*
X103641546Y-123261723D01*
X103568720Y-123387859D01*
X103538730Y-123499786D01*
X103529500Y-123534234D01*
X103529500Y-123685765D01*
X103568719Y-123832136D01*
X103606602Y-123897750D01*
X103644485Y-123963365D01*
X103751635Y-124070515D01*
X103882865Y-124146281D01*
X104029234Y-124185500D01*
X104029236Y-124185500D01*
X104180764Y-124185500D01*
X104180766Y-124185500D01*
X104327135Y-124146281D01*
X104458365Y-124070515D01*
X104565515Y-123963365D01*
X104641281Y-123832135D01*
X104680500Y-123685766D01*
X104680500Y-123534234D01*
X104641281Y-123387865D01*
X104641278Y-123387859D01*
X104637858Y-123381936D01*
X104624743Y-123349174D01*
X104621471Y-123335687D01*
X104624795Y-123265896D01*
X104665261Y-123209031D01*
X104666540Y-123208024D01*
X104719802Y-123183686D01*
X104724732Y-123182735D01*
X104748174Y-123180500D01*
X105253545Y-123180500D01*
X105409462Y-123149485D01*
X105446835Y-123142051D01*
X105608048Y-123075275D01*
X105628907Y-123066635D01*
X105628907Y-123066634D01*
X105628914Y-123066632D01*
X105628918Y-123066629D01*
X105631243Y-123065666D01*
X105631265Y-123065657D01*
X105640526Y-123061821D01*
X105649409Y-123052937D01*
X105792782Y-122957139D01*
X105932139Y-122817782D01*
X106041632Y-122653914D01*
X106117051Y-122471835D01*
X106155500Y-122278541D01*
X106155500Y-122086207D01*
X125574500Y-122086207D01*
X125574500Y-122298791D01*
X125607752Y-122508739D01*
X125673445Y-122710918D01*
X125727897Y-122817785D01*
X125769951Y-122900320D01*
X125894890Y-123072286D01*
X126021099Y-123198495D01*
X126042248Y-123226746D01*
X126048900Y-123238928D01*
X126063752Y-123307201D01*
X126039336Y-123372666D01*
X126039331Y-123372673D01*
X126033629Y-123380289D01*
X125999463Y-123411510D01*
X125856345Y-123499786D01*
X125856341Y-123499789D01*
X125732290Y-123623840D01*
X125640185Y-123773167D01*
X125640182Y-123773175D01*
X125620645Y-123832136D01*
X125620644Y-123832137D01*
X125595298Y-123908623D01*
X125586852Y-123921566D01*
X125585365Y-123936130D01*
X125584542Y-123942381D01*
X125584359Y-123945976D01*
X125574500Y-124042473D01*
X125574500Y-124042481D01*
X125574500Y-124042483D01*
X125574500Y-125342501D01*
X125574501Y-125342518D01*
X125585000Y-125445296D01*
X125585001Y-125445299D01*
X125640185Y-125611831D01*
X125640186Y-125611834D01*
X125732288Y-125761156D01*
X125856344Y-125885212D01*
X126005666Y-125977314D01*
X126172203Y-126032499D01*
X126274991Y-126043000D01*
X127875008Y-126042999D01*
X127977797Y-126032499D01*
X128144334Y-125977314D01*
X128293656Y-125885212D01*
X128417712Y-125761156D01*
X128509814Y-125611834D01*
X128564999Y-125445297D01*
X128575500Y-125342509D01*
X128575499Y-124042492D01*
X128564999Y-123939703D01*
X128509814Y-123773166D01*
X128417712Y-123623844D01*
X128293656Y-123499788D01*
X128154052Y-123413680D01*
X128126959Y-123391069D01*
X128117673Y-123380745D01*
X128087477Y-123317742D01*
X128096136Y-123248415D01*
X128099933Y-123239677D01*
X128125974Y-123201420D01*
X128255104Y-123072292D01*
X128255595Y-123071617D01*
X128380048Y-122900320D01*
X128380047Y-122900320D01*
X128380051Y-122900316D01*
X128476557Y-122710912D01*
X128542246Y-122508743D01*
X128575500Y-122298787D01*
X128575500Y-122086213D01*
X128542246Y-121876257D01*
X128476557Y-121674088D01*
X128380051Y-121484684D01*
X128380049Y-121484681D01*
X128380048Y-121484679D01*
X128379702Y-121484203D01*
X128379700Y-121484199D01*
X128255112Y-121312716D01*
X128104788Y-121162392D01*
X128104786Y-121162390D01*
X127932820Y-121037451D01*
X127919167Y-121030494D01*
X127765245Y-120952067D01*
X127765240Y-120952065D01*
X127743414Y-120940944D01*
X127743413Y-120940943D01*
X127743412Y-120940943D01*
X127646550Y-120909470D01*
X127550074Y-120878123D01*
X127545552Y-120876270D01*
X127536362Y-120874100D01*
X127531599Y-120873726D01*
X127379957Y-120849708D01*
X127360489Y-120846624D01*
X127331290Y-120842000D01*
X127331287Y-120842000D01*
X126818713Y-120842000D01*
X126818709Y-120842000D01*
X126779776Y-120848166D01*
X126770042Y-120849708D01*
X126732654Y-120855629D01*
X126608763Y-120875252D01*
X126406582Y-120940945D01*
X126217182Y-121037449D01*
X126045210Y-121162392D01*
X125894892Y-121312710D01*
X125832420Y-121398696D01*
X125771361Y-121482739D01*
X125769949Y-121484682D01*
X125673445Y-121674080D01*
X125607753Y-121876258D01*
X125574500Y-122086207D01*
X106155500Y-122086207D01*
X106155500Y-122081459D01*
X106155500Y-122081456D01*
X106117052Y-121888170D01*
X106117051Y-121888169D01*
X106117051Y-121888165D01*
X106117048Y-121888158D01*
X106117034Y-121888082D01*
X106116811Y-121886960D01*
X106114726Y-121882552D01*
X106112119Y-121876257D01*
X106112114Y-121876244D01*
X106041638Y-121706098D01*
X106041633Y-121706089D01*
X106041628Y-121706079D01*
X105932139Y-121542218D01*
X105932136Y-121542214D01*
X105932131Y-121542208D01*
X105792790Y-121402867D01*
X105792784Y-121402862D01*
X105792783Y-121402861D01*
X105628926Y-121293375D01*
X105628925Y-121293374D01*
X105628920Y-121293371D01*
X105628907Y-121293364D01*
X105628900Y-121293360D01*
X105446861Y-121217958D01*
X105446847Y-121217953D01*
X105446839Y-121217950D01*
X105446829Y-121217947D01*
X105446826Y-121217946D01*
X105446822Y-121217945D01*
X105253546Y-121179500D01*
X105253543Y-121179500D01*
X105253541Y-121179500D01*
X103956459Y-121179500D01*
X103956457Y-121179500D01*
X103956453Y-121179500D01*
X103763176Y-121217945D01*
X103763170Y-121217947D01*
X103763160Y-121217950D01*
X103763155Y-121217951D01*
X103763137Y-121217958D01*
X103581098Y-121293360D01*
X103581089Y-121293365D01*
X103581072Y-121293375D01*
X103417215Y-121402861D01*
X103417214Y-121402862D01*
X103417208Y-121402867D01*
X103277867Y-121542208D01*
X103277862Y-121542214D01*
X103277861Y-121542215D01*
X103168375Y-121706072D01*
X103168365Y-121706089D01*
X103168360Y-121706098D01*
X103092958Y-121888137D01*
X103092945Y-121888176D01*
X103054500Y-122081451D01*
X103054500Y-122234174D01*
X103049237Y-122252094D01*
X101725500Y-122252094D01*
X101725500Y-122081459D01*
X101725500Y-122081456D01*
X101725500Y-122081453D01*
X101687156Y-121888693D01*
X101686811Y-121886960D01*
X101684726Y-121882552D01*
X101682119Y-121876257D01*
X101682114Y-121876244D01*
X101611638Y-121706098D01*
X101611633Y-121706089D01*
X101611628Y-121706079D01*
X101502139Y-121542218D01*
X101502136Y-121542214D01*
X101502131Y-121542208D01*
X101362790Y-121402867D01*
X101362784Y-121402862D01*
X101362783Y-121402861D01*
X101198926Y-121293375D01*
X101198925Y-121293374D01*
X101198920Y-121293371D01*
X101198907Y-121293364D01*
X101198900Y-121293360D01*
X101016861Y-121217958D01*
X101016847Y-121217953D01*
X101016839Y-121217950D01*
X101016829Y-121217947D01*
X101016826Y-121217946D01*
X101016822Y-121217945D01*
X100823546Y-121179500D01*
X100823543Y-121179500D01*
X100823541Y-121179500D01*
X100026459Y-121179500D01*
X100026457Y-121179500D01*
X100026453Y-121179500D01*
X99833176Y-121217945D01*
X99833166Y-121217948D01*
X99833164Y-121217948D01*
X99833160Y-121217950D01*
X99688422Y-121277902D01*
X99654231Y-121286629D01*
X99647789Y-121287321D01*
X99640432Y-121288112D01*
X99571674Y-121275711D01*
X99520535Y-121228104D01*
X99520526Y-121228088D01*
X99517853Y-121223582D01*
X99500500Y-121160318D01*
X99500500Y-116624000D01*
X115494500Y-116624000D01*
X115494500Y-120876000D01*
X115494501Y-120876009D01*
X115506052Y-120983450D01*
X115506054Y-120983462D01*
X115517260Y-121034972D01*
X115551383Y-121137497D01*
X115551386Y-121137503D01*
X115629171Y-121258537D01*
X115629179Y-121258548D01*
X115674923Y-121311340D01*
X115674926Y-121311343D01*
X115674930Y-121311347D01*
X115783664Y-121405567D01*
X115783667Y-121405568D01*
X115783668Y-121405569D01*
X115877925Y-121448616D01*
X115914541Y-121465338D01*
X115981580Y-121485023D01*
X115981584Y-121485024D01*
X116124000Y-121505500D01*
X117875990Y-121505500D01*
X117876000Y-121505500D01*
X117983456Y-121493947D01*
X118034967Y-121482741D01*
X118069197Y-121471347D01*
X118137497Y-121448616D01*
X118137501Y-121448613D01*
X118137504Y-121448613D01*
X118258543Y-121370825D01*
X118311347Y-121325070D01*
X118405567Y-121216336D01*
X118465338Y-121085459D01*
X118485023Y-121018420D01*
X118485024Y-121018416D01*
X118505500Y-120876000D01*
X118505500Y-117624000D01*
X161494500Y-117624000D01*
X161494500Y-128876000D01*
X161494501Y-128876009D01*
X161506052Y-128983450D01*
X161506054Y-128983462D01*
X161517260Y-129034972D01*
X161551383Y-129137497D01*
X161551386Y-129137503D01*
X161629171Y-129258537D01*
X161629179Y-129258548D01*
X161674923Y-129311340D01*
X161674926Y-129311343D01*
X161674930Y-129311347D01*
X161783664Y-129405567D01*
X161783667Y-129405568D01*
X161783668Y-129405569D01*
X161877925Y-129448616D01*
X161914541Y-129465338D01*
X161981580Y-129485023D01*
X161981584Y-129485024D01*
X162124000Y-129505500D01*
X164875990Y-129505500D01*
X164876000Y-129505500D01*
X164983456Y-129493947D01*
X165034967Y-129482741D01*
X165069197Y-129471347D01*
X165137497Y-129448616D01*
X165137501Y-129448613D01*
X165137504Y-129448613D01*
X165258543Y-129370825D01*
X165311347Y-129325070D01*
X165405567Y-129216336D01*
X165465338Y-129085459D01*
X165485023Y-129018420D01*
X165485024Y-129018416D01*
X165505500Y-128876000D01*
X165505500Y-117624000D01*
X165493947Y-117516544D01*
X165482741Y-117465033D01*
X165482637Y-117464722D01*
X165448616Y-117362502D01*
X165448613Y-117362496D01*
X165370828Y-117241462D01*
X165370825Y-117241457D01*
X165370820Y-117241451D01*
X165325076Y-117188659D01*
X165325072Y-117188656D01*
X165325070Y-117188653D01*
X165216336Y-117094433D01*
X165216333Y-117094431D01*
X165216331Y-117094430D01*
X165085465Y-117034664D01*
X165085460Y-117034662D01*
X165085459Y-117034662D01*
X165018420Y-117014977D01*
X165018422Y-117014977D01*
X165018417Y-117014976D01*
X164956347Y-117006052D01*
X164876000Y-116994500D01*
X164875998Y-116994500D01*
X162124010Y-116994500D01*
X162124000Y-116994500D01*
X162123991Y-116994500D01*
X162123990Y-116994501D01*
X162016549Y-117006052D01*
X162016537Y-117006054D01*
X161965027Y-117017260D01*
X161862502Y-117051383D01*
X161862496Y-117051386D01*
X161741462Y-117129171D01*
X161741451Y-117129179D01*
X161688659Y-117174923D01*
X161594433Y-117283664D01*
X161594430Y-117283668D01*
X161534664Y-117414534D01*
X161514976Y-117481582D01*
X161509949Y-117516549D01*
X161494500Y-117624000D01*
X118505500Y-117624000D01*
X118505500Y-116624000D01*
X118493947Y-116516544D01*
X118482741Y-116465033D01*
X118482637Y-116464722D01*
X118448616Y-116362502D01*
X118448613Y-116362496D01*
X118422775Y-116322292D01*
X118370825Y-116241457D01*
X118370820Y-116241451D01*
X118325076Y-116188659D01*
X118325072Y-116188656D01*
X118325070Y-116188653D01*
X118216336Y-116094433D01*
X118216333Y-116094431D01*
X118216331Y-116094430D01*
X118085465Y-116034664D01*
X118085460Y-116034662D01*
X118085459Y-116034662D01*
X118018420Y-116014977D01*
X118018422Y-116014977D01*
X118018417Y-116014976D01*
X117956347Y-116006052D01*
X117876000Y-115994500D01*
X117875998Y-115994500D01*
X116124010Y-115994500D01*
X116124000Y-115994500D01*
X116123991Y-115994500D01*
X116123990Y-115994501D01*
X116016549Y-116006052D01*
X116016537Y-116006054D01*
X115965027Y-116017260D01*
X115862502Y-116051383D01*
X115862496Y-116051386D01*
X115741462Y-116129171D01*
X115741451Y-116129179D01*
X115688659Y-116174923D01*
X115594433Y-116283664D01*
X115594430Y-116283668D01*
X115534664Y-116414534D01*
X115514976Y-116481582D01*
X115509949Y-116516549D01*
X115494500Y-116624000D01*
X99500500Y-116624000D01*
X99500500Y-112292483D01*
X126599500Y-112292483D01*
X126599500Y-113592501D01*
X126599501Y-113592518D01*
X126610000Y-113695296D01*
X126610001Y-113695299D01*
X126665185Y-113861831D01*
X126665187Y-113861836D01*
X126757289Y-114011157D01*
X126881344Y-114135212D01*
X127020946Y-114221319D01*
X127048040Y-114243931D01*
X127057322Y-114254250D01*
X127087521Y-114317256D01*
X127078861Y-114386587D01*
X127078857Y-114386597D01*
X127075065Y-114395323D01*
X127049021Y-114433583D01*
X126919886Y-114562718D01*
X126794949Y-114734682D01*
X126698445Y-114924080D01*
X126632752Y-115126259D01*
X126599500Y-115336207D01*
X126599500Y-115548791D01*
X126632752Y-115758739D01*
X126698445Y-115960918D01*
X126784175Y-116129171D01*
X126794951Y-116150320D01*
X126919890Y-116322286D01*
X126919892Y-116322288D01*
X127070216Y-116472612D01*
X127242169Y-116597542D01*
X127242177Y-116597547D01*
X127242179Y-116597548D01*
X127242181Y-116597549D01*
X127242182Y-116597550D01*
X127242200Y-116597560D01*
X127242442Y-116597682D01*
X127431588Y-116694057D01*
X127633757Y-116759746D01*
X127843713Y-116793000D01*
X127843714Y-116793000D01*
X128356286Y-116793000D01*
X128356287Y-116793000D01*
X128566243Y-116759746D01*
X128768412Y-116694057D01*
X128957816Y-116597551D01*
X128979789Y-116581586D01*
X129129786Y-116472609D01*
X129129786Y-116472608D01*
X129129844Y-116472566D01*
X129130605Y-116471790D01*
X129280104Y-116322292D01*
X129280106Y-116322288D01*
X129280109Y-116322286D01*
X129405048Y-116150320D01*
X129405047Y-116150320D01*
X129405051Y-116150316D01*
X129405053Y-116150310D01*
X129425445Y-116122244D01*
X129433730Y-116094029D01*
X129501557Y-115960912D01*
X129567246Y-115758743D01*
X129600500Y-115548787D01*
X129600500Y-115336213D01*
X129567246Y-115126257D01*
X129501557Y-114924088D01*
X129405051Y-114734684D01*
X129405049Y-114734681D01*
X129405048Y-114734679D01*
X129404702Y-114734203D01*
X129404700Y-114734199D01*
X129280112Y-114562716D01*
X129153903Y-114436507D01*
X129153898Y-114436502D01*
X129132752Y-114408255D01*
X129126097Y-114396067D01*
X129111246Y-114327797D01*
X129135660Y-114262336D01*
X129141367Y-114254712D01*
X129175531Y-114223491D01*
X129318656Y-114135212D01*
X129442712Y-114011156D01*
X129534814Y-113861834D01*
X129589999Y-113695297D01*
X129600500Y-113592509D01*
X129600499Y-112292492D01*
X129589999Y-112189703D01*
X129534814Y-112023166D01*
X129442712Y-111873844D01*
X129318656Y-111749788D01*
X129169334Y-111657686D01*
X129011265Y-111605307D01*
X129008445Y-111604141D01*
X129002792Y-111602499D01*
X128900019Y-111592000D01*
X128900010Y-111592000D01*
X127299998Y-111592000D01*
X127299981Y-111592001D01*
X127285959Y-111593433D01*
X127197198Y-111602500D01*
X127197193Y-111602501D01*
X127197032Y-111602556D01*
X127030667Y-111657685D01*
X127030665Y-111657686D01*
X127030663Y-111657687D01*
X126931115Y-111719088D01*
X126881340Y-111749790D01*
X126757290Y-111873840D01*
X126665187Y-112023162D01*
X126665152Y-112023270D01*
X126620300Y-112158623D01*
X126611852Y-112171569D01*
X126610365Y-112186130D01*
X126609542Y-112192381D01*
X126609387Y-112195413D01*
X126609396Y-112195604D01*
X126609355Y-112196014D01*
X126599500Y-112292483D01*
X99500500Y-112292483D01*
X99500500Y-100724983D01*
X158649500Y-100724983D01*
X158649500Y-102275001D01*
X158649501Y-102275018D01*
X158660000Y-102377796D01*
X158660001Y-102377799D01*
X158694031Y-102480493D01*
X158715186Y-102544334D01*
X158807288Y-102693656D01*
X158931344Y-102817712D01*
X159080666Y-102909814D01*
X159247203Y-102964999D01*
X159349991Y-102975500D01*
X160650008Y-102975499D01*
X160752797Y-102964999D01*
X160919334Y-102909814D01*
X161068656Y-102817712D01*
X161192712Y-102693656D01*
X161279090Y-102553613D01*
X161301704Y-102526518D01*
X161312021Y-102517238D01*
X161375027Y-102487040D01*
X161444355Y-102495699D01*
X161453080Y-102499489D01*
X161491348Y-102525536D01*
X161620535Y-102654723D01*
X161620540Y-102654727D01*
X161792442Y-102779620D01*
X161981782Y-102876095D01*
X161981787Y-102876096D01*
X161981790Y-102876098D01*
X162089625Y-102911135D01*
X162183871Y-102941757D01*
X162250000Y-102952231D01*
X162250000Y-102086368D01*
X162269685Y-102019329D01*
X162322489Y-101973574D01*
X162391647Y-101963630D01*
X162406086Y-101966592D01*
X162437465Y-101975000D01*
X162562533Y-101975000D01*
X162562535Y-101975000D01*
X162593906Y-101966594D01*
X162663755Y-101968255D01*
X162721618Y-102007417D01*
X162749123Y-102071645D01*
X162750000Y-102086368D01*
X162750000Y-102952229D01*
X162750000Y-102952230D01*
X162806486Y-102943283D01*
X162806492Y-102943283D01*
X162816126Y-102941757D01*
X162816129Y-102941757D01*
X163018217Y-102876095D01*
X163207557Y-102779620D01*
X163379459Y-102654727D01*
X163379464Y-102654723D01*
X163529721Y-102504466D01*
X163638895Y-102354199D01*
X163663488Y-102328895D01*
X163674480Y-102320419D01*
X163739589Y-102295070D01*
X163808061Y-102308943D01*
X163814242Y-102312204D01*
X163856699Y-102348991D01*
X163969875Y-102504765D01*
X163969890Y-102504786D01*
X163969892Y-102504788D01*
X163969894Y-102504790D01*
X164120213Y-102655109D01*
X164120216Y-102655111D01*
X164120217Y-102655112D01*
X164292169Y-102780042D01*
X164292177Y-102780047D01*
X164292179Y-102780048D01*
X164292181Y-102780049D01*
X164292182Y-102780050D01*
X164292200Y-102780060D01*
X164292442Y-102780182D01*
X164481588Y-102876557D01*
X164683757Y-102942246D01*
X164893713Y-102975500D01*
X164893714Y-102975500D01*
X165106286Y-102975500D01*
X165106287Y-102975500D01*
X165316243Y-102942246D01*
X165518412Y-102876557D01*
X165707816Y-102780051D01*
X165729789Y-102764086D01*
X165879786Y-102655109D01*
X165879786Y-102655108D01*
X165879842Y-102655067D01*
X165880550Y-102654345D01*
X166030104Y-102504792D01*
X166139204Y-102354626D01*
X166163790Y-102329325D01*
X166174788Y-102320844D01*
X166239891Y-102295494D01*
X166308370Y-102309366D01*
X166308377Y-102309370D01*
X166314559Y-102312632D01*
X166357009Y-102349416D01*
X166452241Y-102480492D01*
X166452241Y-102480493D01*
X166469890Y-102504785D01*
X166469897Y-102504793D01*
X166620216Y-102655112D01*
X166792169Y-102780042D01*
X166792177Y-102780047D01*
X166792179Y-102780048D01*
X166792181Y-102780049D01*
X166792182Y-102780050D01*
X166792200Y-102780060D01*
X166792442Y-102780182D01*
X166981588Y-102876557D01*
X167183757Y-102942246D01*
X167393713Y-102975500D01*
X167393714Y-102975500D01*
X167606286Y-102975500D01*
X167606287Y-102975500D01*
X167816243Y-102942246D01*
X168018412Y-102876557D01*
X168207816Y-102780051D01*
X168229789Y-102764086D01*
X168379786Y-102655109D01*
X168379786Y-102655108D01*
X168379842Y-102655067D01*
X168380550Y-102654345D01*
X168530104Y-102504792D01*
X168639204Y-102354626D01*
X168663790Y-102329325D01*
X168674788Y-102320844D01*
X168739891Y-102295494D01*
X168808370Y-102309366D01*
X168808377Y-102309370D01*
X168814559Y-102312632D01*
X168857009Y-102349416D01*
X168952241Y-102480492D01*
X168952241Y-102480493D01*
X168969890Y-102504785D01*
X168969897Y-102504793D01*
X169120216Y-102655112D01*
X169292169Y-102780042D01*
X169292177Y-102780047D01*
X169292179Y-102780048D01*
X169292181Y-102780049D01*
X169292182Y-102780050D01*
X169292200Y-102780060D01*
X169292442Y-102780182D01*
X169481588Y-102876557D01*
X169683757Y-102942246D01*
X169893713Y-102975500D01*
X169893714Y-102975500D01*
X170106286Y-102975500D01*
X170106287Y-102975500D01*
X170316243Y-102942246D01*
X170518412Y-102876557D01*
X170707816Y-102780051D01*
X170729789Y-102764086D01*
X170879786Y-102655109D01*
X170879786Y-102655108D01*
X170879844Y-102655066D01*
X170880605Y-102654290D01*
X171030104Y-102504792D01*
X171030106Y-102504788D01*
X171030109Y-102504786D01*
X171155048Y-102332820D01*
X171155047Y-102332820D01*
X171155051Y-102332816D01*
X171251557Y-102143412D01*
X171317246Y-101941243D01*
X171350500Y-101731287D01*
X171350500Y-101268713D01*
X171317246Y-101058757D01*
X171251557Y-100856588D01*
X171155051Y-100667184D01*
X171155049Y-100667181D01*
X171155048Y-100667179D01*
X171154702Y-100666703D01*
X171154700Y-100666699D01*
X171030112Y-100495216D01*
X170879788Y-100344892D01*
X170879786Y-100344890D01*
X170707820Y-100219951D01*
X170633902Y-100182288D01*
X170540245Y-100134567D01*
X170540240Y-100134565D01*
X170518414Y-100123444D01*
X170518413Y-100123443D01*
X170518412Y-100123443D01*
X170416055Y-100090185D01*
X170325074Y-100060623D01*
X170320552Y-100058770D01*
X170311362Y-100056600D01*
X170306599Y-100056226D01*
X170253198Y-100047768D01*
X170154957Y-100032208D01*
X170135489Y-100029124D01*
X170106290Y-100024500D01*
X170106287Y-100024500D01*
X169893713Y-100024500D01*
X169893709Y-100024500D01*
X169854776Y-100030666D01*
X169845042Y-100032208D01*
X169827061Y-100035056D01*
X169683763Y-100057752D01*
X169481582Y-100123445D01*
X169292182Y-100219949D01*
X169292179Y-100219950D01*
X169292179Y-100219951D01*
X169173268Y-100306344D01*
X169120213Y-100344890D01*
X168969893Y-100495209D01*
X168969875Y-100495233D01*
X168860794Y-100645371D01*
X168843855Y-100662802D01*
X168836200Y-100670679D01*
X168825212Y-100679152D01*
X168760106Y-100704504D01*
X168691627Y-100690631D01*
X168691620Y-100690628D01*
X168685440Y-100687367D01*
X168642991Y-100650583D01*
X168581470Y-100565907D01*
X168530109Y-100495214D01*
X168530105Y-100495209D01*
X168379786Y-100344890D01*
X168207820Y-100219951D01*
X168133902Y-100182288D01*
X168040245Y-100134567D01*
X168040240Y-100134565D01*
X168018414Y-100123444D01*
X168018413Y-100123443D01*
X168018412Y-100123443D01*
X167916055Y-100090185D01*
X167825074Y-100060623D01*
X167820552Y-100058770D01*
X167811362Y-100056600D01*
X167806599Y-100056226D01*
X167753198Y-100047768D01*
X167654957Y-100032208D01*
X167635489Y-100029124D01*
X167606290Y-100024500D01*
X167606287Y-100024500D01*
X167393713Y-100024500D01*
X167393709Y-100024500D01*
X167354776Y-100030666D01*
X167345042Y-100032208D01*
X167327061Y-100035056D01*
X167183763Y-100057752D01*
X166981582Y-100123445D01*
X166792182Y-100219949D01*
X166792179Y-100219950D01*
X166792179Y-100219951D01*
X166673268Y-100306344D01*
X166620213Y-100344890D01*
X166469893Y-100495209D01*
X166469875Y-100495233D01*
X166360794Y-100645371D01*
X166343855Y-100662802D01*
X166336200Y-100670679D01*
X166325212Y-100679152D01*
X166260106Y-100704504D01*
X166191627Y-100690631D01*
X166191620Y-100690628D01*
X166185440Y-100687367D01*
X166142991Y-100650583D01*
X166081470Y-100565907D01*
X166030109Y-100495214D01*
X166030105Y-100495209D01*
X165879786Y-100344890D01*
X165707820Y-100219951D01*
X165633902Y-100182288D01*
X165540245Y-100134567D01*
X165540240Y-100134565D01*
X165518414Y-100123444D01*
X165518413Y-100123443D01*
X165518412Y-100123443D01*
X165416055Y-100090185D01*
X165325074Y-100060623D01*
X165320552Y-100058770D01*
X165311362Y-100056600D01*
X165306599Y-100056226D01*
X165253198Y-100047768D01*
X165154957Y-100032208D01*
X165135489Y-100029124D01*
X165106290Y-100024500D01*
X165106287Y-100024500D01*
X164893713Y-100024500D01*
X164893709Y-100024500D01*
X164854776Y-100030666D01*
X164845042Y-100032208D01*
X164827061Y-100035056D01*
X164683763Y-100057752D01*
X164481582Y-100123445D01*
X164292182Y-100219949D01*
X164292179Y-100219950D01*
X164292179Y-100219951D01*
X164173268Y-100306344D01*
X164120213Y-100344890D01*
X163969892Y-100495210D01*
X163969890Y-100495212D01*
X163969885Y-100495219D01*
X163860488Y-100645791D01*
X163860488Y-100645793D01*
X163835890Y-100671103D01*
X163824898Y-100679579D01*
X163759789Y-100704928D01*
X163691311Y-100691052D01*
X163691303Y-100691048D01*
X163685122Y-100687786D01*
X163642679Y-100651006D01*
X163529731Y-100495545D01*
X163529726Y-100495538D01*
X163529724Y-100495536D01*
X163529715Y-100495526D01*
X163379470Y-100345281D01*
X163379465Y-100345277D01*
X163379464Y-100345276D01*
X163379459Y-100345272D01*
X163207557Y-100220379D01*
X163018215Y-100123903D01*
X163018211Y-100123901D01*
X163018206Y-100123899D01*
X162816126Y-100058241D01*
X162816127Y-100058241D01*
X162750000Y-100047767D01*
X162750000Y-100913631D01*
X162730315Y-100980670D01*
X162677511Y-101026425D01*
X162608353Y-101036369D01*
X162593908Y-101033406D01*
X162562536Y-101025000D01*
X162562535Y-101025000D01*
X162437465Y-101025000D01*
X162437463Y-101025000D01*
X162406092Y-101033406D01*
X162336242Y-101031743D01*
X162278380Y-100992579D01*
X162250877Y-100928351D01*
X162250000Y-100913631D01*
X162250000Y-100047768D01*
X162249999Y-100047768D01*
X162249995Y-100047768D01*
X162183871Y-100058241D01*
X161981792Y-100123899D01*
X161792438Y-100220381D01*
X161620545Y-100345267D01*
X161494276Y-100471536D01*
X161494274Y-100471537D01*
X161494274Y-100471538D01*
X161466019Y-100492688D01*
X161453836Y-100499340D01*
X161385563Y-100514190D01*
X161320099Y-100489771D01*
X161320098Y-100489770D01*
X161312483Y-100484069D01*
X161281258Y-100449901D01*
X161192712Y-100306344D01*
X161068657Y-100182289D01*
X161068656Y-100182288D01*
X160919334Y-100090186D01*
X160761265Y-100037807D01*
X160758445Y-100036641D01*
X160752792Y-100034999D01*
X160650019Y-100024500D01*
X160650010Y-100024500D01*
X159349998Y-100024500D01*
X159349981Y-100024501D01*
X159335959Y-100025933D01*
X159247198Y-100035000D01*
X159247193Y-100035001D01*
X159247032Y-100035056D01*
X159080667Y-100090185D01*
X159080665Y-100090186D01*
X159080663Y-100090187D01*
X159026001Y-100123903D01*
X158931340Y-100182290D01*
X158807290Y-100306340D01*
X158715185Y-100455667D01*
X158715178Y-100455685D01*
X158710180Y-100470768D01*
X158710180Y-100470772D01*
X158701977Y-100495526D01*
X158670299Y-100591123D01*
X158661852Y-100604067D01*
X158660365Y-100618630D01*
X158659542Y-100624881D01*
X158659387Y-100627913D01*
X158659396Y-100628104D01*
X158659355Y-100628514D01*
X158649500Y-100724983D01*
X99500500Y-100724983D01*
X99500500Y-69902125D01*
X110649500Y-69902125D01*
X110649500Y-71697876D01*
X110649659Y-71699806D01*
X110649885Y-71701454D01*
X110655907Y-71757482D01*
X110676319Y-71812207D01*
X110706202Y-71892328D01*
X110706203Y-71892329D01*
X110706203Y-71892331D01*
X110792450Y-72007542D01*
X110792452Y-72007544D01*
X110792455Y-72007547D01*
X110907664Y-72093793D01*
X110907671Y-72093797D01*
X110952618Y-72110561D01*
X111042517Y-72144091D01*
X111042516Y-72144091D01*
X111105432Y-72150856D01*
X111105390Y-72151240D01*
X111128905Y-72155260D01*
X111155031Y-72162930D01*
X111207781Y-72194227D01*
X111743850Y-72730296D01*
X111777335Y-72791619D01*
X111772351Y-72861311D01*
X111730479Y-72917244D01*
X111718173Y-72925362D01*
X111692996Y-72939898D01*
X111692990Y-72939903D01*
X111599903Y-73032990D01*
X111599898Y-73032996D01*
X111585362Y-73058173D01*
X111534793Y-73106387D01*
X111466185Y-73119607D01*
X111401322Y-73093637D01*
X111390296Y-73083850D01*
X110884728Y-72578282D01*
X110884727Y-72578282D01*
X110845380Y-72632438D01*
X110748903Y-72821784D01*
X110683242Y-73023865D01*
X110681798Y-73032990D01*
X110650000Y-73233753D01*
X110650000Y-73446246D01*
X110675860Y-73609519D01*
X110681715Y-73646485D01*
X110681716Y-73646493D01*
X110683242Y-73656133D01*
X110717886Y-73762754D01*
X110748904Y-73858217D01*
X110845374Y-74047548D01*
X110845375Y-74047550D01*
X110880674Y-74096137D01*
X110884728Y-74101716D01*
X111390297Y-73596147D01*
X111451619Y-73562663D01*
X111521311Y-73567647D01*
X111577244Y-73609519D01*
X111585363Y-73621828D01*
X111599896Y-73647000D01*
X111599899Y-73647004D01*
X111599901Y-73647007D01*
X111692993Y-73740099D01*
X111718169Y-73754634D01*
X111766384Y-73805202D01*
X111779606Y-73873809D01*
X111753638Y-73938673D01*
X111743849Y-73949702D01*
X111238321Y-74455229D01*
X111238282Y-74455269D01*
X111238282Y-74455270D01*
X111292452Y-74494626D01*
X111292451Y-74494626D01*
X111294115Y-74495474D01*
X111301857Y-74501058D01*
X111304490Y-74504448D01*
X111314450Y-74511469D01*
X111323868Y-74520363D01*
X111359092Y-74580700D01*
X111356104Y-74650505D01*
X111319932Y-74704229D01*
X111312929Y-74710297D01*
X111295944Y-74721776D01*
X111296331Y-74722407D01*
X111292172Y-74724955D01*
X111120216Y-74849886D01*
X110969892Y-75000210D01*
X110844949Y-75172182D01*
X110748445Y-75361580D01*
X110682752Y-75563759D01*
X110649500Y-75773707D01*
X110649500Y-75986291D01*
X110682752Y-76196239D01*
X110748445Y-76398418D01*
X110841532Y-76581111D01*
X110844951Y-76587820D01*
X110969890Y-76759786D01*
X111120213Y-76910109D01*
X111292182Y-77035050D01*
X111292190Y-77035054D01*
X111292693Y-77035363D01*
X111294174Y-77036496D01*
X111296122Y-77037912D01*
X111296086Y-77037960D01*
X111313034Y-77050934D01*
X111323315Y-77060643D01*
X111358541Y-77120983D01*
X111355552Y-77190789D01*
X111319383Y-77244507D01*
X111312227Y-77250708D01*
X111295814Y-77262723D01*
X111292190Y-77264943D01*
X111120210Y-77389892D01*
X110969892Y-77540210D01*
X110844949Y-77712182D01*
X110748445Y-77901580D01*
X110682752Y-78103759D01*
X110649500Y-78313707D01*
X110649500Y-78526291D01*
X110682752Y-78736239D01*
X110748445Y-78938418D01*
X110841532Y-79121111D01*
X110844951Y-79127820D01*
X110969890Y-79299786D01*
X111120213Y-79450109D01*
X111292182Y-79575050D01*
X111292190Y-79575054D01*
X111292693Y-79575363D01*
X111294174Y-79576496D01*
X111296122Y-79577912D01*
X111296086Y-79577960D01*
X111313034Y-79590934D01*
X111323315Y-79600643D01*
X111358541Y-79660983D01*
X111355552Y-79730789D01*
X111319383Y-79784507D01*
X111312227Y-79790708D01*
X111295814Y-79802723D01*
X111292190Y-79804943D01*
X111120210Y-79929892D01*
X110969892Y-80080210D01*
X110844949Y-80252182D01*
X110748445Y-80441580D01*
X110682752Y-80643759D01*
X110649500Y-80853707D01*
X110649500Y-81066291D01*
X110681209Y-81266492D01*
X110682754Y-81276243D01*
X110729837Y-81421152D01*
X110748441Y-81478406D01*
X110748443Y-81478412D01*
X110830645Y-81639744D01*
X110844951Y-81667820D01*
X110969890Y-81839786D01*
X111120213Y-81990109D01*
X111292182Y-82115050D01*
X111292190Y-82115054D01*
X111292693Y-82115363D01*
X111294174Y-82116496D01*
X111296122Y-82117912D01*
X111296086Y-82117960D01*
X111313034Y-82130934D01*
X111323315Y-82140643D01*
X111358541Y-82200983D01*
X111355552Y-82270789D01*
X111319383Y-82324507D01*
X111312227Y-82330708D01*
X111295814Y-82342723D01*
X111292190Y-82344943D01*
X111120210Y-82469892D01*
X110969892Y-82620210D01*
X110844949Y-82792182D01*
X110748445Y-82981580D01*
X110682752Y-83183759D01*
X110649500Y-83393707D01*
X110649500Y-83393713D01*
X110649500Y-83606287D01*
X110653125Y-83629175D01*
X110682754Y-83816244D01*
X110682754Y-83816247D01*
X110739116Y-83989709D01*
X110748442Y-84018411D01*
X110802243Y-84124001D01*
X110844951Y-84207820D01*
X110969890Y-84379786D01*
X111120213Y-84530109D01*
X111292182Y-84655050D01*
X111292190Y-84655054D01*
X111292693Y-84655363D01*
X111294174Y-84656496D01*
X111296122Y-84657912D01*
X111296086Y-84657960D01*
X111313034Y-84670934D01*
X111323315Y-84680643D01*
X111358541Y-84740983D01*
X111355552Y-84810789D01*
X111319383Y-84864507D01*
X111312227Y-84870708D01*
X111295814Y-84882723D01*
X111292190Y-84884943D01*
X111120210Y-85009892D01*
X110969892Y-85160210D01*
X110844949Y-85332182D01*
X110748445Y-85521580D01*
X110682752Y-85723759D01*
X110649500Y-85933707D01*
X110649500Y-86146291D01*
X110682752Y-86356239D01*
X110748445Y-86558418D01*
X110841410Y-86740871D01*
X110844951Y-86747820D01*
X110969890Y-86919786D01*
X111120213Y-87070109D01*
X111292182Y-87195050D01*
X111292190Y-87195054D01*
X111292693Y-87195363D01*
X111294174Y-87196496D01*
X111296122Y-87197912D01*
X111296086Y-87197960D01*
X111313034Y-87210934D01*
X111323315Y-87220643D01*
X111358541Y-87280983D01*
X111355552Y-87350789D01*
X111319383Y-87404507D01*
X111312227Y-87410708D01*
X111295814Y-87422723D01*
X111292190Y-87424943D01*
X111120210Y-87549892D01*
X110969892Y-87700210D01*
X110844949Y-87872182D01*
X110748445Y-88061580D01*
X110682753Y-88263759D01*
X110674440Y-88316245D01*
X110649500Y-88473712D01*
X110649500Y-88473713D01*
X110649500Y-88686287D01*
X110652910Y-88707816D01*
X110682754Y-88896244D01*
X110682754Y-88896247D01*
X110726247Y-89030103D01*
X110748443Y-89098414D01*
X110833167Y-89264692D01*
X110844951Y-89287820D01*
X110969890Y-89459786D01*
X110969892Y-89459788D01*
X111120216Y-89610112D01*
X111292169Y-89735042D01*
X111292177Y-89735047D01*
X111292179Y-89735048D01*
X111292181Y-89735049D01*
X111292182Y-89735050D01*
X111292200Y-89735060D01*
X111292442Y-89735182D01*
X111481588Y-89831557D01*
X111683757Y-89897246D01*
X111893713Y-89930500D01*
X111893714Y-89930500D01*
X112106286Y-89930500D01*
X112106287Y-89930500D01*
X112316243Y-89897246D01*
X112518412Y-89831557D01*
X112707816Y-89735051D01*
X112729789Y-89719086D01*
X112879786Y-89610109D01*
X112879786Y-89610108D01*
X112879844Y-89610066D01*
X112880605Y-89609290D01*
X113030104Y-89459792D01*
X113030106Y-89459788D01*
X113030109Y-89459786D01*
X113155048Y-89287820D01*
X113155047Y-89287820D01*
X113155051Y-89287816D01*
X113155053Y-89287810D01*
X113175445Y-89259744D01*
X113183730Y-89231529D01*
X113251557Y-89098412D01*
X113317246Y-88896243D01*
X113350500Y-88686287D01*
X113350500Y-88473713D01*
X113317246Y-88263757D01*
X113251557Y-88061588D01*
X113251555Y-88061585D01*
X113251554Y-88061580D01*
X113251553Y-88061579D01*
X113192223Y-87945138D01*
X113192222Y-87945137D01*
X113166020Y-87893712D01*
X171109500Y-87893712D01*
X171109500Y-88106286D01*
X171142754Y-88316243D01*
X171142754Y-88316245D01*
X171193918Y-88473712D01*
X171208441Y-88518406D01*
X171208443Y-88518412D01*
X171300485Y-88699056D01*
X171304951Y-88707820D01*
X171429890Y-88879786D01*
X171580213Y-89030109D01*
X171752182Y-89155050D01*
X171752190Y-89155054D01*
X171752693Y-89155363D01*
X171754174Y-89156496D01*
X171756122Y-89157912D01*
X171756086Y-89157960D01*
X171773034Y-89170934D01*
X171783315Y-89180643D01*
X171818541Y-89240983D01*
X171815552Y-89310789D01*
X171779383Y-89364507D01*
X171772227Y-89370708D01*
X171755814Y-89382723D01*
X171752190Y-89384943D01*
X171580210Y-89509892D01*
X171429892Y-89660210D01*
X171429890Y-89660213D01*
X171305405Y-89831555D01*
X171304949Y-89832182D01*
X171208445Y-90021580D01*
X171142752Y-90223759D01*
X171109500Y-90433707D01*
X171109500Y-90646291D01*
X171142752Y-90856239D01*
X171208445Y-91058418D01*
X171300486Y-91239056D01*
X171304951Y-91247820D01*
X171429890Y-91419786D01*
X171580213Y-91570109D01*
X171752182Y-91695050D01*
X171752190Y-91695054D01*
X171752693Y-91695363D01*
X171754174Y-91696496D01*
X171756122Y-91697912D01*
X171756086Y-91697960D01*
X171773034Y-91710934D01*
X171783315Y-91720643D01*
X171818541Y-91780983D01*
X171815552Y-91850789D01*
X171779383Y-91904507D01*
X171772227Y-91910708D01*
X171755814Y-91922723D01*
X171752190Y-91924943D01*
X171580210Y-92049892D01*
X171429892Y-92200210D01*
X171304949Y-92372182D01*
X171208445Y-92561580D01*
X171142752Y-92763759D01*
X171109500Y-92973707D01*
X171109500Y-93186291D01*
X171142752Y-93396239D01*
X171208445Y-93598418D01*
X171300486Y-93779056D01*
X171304951Y-93787820D01*
X171429890Y-93959786D01*
X171531212Y-94061108D01*
X171552361Y-94089359D01*
X171559013Y-94101541D01*
X171573865Y-94169814D01*
X171549449Y-94235279D01*
X171549433Y-94235300D01*
X171546683Y-94238972D01*
X171490766Y-94280822D01*
X171367917Y-94326643D01*
X171367909Y-94326647D01*
X171367906Y-94326648D01*
X171367906Y-94326649D01*
X171311006Y-94369244D01*
X171252813Y-94412808D01*
X171252810Y-94412810D01*
X171252807Y-94412813D01*
X171166648Y-94527907D01*
X171166646Y-94527910D01*
X171116402Y-94662621D01*
X171116400Y-94662628D01*
X171110000Y-94722146D01*
X171110000Y-94722155D01*
X171110000Y-95370000D01*
X171847750Y-95370000D01*
X171914789Y-95389685D01*
X171960544Y-95442489D01*
X171970488Y-95511647D01*
X171967524Y-95526095D01*
X171960000Y-95554171D01*
X171960000Y-95685828D01*
X171967524Y-95713905D01*
X171965863Y-95783755D01*
X171926701Y-95841618D01*
X171862473Y-95869123D01*
X171847750Y-95870000D01*
X171110000Y-95870000D01*
X171110000Y-96517852D01*
X171116400Y-96577370D01*
X171116401Y-96577372D01*
X171116403Y-96577379D01*
X171166645Y-96712086D01*
X171166649Y-96712093D01*
X171252809Y-96827187D01*
X171252812Y-96827190D01*
X171367906Y-96913350D01*
X171367913Y-96913354D01*
X171502620Y-96963596D01*
X171502627Y-96963598D01*
X171509468Y-96964333D01*
X171562138Y-96969998D01*
X171562155Y-96969999D01*
X171562172Y-96970000D01*
X172210000Y-96970000D01*
X172210000Y-96232250D01*
X172229685Y-96165211D01*
X172282489Y-96119456D01*
X172351647Y-96109512D01*
X172366093Y-96112475D01*
X172394174Y-96120000D01*
X172525825Y-96120000D01*
X172525826Y-96120000D01*
X172553905Y-96112476D01*
X172623755Y-96114137D01*
X172681618Y-96153299D01*
X172709123Y-96217527D01*
X172710000Y-96232250D01*
X172710000Y-96970000D01*
X173357828Y-96970000D01*
X173357836Y-96970000D01*
X173357847Y-96969999D01*
X173393560Y-96966158D01*
X173417372Y-96963598D01*
X173417379Y-96963596D01*
X173552086Y-96913354D01*
X173552093Y-96913350D01*
X173667187Y-96827190D01*
X173667190Y-96827187D01*
X173753350Y-96712093D01*
X173753354Y-96712086D01*
X173796192Y-96597231D01*
X173813103Y-96566260D01*
X173821422Y-96555147D01*
X173877352Y-96513276D01*
X173947042Y-96508289D01*
X173951525Y-96509264D01*
X174012850Y-96542746D01*
X174120216Y-96650112D01*
X174292169Y-96775042D01*
X174292177Y-96775047D01*
X174292179Y-96775048D01*
X174292181Y-96775049D01*
X174292182Y-96775050D01*
X174292200Y-96775060D01*
X174292442Y-96775182D01*
X174481588Y-96871557D01*
X174683757Y-96937246D01*
X174893713Y-96970500D01*
X174893714Y-96970500D01*
X175106286Y-96970500D01*
X175106287Y-96970500D01*
X175316243Y-96937246D01*
X175518412Y-96871557D01*
X175707816Y-96775051D01*
X175794471Y-96712093D01*
X175879786Y-96650109D01*
X175879788Y-96650106D01*
X175879792Y-96650104D01*
X175879798Y-96650097D01*
X175879848Y-96650062D01*
X175880605Y-96649290D01*
X176030104Y-96499792D01*
X176030106Y-96499788D01*
X176030109Y-96499786D01*
X176155048Y-96327820D01*
X176155047Y-96327820D01*
X176155051Y-96327816D01*
X176155053Y-96327810D01*
X176175445Y-96299744D01*
X176183730Y-96271529D01*
X176251557Y-96138412D01*
X176317246Y-95936243D01*
X176350500Y-95726287D01*
X176350500Y-95513713D01*
X176317246Y-95303757D01*
X176251557Y-95101588D01*
X176155051Y-94912184D01*
X176155049Y-94912181D01*
X176155048Y-94912179D01*
X176154702Y-94911703D01*
X176154700Y-94911699D01*
X176030112Y-94740216D01*
X175879782Y-94589886D01*
X175707824Y-94464953D01*
X175707258Y-94464606D01*
X175705627Y-94463357D01*
X175703901Y-94462103D01*
X175703932Y-94462059D01*
X175686960Y-94449062D01*
X175676683Y-94439357D01*
X175641457Y-94379017D01*
X175644445Y-94309212D01*
X175680612Y-94255495D01*
X175687783Y-94249281D01*
X175704201Y-94237266D01*
X175707812Y-94235052D01*
X175707816Y-94235051D01*
X175797020Y-94170241D01*
X175879786Y-94110109D01*
X175879788Y-94110106D01*
X175879792Y-94110104D01*
X175879794Y-94110101D01*
X175879848Y-94110062D01*
X175880605Y-94109290D01*
X176030104Y-93959792D01*
X176030106Y-93959788D01*
X176030109Y-93959786D01*
X176155048Y-93787820D01*
X176155047Y-93787820D01*
X176155051Y-93787816D01*
X176155053Y-93787810D01*
X176175445Y-93759744D01*
X176183730Y-93731529D01*
X176251557Y-93598412D01*
X176317246Y-93396243D01*
X176350500Y-93186287D01*
X176350500Y-92973713D01*
X176317246Y-92763757D01*
X176251557Y-92561588D01*
X176155051Y-92372184D01*
X176155049Y-92372181D01*
X176155048Y-92372179D01*
X176154702Y-92371703D01*
X176154700Y-92371699D01*
X176030112Y-92200216D01*
X175879782Y-92049886D01*
X175707824Y-91924953D01*
X175707258Y-91924606D01*
X175705627Y-91923357D01*
X175703901Y-91922103D01*
X175703932Y-91922059D01*
X175686960Y-91909062D01*
X175676683Y-91899357D01*
X175641457Y-91839017D01*
X175644445Y-91769212D01*
X175680613Y-91715493D01*
X175687783Y-91709281D01*
X175704187Y-91697275D01*
X175707816Y-91695051D01*
X175707817Y-91695050D01*
X175729789Y-91679086D01*
X175879786Y-91570109D01*
X175879787Y-91570106D01*
X175879790Y-91570105D01*
X175879792Y-91570104D01*
X175879793Y-91570102D01*
X175879847Y-91570063D01*
X175880605Y-91569290D01*
X176030104Y-91419792D01*
X176030106Y-91419788D01*
X176030109Y-91419786D01*
X176155048Y-91247820D01*
X176155047Y-91247820D01*
X176155051Y-91247816D01*
X176155053Y-91247810D01*
X176175445Y-91219744D01*
X176183730Y-91191529D01*
X176251557Y-91058412D01*
X176317246Y-90856243D01*
X176350500Y-90646287D01*
X176350500Y-90433713D01*
X176317246Y-90223757D01*
X176251557Y-90021588D01*
X176155051Y-89832184D01*
X176155049Y-89832181D01*
X176155048Y-89832179D01*
X176154702Y-89831703D01*
X176154700Y-89831699D01*
X176030112Y-89660216D01*
X175879782Y-89509886D01*
X175707824Y-89384953D01*
X175707258Y-89384606D01*
X175705627Y-89383357D01*
X175703901Y-89382103D01*
X175703932Y-89382059D01*
X175686960Y-89369062D01*
X175676683Y-89359357D01*
X175641457Y-89299017D01*
X175644445Y-89229212D01*
X175680612Y-89175495D01*
X175687783Y-89169281D01*
X175704194Y-89157269D01*
X175707797Y-89155060D01*
X175707816Y-89155051D01*
X175785771Y-89098414D01*
X175799371Y-89088532D01*
X175879773Y-89030119D01*
X175879843Y-89030067D01*
X175880605Y-89029290D01*
X176030104Y-88879792D01*
X176030106Y-88879788D01*
X176030109Y-88879786D01*
X176155048Y-88707820D01*
X176155047Y-88707820D01*
X176155051Y-88707816D01*
X176155053Y-88707810D01*
X176175445Y-88679744D01*
X176183730Y-88651529D01*
X176251557Y-88518412D01*
X176317246Y-88316243D01*
X176350500Y-88106287D01*
X176350500Y-87893713D01*
X176317246Y-87683757D01*
X176251557Y-87481588D01*
X176155051Y-87292184D01*
X176155049Y-87292181D01*
X176155048Y-87292179D01*
X176154702Y-87291703D01*
X176154700Y-87291699D01*
X176030112Y-87120216D01*
X175879788Y-86969892D01*
X175879786Y-86969890D01*
X175707820Y-86844951D01*
X175694167Y-86837994D01*
X175540245Y-86759567D01*
X175540240Y-86759565D01*
X175518414Y-86748444D01*
X175518413Y-86748443D01*
X175518412Y-86748443D01*
X175421550Y-86716970D01*
X175325074Y-86685623D01*
X175320552Y-86683770D01*
X175311362Y-86681600D01*
X175306599Y-86681226D01*
X175154957Y-86657208D01*
X175135489Y-86654124D01*
X175106290Y-86649500D01*
X175106287Y-86649500D01*
X174893713Y-86649500D01*
X174893709Y-86649500D01*
X174854776Y-86655666D01*
X174845042Y-86657208D01*
X174807654Y-86663129D01*
X174683763Y-86682752D01*
X174683760Y-86682753D01*
X174483506Y-86747820D01*
X174481582Y-86748445D01*
X174292182Y-86844949D01*
X174120210Y-86969892D01*
X173969892Y-87120210D01*
X173969890Y-87120213D01*
X173844952Y-87292179D01*
X173844945Y-87292188D01*
X173844634Y-87292696D01*
X173843499Y-87294177D01*
X173842085Y-87296125D01*
X173842036Y-87296089D01*
X173829060Y-87313041D01*
X173819353Y-87323319D01*
X173759011Y-87358542D01*
X173689205Y-87355550D01*
X173635488Y-87319378D01*
X173629285Y-87312219D01*
X173617274Y-87295811D01*
X173615053Y-87292187D01*
X173615051Y-87292184D01*
X173615050Y-87292182D01*
X173490109Y-87120213D01*
X173339786Y-86969890D01*
X173167820Y-86844951D01*
X173154167Y-86837994D01*
X173000245Y-86759567D01*
X173000240Y-86759565D01*
X172978414Y-86748444D01*
X172978413Y-86748443D01*
X172978412Y-86748443D01*
X172881550Y-86716970D01*
X172785074Y-86685623D01*
X172780552Y-86683770D01*
X172771362Y-86681600D01*
X172766599Y-86681226D01*
X172614957Y-86657208D01*
X172595489Y-86654124D01*
X172566290Y-86649500D01*
X172566287Y-86649500D01*
X172353713Y-86649500D01*
X172353709Y-86649500D01*
X172314776Y-86655666D01*
X172305042Y-86657208D01*
X172267654Y-86663129D01*
X172143763Y-86682752D01*
X172143760Y-86682753D01*
X171943506Y-86747820D01*
X171941582Y-86748445D01*
X171752182Y-86844949D01*
X171580210Y-86969892D01*
X171429892Y-87120210D01*
X171304949Y-87292182D01*
X171208445Y-87481580D01*
X171142753Y-87683759D01*
X171112910Y-87872183D01*
X171109500Y-87893712D01*
X113166020Y-87893712D01*
X113155051Y-87872184D01*
X113147023Y-87861134D01*
X113030109Y-87700213D01*
X112879786Y-87549890D01*
X112879782Y-87549886D01*
X112707824Y-87424953D01*
X112707258Y-87424606D01*
X112705627Y-87423357D01*
X112703901Y-87422103D01*
X112703932Y-87422059D01*
X112686960Y-87409062D01*
X112676683Y-87399357D01*
X112641457Y-87339017D01*
X112644445Y-87269212D01*
X112680613Y-87215493D01*
X112687783Y-87209281D01*
X112704187Y-87197275D01*
X112707816Y-87195051D01*
X112707817Y-87195050D01*
X112729789Y-87179086D01*
X112879786Y-87070109D01*
X112879787Y-87070106D01*
X112879790Y-87070105D01*
X112879792Y-87070104D01*
X112879793Y-87070102D01*
X112879847Y-87070063D01*
X112880605Y-87069290D01*
X113030104Y-86919792D01*
X113030106Y-86919788D01*
X113030109Y-86919786D01*
X113155048Y-86747820D01*
X113155047Y-86747820D01*
X113155051Y-86747816D01*
X113155053Y-86747810D01*
X113175445Y-86719744D01*
X113183730Y-86691529D01*
X113251557Y-86558412D01*
X113317246Y-86356243D01*
X113350500Y-86146287D01*
X113350500Y-85933713D01*
X113317246Y-85723757D01*
X113251557Y-85521588D01*
X113155051Y-85332184D01*
X113155049Y-85332181D01*
X113155048Y-85332179D01*
X113154702Y-85331703D01*
X113154700Y-85331699D01*
X113030112Y-85160216D01*
X112879782Y-85009886D01*
X112707824Y-84884953D01*
X112707258Y-84884606D01*
X112705627Y-84883357D01*
X112703901Y-84882103D01*
X112703932Y-84882059D01*
X112686960Y-84869062D01*
X112676683Y-84859357D01*
X112641457Y-84799017D01*
X112644445Y-84729212D01*
X112680612Y-84675495D01*
X112687783Y-84669281D01*
X112704194Y-84657269D01*
X112707794Y-84655062D01*
X112707816Y-84655051D01*
X112812707Y-84578844D01*
X112879786Y-84530109D01*
X112879786Y-84530108D01*
X112879840Y-84530069D01*
X112880550Y-84529345D01*
X113030104Y-84379792D01*
X113155051Y-84207816D01*
X113251557Y-84018412D01*
X113317246Y-83816243D01*
X113350500Y-83606287D01*
X113350500Y-83393713D01*
X113317246Y-83183757D01*
X113251557Y-82981588D01*
X113155051Y-82792184D01*
X113155049Y-82792181D01*
X113155048Y-82792179D01*
X113154702Y-82791703D01*
X113154700Y-82791699D01*
X113030112Y-82620216D01*
X112879782Y-82469886D01*
X112707824Y-82344953D01*
X112707258Y-82344606D01*
X112705627Y-82343357D01*
X112703901Y-82342103D01*
X112703932Y-82342059D01*
X112686960Y-82329062D01*
X112676683Y-82319357D01*
X112641457Y-82259017D01*
X112644445Y-82189212D01*
X112680613Y-82135493D01*
X112687783Y-82129281D01*
X112704187Y-82117275D01*
X112707816Y-82115051D01*
X112707817Y-82115050D01*
X112729789Y-82099086D01*
X112879786Y-81990109D01*
X112879787Y-81990106D01*
X112879790Y-81990105D01*
X112879792Y-81990104D01*
X112879793Y-81990102D01*
X112879847Y-81990063D01*
X112880605Y-81989290D01*
X113030104Y-81839792D01*
X113030106Y-81839788D01*
X113030109Y-81839786D01*
X113155048Y-81667820D01*
X113155047Y-81667820D01*
X113155051Y-81667816D01*
X113155053Y-81667810D01*
X113175445Y-81639744D01*
X113183730Y-81611529D01*
X113251557Y-81478412D01*
X113317246Y-81276243D01*
X113350500Y-81066287D01*
X113350500Y-80853713D01*
X113317246Y-80643757D01*
X113310827Y-80624000D01*
X121494500Y-80624000D01*
X121494500Y-84876000D01*
X121495462Y-84884949D01*
X121506052Y-84983450D01*
X121506054Y-84983462D01*
X121517260Y-85034972D01*
X121551383Y-85137497D01*
X121551386Y-85137503D01*
X121629171Y-85258537D01*
X121629179Y-85258548D01*
X121674923Y-85311340D01*
X121674926Y-85311343D01*
X121674930Y-85311347D01*
X121783664Y-85405567D01*
X121783667Y-85405568D01*
X121783668Y-85405569D01*
X121877925Y-85448616D01*
X121914541Y-85465338D01*
X121981580Y-85485023D01*
X121981584Y-85485024D01*
X122124000Y-85505500D01*
X124375990Y-85505500D01*
X124376000Y-85505500D01*
X124483456Y-85493947D01*
X124534967Y-85482741D01*
X124569197Y-85471347D01*
X124637497Y-85448616D01*
X124637501Y-85448613D01*
X124637504Y-85448613D01*
X124758543Y-85370825D01*
X124811347Y-85325070D01*
X124905567Y-85216336D01*
X124965338Y-85085459D01*
X124985023Y-85018420D01*
X124985024Y-85018416D01*
X125005500Y-84876000D01*
X125005500Y-84124000D01*
X175994500Y-84124000D01*
X175994500Y-85876000D01*
X175994501Y-85876009D01*
X176006052Y-85983450D01*
X176006054Y-85983462D01*
X176017260Y-86034972D01*
X176051383Y-86137497D01*
X176051386Y-86137503D01*
X176129171Y-86258537D01*
X176129179Y-86258548D01*
X176174923Y-86311340D01*
X176174926Y-86311343D01*
X176174930Y-86311347D01*
X176283664Y-86405567D01*
X176283667Y-86405568D01*
X176283668Y-86405569D01*
X176377925Y-86448616D01*
X176414541Y-86465338D01*
X176481580Y-86485023D01*
X176481584Y-86485024D01*
X176624000Y-86505500D01*
X180375990Y-86505500D01*
X180376000Y-86505500D01*
X180483456Y-86493947D01*
X180534967Y-86482741D01*
X180569197Y-86471347D01*
X180637497Y-86448616D01*
X180637501Y-86448613D01*
X180637504Y-86448613D01*
X180758543Y-86370825D01*
X180811347Y-86325070D01*
X180905567Y-86216336D01*
X180965338Y-86085459D01*
X180985023Y-86018420D01*
X180985024Y-86018416D01*
X181005500Y-85876000D01*
X181005500Y-84124000D01*
X180993947Y-84016544D01*
X180982741Y-83965033D01*
X180982637Y-83964722D01*
X180948616Y-83862502D01*
X180948613Y-83862496D01*
X180870828Y-83741462D01*
X180870825Y-83741457D01*
X180870820Y-83741451D01*
X180825076Y-83688659D01*
X180825072Y-83688656D01*
X180825070Y-83688653D01*
X180716336Y-83594433D01*
X180716333Y-83594431D01*
X180716331Y-83594430D01*
X180585465Y-83534664D01*
X180585460Y-83534662D01*
X180585459Y-83534662D01*
X180518420Y-83514977D01*
X180518422Y-83514977D01*
X180518417Y-83514976D01*
X180456347Y-83506052D01*
X180376000Y-83494500D01*
X180375998Y-83494500D01*
X176624010Y-83494500D01*
X176624000Y-83494500D01*
X176623991Y-83494500D01*
X176623990Y-83494501D01*
X176516549Y-83506052D01*
X176516537Y-83506054D01*
X176465027Y-83517260D01*
X176362502Y-83551383D01*
X176362496Y-83551386D01*
X176241462Y-83629171D01*
X176241451Y-83629179D01*
X176188659Y-83674923D01*
X176094433Y-83783664D01*
X176094430Y-83783668D01*
X176034664Y-83914534D01*
X176014976Y-83981582D01*
X176009949Y-84016549D01*
X175994500Y-84124000D01*
X125005500Y-84124000D01*
X125005500Y-80624000D01*
X124993947Y-80516544D01*
X124982741Y-80465033D01*
X124974935Y-80441580D01*
X124948616Y-80362502D01*
X124948613Y-80362496D01*
X124897950Y-80283664D01*
X124870825Y-80241457D01*
X124870820Y-80241451D01*
X124825076Y-80188659D01*
X124825072Y-80188656D01*
X124825070Y-80188653D01*
X124716336Y-80094433D01*
X124716333Y-80094431D01*
X124716331Y-80094430D01*
X124585465Y-80034664D01*
X124585460Y-80034662D01*
X124585459Y-80034662D01*
X124518420Y-80014977D01*
X124518422Y-80014977D01*
X124518417Y-80014976D01*
X124456347Y-80006052D01*
X124376000Y-79994500D01*
X124375998Y-79994500D01*
X122124010Y-79994500D01*
X122124000Y-79994500D01*
X122123991Y-79994500D01*
X122123990Y-79994501D01*
X122016549Y-80006052D01*
X122016537Y-80006054D01*
X121965027Y-80017260D01*
X121862502Y-80051383D01*
X121862496Y-80051386D01*
X121741462Y-80129171D01*
X121741451Y-80129179D01*
X121688659Y-80174923D01*
X121594433Y-80283664D01*
X121594430Y-80283668D01*
X121534664Y-80414534D01*
X121514976Y-80481582D01*
X121509949Y-80516549D01*
X121494500Y-80624000D01*
X113310827Y-80624000D01*
X113251557Y-80441588D01*
X113155051Y-80252184D01*
X113155049Y-80252181D01*
X113155048Y-80252179D01*
X113154702Y-80251703D01*
X113154700Y-80251699D01*
X113030112Y-80080216D01*
X112879782Y-79929886D01*
X112707824Y-79804953D01*
X112707258Y-79804606D01*
X112705627Y-79803357D01*
X112703901Y-79802103D01*
X112703932Y-79802059D01*
X112686960Y-79789062D01*
X112676683Y-79779357D01*
X112641457Y-79719017D01*
X112644445Y-79649212D01*
X112680613Y-79595493D01*
X112687783Y-79589281D01*
X112704187Y-79577275D01*
X112707816Y-79575051D01*
X112707817Y-79575050D01*
X112729789Y-79559086D01*
X112879786Y-79450109D01*
X112879787Y-79450106D01*
X112879790Y-79450105D01*
X112879792Y-79450104D01*
X112879793Y-79450102D01*
X112879847Y-79450063D01*
X112880605Y-79449290D01*
X113030104Y-79299792D01*
X113030106Y-79299788D01*
X113030109Y-79299786D01*
X113155048Y-79127820D01*
X113155047Y-79127820D01*
X113155051Y-79127816D01*
X113155053Y-79127810D01*
X113175445Y-79099744D01*
X113183730Y-79071529D01*
X113251557Y-78938412D01*
X113317246Y-78736243D01*
X113350500Y-78526287D01*
X113350500Y-78313713D01*
X113317246Y-78103757D01*
X113251557Y-77901588D01*
X113155051Y-77712184D01*
X113155049Y-77712181D01*
X113155048Y-77712179D01*
X113154702Y-77711703D01*
X113154700Y-77711699D01*
X113030112Y-77540216D01*
X112879782Y-77389886D01*
X112707824Y-77264953D01*
X112707258Y-77264606D01*
X112705627Y-77263357D01*
X112703901Y-77262103D01*
X112703932Y-77262059D01*
X112686960Y-77249062D01*
X112676683Y-77239357D01*
X112641457Y-77179017D01*
X112644445Y-77109212D01*
X112680613Y-77055493D01*
X112687783Y-77049281D01*
X112704187Y-77037275D01*
X112707816Y-77035051D01*
X112707817Y-77035050D01*
X112729789Y-77019086D01*
X112879786Y-76910109D01*
X112879787Y-76910106D01*
X112879790Y-76910105D01*
X112879792Y-76910104D01*
X112879793Y-76910102D01*
X112879847Y-76910063D01*
X112880605Y-76909290D01*
X113030104Y-76759792D01*
X113030106Y-76759788D01*
X113030109Y-76759786D01*
X113155048Y-76587820D01*
X113155047Y-76587820D01*
X113155051Y-76587816D01*
X113155053Y-76587810D01*
X113175445Y-76559744D01*
X113183730Y-76531529D01*
X113251557Y-76398412D01*
X113317246Y-76196243D01*
X113350500Y-75986287D01*
X113350500Y-75773713D01*
X113317246Y-75563757D01*
X113251557Y-75361588D01*
X113155051Y-75172184D01*
X113155049Y-75172181D01*
X113155048Y-75172179D01*
X113154702Y-75171703D01*
X113154700Y-75171699D01*
X113030112Y-75000216D01*
X112879788Y-74849892D01*
X112879786Y-74849890D01*
X112707817Y-74724949D01*
X112707812Y-74724946D01*
X112706584Y-74724194D01*
X112686242Y-74708624D01*
X112676127Y-74699071D01*
X112640906Y-74638734D01*
X112643896Y-74568929D01*
X112680066Y-74515210D01*
X112687122Y-74509096D01*
X112703537Y-74497083D01*
X112707542Y-74494628D01*
X112707555Y-74494622D01*
X112729119Y-74478953D01*
X112755858Y-74469412D01*
X112761717Y-74455269D01*
X112256149Y-73949702D01*
X112222664Y-73888379D01*
X112227648Y-73818688D01*
X112269519Y-73762754D01*
X112281822Y-73754639D01*
X112307007Y-73740099D01*
X112400099Y-73647007D01*
X112414634Y-73621830D01*
X112465199Y-73573616D01*
X112533805Y-73560391D01*
X112598671Y-73586358D01*
X112609702Y-73596149D01*
X113115269Y-74101717D01*
X113115269Y-74101716D01*
X113115270Y-74101717D01*
X113115270Y-74101716D01*
X113128738Y-74096137D01*
X113134955Y-74074967D01*
X113138954Y-74069118D01*
X113154621Y-74047555D01*
X113154625Y-74047548D01*
X113251095Y-73858217D01*
X113316757Y-73656130D01*
X113316757Y-73656127D01*
X113350000Y-73446246D01*
X113350000Y-73233753D01*
X113336260Y-73147007D01*
X113318284Y-73033511D01*
X113318283Y-73033505D01*
X113318283Y-73033506D01*
X113316756Y-73023865D01*
X113289473Y-72939898D01*
X113251095Y-72821782D01*
X113154624Y-72632449D01*
X113115270Y-72578282D01*
X113115269Y-72578282D01*
X113115268Y-72578282D01*
X112609702Y-73083849D01*
X112548379Y-73117334D01*
X112478687Y-73112350D01*
X112422754Y-73070478D01*
X112414634Y-73058169D01*
X112400099Y-73032993D01*
X112307007Y-72939901D01*
X112307004Y-72939899D01*
X112307000Y-72939896D01*
X112281828Y-72925363D01*
X112233613Y-72874796D01*
X112220391Y-72806189D01*
X112246359Y-72741324D01*
X112256133Y-72730312D01*
X112787028Y-72199416D01*
X112815272Y-72178274D01*
X112838364Y-72165666D01*
X112894598Y-72151313D01*
X112894576Y-72150900D01*
X112894571Y-72150854D01*
X112894573Y-72150853D01*
X112894564Y-72150676D01*
X112897767Y-72150504D01*
X112897789Y-72150499D01*
X112897871Y-72150499D01*
X112897872Y-72150499D01*
X112957483Y-72144091D01*
X113092331Y-72093796D01*
X113207546Y-72007546D01*
X113293796Y-71892331D01*
X113293797Y-71892328D01*
X113293798Y-71892327D01*
X113344091Y-71757482D01*
X113350500Y-71697873D01*
X113350499Y-70224983D01*
X149649500Y-70224983D01*
X149649500Y-71775001D01*
X149649501Y-71775018D01*
X149656117Y-71839781D01*
X149660000Y-71877796D01*
X149660003Y-71877804D01*
X149660070Y-71878007D01*
X149705893Y-72016293D01*
X149715183Y-72044328D01*
X149715185Y-72044331D01*
X149715186Y-72044334D01*
X149807288Y-72193656D01*
X149931344Y-72317712D01*
X150080666Y-72409814D01*
X150247203Y-72464999D01*
X150349991Y-72475500D01*
X151650008Y-72475499D01*
X151752797Y-72464999D01*
X151919334Y-72409814D01*
X152068656Y-72317712D01*
X152192712Y-72193656D01*
X152278822Y-72054048D01*
X152281209Y-72051189D01*
X152301433Y-72026955D01*
X152311756Y-72017671D01*
X152374764Y-71987477D01*
X152444085Y-71996137D01*
X152452810Y-71999927D01*
X152491081Y-72025977D01*
X152620216Y-72155112D01*
X152792169Y-72280042D01*
X152792177Y-72280047D01*
X152792179Y-72280048D01*
X152792181Y-72280049D01*
X152792182Y-72280050D01*
X152792200Y-72280060D01*
X152792442Y-72280182D01*
X152981588Y-72376557D01*
X153183757Y-72442246D01*
X153393713Y-72475500D01*
X153393714Y-72475500D01*
X153606286Y-72475500D01*
X153606287Y-72475500D01*
X153816243Y-72442246D01*
X154018412Y-72376557D01*
X154207816Y-72280051D01*
X154229789Y-72264086D01*
X154379786Y-72155109D01*
X154379786Y-72155108D01*
X154379842Y-72155067D01*
X154380550Y-72154345D01*
X154530104Y-72004792D01*
X154639204Y-71854626D01*
X154663790Y-71829325D01*
X154674788Y-71820844D01*
X154739891Y-71795494D01*
X154808370Y-71809366D01*
X154808377Y-71809370D01*
X154814559Y-71812632D01*
X154857008Y-71849415D01*
X154888186Y-71892327D01*
X154888188Y-71892329D01*
X154969892Y-72004788D01*
X155120216Y-72155112D01*
X155292169Y-72280042D01*
X155292177Y-72280047D01*
X155292179Y-72280048D01*
X155292181Y-72280049D01*
X155292182Y-72280050D01*
X155292200Y-72280060D01*
X155292442Y-72280182D01*
X155481588Y-72376557D01*
X155683757Y-72442246D01*
X155893713Y-72475500D01*
X155893714Y-72475500D01*
X156106286Y-72475500D01*
X156106287Y-72475500D01*
X156316243Y-72442246D01*
X156518412Y-72376557D01*
X156707816Y-72280051D01*
X156729789Y-72264086D01*
X156879786Y-72155109D01*
X156879786Y-72155108D01*
X156879842Y-72155067D01*
X156880550Y-72154345D01*
X157030104Y-72004792D01*
X157139513Y-71854200D01*
X157164106Y-71828894D01*
X157175100Y-71820416D01*
X157240207Y-71795069D01*
X157308683Y-71808943D01*
X157308685Y-71808944D01*
X157308686Y-71808945D01*
X157314868Y-71812207D01*
X157357318Y-71848991D01*
X157470267Y-72004453D01*
X157470272Y-72004460D01*
X157470274Y-72004462D01*
X157470283Y-72004472D01*
X157620528Y-72154717D01*
X157620532Y-72154720D01*
X157620535Y-72154723D01*
X157620540Y-72154727D01*
X157792442Y-72279620D01*
X157981782Y-72376095D01*
X157981787Y-72376096D01*
X157981790Y-72376098D01*
X158089625Y-72411135D01*
X158183871Y-72441757D01*
X158250000Y-72452231D01*
X158250000Y-71586368D01*
X158269685Y-71519329D01*
X158322489Y-71473574D01*
X158391647Y-71463630D01*
X158406086Y-71466592D01*
X158437465Y-71475000D01*
X158562533Y-71475000D01*
X158562535Y-71475000D01*
X158593906Y-71466594D01*
X158663755Y-71468255D01*
X158721618Y-71507417D01*
X158749123Y-71571645D01*
X158750000Y-71586368D01*
X158750000Y-72452229D01*
X158750000Y-72452230D01*
X158806486Y-72443283D01*
X158806492Y-72443283D01*
X158816126Y-72441757D01*
X158816129Y-72441757D01*
X159018217Y-72376095D01*
X159207557Y-72279620D01*
X159379459Y-72154727D01*
X159379464Y-72154723D01*
X159529723Y-72004464D01*
X159529727Y-72004459D01*
X159654620Y-71832557D01*
X159751095Y-71643217D01*
X159816757Y-71441130D01*
X159816757Y-71441127D01*
X159847030Y-71250000D01*
X159847029Y-71250000D01*
X159086369Y-71250000D01*
X159019330Y-71230315D01*
X158973575Y-71177511D01*
X158963631Y-71108353D01*
X158966594Y-71093908D01*
X158968825Y-71085579D01*
X158975000Y-71062535D01*
X158975000Y-70937465D01*
X158966594Y-70906092D01*
X158968257Y-70836242D01*
X159007421Y-70778380D01*
X159071649Y-70750877D01*
X159086369Y-70750000D01*
X159847030Y-70750000D01*
X159816757Y-70558872D01*
X159816757Y-70558869D01*
X159751095Y-70356782D01*
X159654620Y-70167442D01*
X159529727Y-69995540D01*
X159529723Y-69995535D01*
X159529720Y-69995532D01*
X159529717Y-69995528D01*
X159379470Y-69845281D01*
X159379465Y-69845277D01*
X159379464Y-69845276D01*
X159379459Y-69845272D01*
X159207557Y-69720379D01*
X159018215Y-69623903D01*
X159018211Y-69623901D01*
X159018206Y-69623899D01*
X158816126Y-69558241D01*
X158816127Y-69558241D01*
X158750000Y-69547767D01*
X158750000Y-70413631D01*
X158730315Y-70480670D01*
X158677511Y-70526425D01*
X158608353Y-70536369D01*
X158593908Y-70533406D01*
X158562536Y-70525000D01*
X158562535Y-70525000D01*
X158437465Y-70525000D01*
X158437463Y-70525000D01*
X158406092Y-70533406D01*
X158336242Y-70531743D01*
X158278380Y-70492579D01*
X158250877Y-70428351D01*
X158250000Y-70413631D01*
X158250000Y-69547768D01*
X158249999Y-69547768D01*
X158249995Y-69547768D01*
X158183871Y-69558241D01*
X157981792Y-69623899D01*
X157792438Y-69720381D01*
X157620557Y-69845259D01*
X157620528Y-69845281D01*
X157470283Y-69995526D01*
X157470274Y-69995536D01*
X157470272Y-69995538D01*
X157470267Y-69995545D01*
X157361107Y-70145791D01*
X157361107Y-70145793D01*
X157336509Y-70171103D01*
X157325517Y-70179579D01*
X157260408Y-70204928D01*
X157191930Y-70191052D01*
X157191922Y-70191048D01*
X157185741Y-70187786D01*
X157143298Y-70151006D01*
X157030113Y-69995219D01*
X157030108Y-69995212D01*
X157030106Y-69995210D01*
X156984359Y-69949463D01*
X156879786Y-69844890D01*
X156707820Y-69719951D01*
X156633902Y-69682288D01*
X156540245Y-69634567D01*
X156540240Y-69634565D01*
X156518414Y-69623444D01*
X156518413Y-69623443D01*
X156518412Y-69623443D01*
X156416055Y-69590185D01*
X156325074Y-69560623D01*
X156320552Y-69558770D01*
X156311362Y-69556600D01*
X156306599Y-69556226D01*
X156253198Y-69547768D01*
X156154957Y-69532208D01*
X156135489Y-69529124D01*
X156106290Y-69524500D01*
X156106287Y-69524500D01*
X155893713Y-69524500D01*
X155893709Y-69524500D01*
X155854776Y-69530666D01*
X155845042Y-69532208D01*
X155827061Y-69535056D01*
X155683763Y-69557752D01*
X155481582Y-69623445D01*
X155292182Y-69719949D01*
X155292179Y-69719950D01*
X155292179Y-69719951D01*
X155173268Y-69806344D01*
X155120213Y-69844890D01*
X154969893Y-69995209D01*
X154969875Y-69995233D01*
X154860794Y-70145371D01*
X154843565Y-70163101D01*
X154836200Y-70170679D01*
X154825212Y-70179152D01*
X154760106Y-70204504D01*
X154691627Y-70190631D01*
X154691620Y-70190628D01*
X154685440Y-70187367D01*
X154642991Y-70150583D01*
X154546075Y-70017190D01*
X154530109Y-69995214D01*
X154530105Y-69995209D01*
X154379786Y-69844890D01*
X154207820Y-69719951D01*
X154133902Y-69682288D01*
X154040245Y-69634567D01*
X154040240Y-69634565D01*
X154018414Y-69623444D01*
X154018413Y-69623443D01*
X154018412Y-69623443D01*
X153916055Y-69590185D01*
X153825074Y-69560623D01*
X153820552Y-69558770D01*
X153811362Y-69556600D01*
X153806599Y-69556226D01*
X153753198Y-69547768D01*
X153654957Y-69532208D01*
X153635489Y-69529124D01*
X153606290Y-69524500D01*
X153606287Y-69524500D01*
X153393713Y-69524500D01*
X153393709Y-69524500D01*
X153354776Y-69530666D01*
X153345042Y-69532208D01*
X153327061Y-69535056D01*
X153183763Y-69557752D01*
X152981582Y-69623445D01*
X152792182Y-69719949D01*
X152620218Y-69844886D01*
X152494006Y-69971098D01*
X152494004Y-69971099D01*
X152494004Y-69971100D01*
X152465749Y-69992250D01*
X152453566Y-69998902D01*
X152385293Y-70013752D01*
X152319834Y-69989337D01*
X152312312Y-69983706D01*
X152312215Y-69983633D01*
X152280989Y-69949466D01*
X152192712Y-69806344D01*
X152068657Y-69682289D01*
X152068656Y-69682288D01*
X151960976Y-69615871D01*
X151919336Y-69590187D01*
X151919331Y-69590185D01*
X151761265Y-69537807D01*
X151758445Y-69536641D01*
X151752792Y-69534999D01*
X151650019Y-69524500D01*
X151650010Y-69524500D01*
X150349998Y-69524500D01*
X150349981Y-69524501D01*
X150335959Y-69525933D01*
X150247198Y-69535000D01*
X150247193Y-69535001D01*
X150247032Y-69535056D01*
X150080667Y-69590185D01*
X150080665Y-69590186D01*
X150080663Y-69590187D01*
X150026001Y-69623903D01*
X149931340Y-69682290D01*
X149807290Y-69806340D01*
X149715186Y-69955664D01*
X149710324Y-69970334D01*
X149710325Y-69970335D01*
X149670299Y-70091123D01*
X149661852Y-70104067D01*
X149660365Y-70118630D01*
X149659542Y-70124881D01*
X149659387Y-70127913D01*
X149659396Y-70128104D01*
X149659355Y-70128514D01*
X149649500Y-70224983D01*
X113350499Y-70224983D01*
X113350499Y-69902128D01*
X113344091Y-69842517D01*
X113344091Y-69842516D01*
X113344089Y-69842510D01*
X113330615Y-69806386D01*
X113330610Y-69806373D01*
X113330599Y-69806344D01*
X113293797Y-69707671D01*
X113293793Y-69707664D01*
X113207547Y-69592455D01*
X113207544Y-69592452D01*
X113207542Y-69592450D01*
X113134548Y-69537807D01*
X113092335Y-69506206D01*
X113092332Y-69506204D01*
X113092330Y-69506203D01*
X113092328Y-69506202D01*
X112957482Y-69455908D01*
X112957483Y-69455908D01*
X112897883Y-69449501D01*
X112897881Y-69449500D01*
X112897873Y-69449500D01*
X112897864Y-69449500D01*
X112896841Y-69449500D01*
X111102123Y-69449500D01*
X111100192Y-69449659D01*
X111098545Y-69449885D01*
X111042516Y-69455908D01*
X110907666Y-69506204D01*
X110907665Y-69506205D01*
X110792456Y-69592450D01*
X110792450Y-69592456D01*
X110706205Y-69707665D01*
X110706203Y-69707668D01*
X110655908Y-69842516D01*
X110649500Y-69902125D01*
X99500500Y-69902125D01*
X99500500Y-65542546D01*
X181294237Y-65542546D01*
X181326416Y-65704315D01*
X181326417Y-65704319D01*
X181326418Y-65704322D01*
X181326421Y-65704332D01*
X181326424Y-65704340D01*
X181326429Y-65704354D01*
X181379217Y-65831797D01*
X181379222Y-65831806D01*
X181379232Y-65831823D01*
X181455886Y-65946543D01*
X181455887Y-65946544D01*
X181455892Y-65946550D01*
X181553448Y-66044106D01*
X181553454Y-66044111D01*
X181553458Y-66044114D01*
X181668182Y-66120771D01*
X181668195Y-66120778D01*
X181795667Y-66173578D01*
X181795672Y-66173580D01*
X181795676Y-66173580D01*
X181795677Y-66173581D01*
X181839957Y-66182389D01*
X181931002Y-66200500D01*
X182068995Y-66200500D01*
X182068996Y-66200500D01*
X182114518Y-66191444D01*
X182160041Y-66182389D01*
X182204328Y-66173580D01*
X182331811Y-66120775D01*
X182446542Y-66044114D01*
X182544114Y-65946542D01*
X182620775Y-65831811D01*
X182673580Y-65704328D01*
X182686872Y-65637504D01*
X182700500Y-65568995D01*
X182700500Y-65431001D01*
X182673341Y-65294470D01*
X182671254Y-65290057D01*
X182662838Y-65269739D01*
X182662838Y-65269738D01*
X182640451Y-65215691D01*
X182620781Y-65168201D01*
X182620776Y-65168192D01*
X182620771Y-65168182D01*
X182544114Y-65053458D01*
X182544111Y-65053454D01*
X182544106Y-65053448D01*
X182446550Y-64955892D01*
X182446544Y-64955887D01*
X182446543Y-64955886D01*
X182331823Y-64879232D01*
X182331822Y-64879231D01*
X182331817Y-64879228D01*
X182331804Y-64879221D01*
X182331797Y-64879217D01*
X182204354Y-64826429D01*
X182204340Y-64826424D01*
X182204332Y-64826421D01*
X182204322Y-64826418D01*
X182204319Y-64826417D01*
X182204315Y-64826416D01*
X182068998Y-64799500D01*
X182068995Y-64799500D01*
X182068993Y-64799500D01*
X181931007Y-64799500D01*
X181931005Y-64799500D01*
X181931000Y-64799500D01*
X181795683Y-64826416D01*
X181795677Y-64826418D01*
X181795667Y-64826421D01*
X181795662Y-64826422D01*
X181795644Y-64826429D01*
X181668201Y-64879217D01*
X181668192Y-64879222D01*
X181668175Y-64879232D01*
X181553455Y-64955886D01*
X181553454Y-64955887D01*
X181553448Y-64955892D01*
X181455892Y-65053448D01*
X181455887Y-65053454D01*
X181455886Y-65053455D01*
X181379232Y-65168175D01*
X181379222Y-65168192D01*
X181379217Y-65168201D01*
X181326429Y-65295644D01*
X181326416Y-65295683D01*
X181299500Y-65431000D01*
X181299500Y-65524626D01*
X181294237Y-65542546D01*
X99500500Y-65542546D01*
X99500500Y-62042546D01*
X149294237Y-62042546D01*
X149326416Y-62204315D01*
X149326417Y-62204319D01*
X149326418Y-62204322D01*
X149326421Y-62204332D01*
X149326424Y-62204340D01*
X149326429Y-62204354D01*
X149379217Y-62331797D01*
X149379221Y-62331804D01*
X149379227Y-62331816D01*
X149379232Y-62331823D01*
X149455886Y-62446543D01*
X149455887Y-62446544D01*
X149455892Y-62446550D01*
X149553448Y-62544106D01*
X149553454Y-62544111D01*
X149553458Y-62544114D01*
X149668182Y-62620771D01*
X149668195Y-62620778D01*
X149795667Y-62673578D01*
X149795672Y-62673580D01*
X149795676Y-62673580D01*
X149795677Y-62673581D01*
X149839957Y-62682389D01*
X149931002Y-62700500D01*
X150068995Y-62700500D01*
X150068996Y-62700500D01*
X150114518Y-62691444D01*
X150160041Y-62682389D01*
X150204328Y-62673580D01*
X150331811Y-62620775D01*
X150446542Y-62544114D01*
X150448110Y-62542546D01*
X181294237Y-62542546D01*
X181326416Y-62704315D01*
X181326417Y-62704319D01*
X181326418Y-62704322D01*
X181326421Y-62704332D01*
X181326424Y-62704340D01*
X181326429Y-62704354D01*
X181379217Y-62831797D01*
X181379222Y-62831806D01*
X181379232Y-62831823D01*
X181455886Y-62946543D01*
X181455887Y-62946544D01*
X181455892Y-62946550D01*
X181553448Y-63044106D01*
X181553454Y-63044111D01*
X181553458Y-63044114D01*
X181668182Y-63120771D01*
X181668195Y-63120778D01*
X181795667Y-63173578D01*
X181795672Y-63173580D01*
X181795676Y-63173580D01*
X181795677Y-63173581D01*
X181839957Y-63182389D01*
X181931002Y-63200500D01*
X182068995Y-63200500D01*
X182068996Y-63200500D01*
X182114518Y-63191444D01*
X182160041Y-63182389D01*
X182204328Y-63173580D01*
X182331811Y-63120775D01*
X182446542Y-63044114D01*
X182544114Y-62946542D01*
X182620775Y-62831811D01*
X182673580Y-62704328D01*
X182700500Y-62568993D01*
X182700500Y-62431007D01*
X182700500Y-62431004D01*
X182700500Y-62431001D01*
X182673341Y-62294470D01*
X182671254Y-62290057D01*
X182662838Y-62269739D01*
X182662838Y-62269738D01*
X182635739Y-62204315D01*
X182620781Y-62168201D01*
X182620776Y-62168192D01*
X182620771Y-62168182D01*
X182544114Y-62053458D01*
X182544111Y-62053454D01*
X182544106Y-62053448D01*
X182446550Y-61955892D01*
X182446544Y-61955887D01*
X182446543Y-61955886D01*
X182331823Y-61879232D01*
X182331822Y-61879231D01*
X182331817Y-61879228D01*
X182331804Y-61879221D01*
X182331797Y-61879217D01*
X182204354Y-61826429D01*
X182204340Y-61826424D01*
X182204332Y-61826421D01*
X182204322Y-61826418D01*
X182204319Y-61826417D01*
X182204315Y-61826416D01*
X182068998Y-61799500D01*
X182068995Y-61799500D01*
X182068993Y-61799500D01*
X181931007Y-61799500D01*
X181931005Y-61799500D01*
X181931000Y-61799500D01*
X181795683Y-61826416D01*
X181795677Y-61826418D01*
X181795667Y-61826421D01*
X181795662Y-61826422D01*
X181795644Y-61826429D01*
X181668201Y-61879217D01*
X181668192Y-61879222D01*
X181668175Y-61879232D01*
X181553455Y-61955886D01*
X181553454Y-61955887D01*
X181553448Y-61955892D01*
X181455892Y-62053448D01*
X181455887Y-62053454D01*
X181455886Y-62053455D01*
X181379232Y-62168175D01*
X181379222Y-62168192D01*
X181379217Y-62168201D01*
X181326429Y-62295644D01*
X181326416Y-62295683D01*
X181299500Y-62431000D01*
X181299500Y-62524626D01*
X181294237Y-62542546D01*
X150448110Y-62542546D01*
X150544114Y-62446542D01*
X150589125Y-62379179D01*
X150604597Y-62356024D01*
X150617832Y-62336214D01*
X150619843Y-62333468D01*
X150621362Y-62331054D01*
X150623097Y-62326205D01*
X150629254Y-62311340D01*
X150673580Y-62204328D01*
X150686872Y-62137504D01*
X150700500Y-62068995D01*
X150700500Y-61931001D01*
X150673341Y-61794470D01*
X150671254Y-61790057D01*
X150662838Y-61769739D01*
X150662838Y-61769738D01*
X150640451Y-61715691D01*
X150620781Y-61668201D01*
X150620776Y-61668192D01*
X150620771Y-61668182D01*
X150544114Y-61553458D01*
X150544111Y-61553454D01*
X150544106Y-61553448D01*
X150446550Y-61455892D01*
X150446544Y-61455887D01*
X150446543Y-61455886D01*
X150331823Y-61379232D01*
X150331822Y-61379231D01*
X150331817Y-61379228D01*
X150331804Y-61379221D01*
X150331797Y-61379217D01*
X150204354Y-61326429D01*
X150204340Y-61326424D01*
X150204332Y-61326421D01*
X150204322Y-61326418D01*
X150204319Y-61326417D01*
X150204315Y-61326416D01*
X150068998Y-61299500D01*
X150068995Y-61299500D01*
X150068993Y-61299500D01*
X149931007Y-61299500D01*
X149931005Y-61299500D01*
X149931000Y-61299500D01*
X149795683Y-61326416D01*
X149795677Y-61326418D01*
X149795667Y-61326421D01*
X149795662Y-61326422D01*
X149795644Y-61326429D01*
X149668201Y-61379217D01*
X149668192Y-61379222D01*
X149668175Y-61379232D01*
X149553455Y-61455886D01*
X149553454Y-61455887D01*
X149553448Y-61455892D01*
X149455892Y-61553448D01*
X149455887Y-61553454D01*
X149455886Y-61553455D01*
X149379232Y-61668175D01*
X149379222Y-61668192D01*
X149379217Y-61668201D01*
X149326429Y-61795644D01*
X149326416Y-61795683D01*
X149299500Y-61931000D01*
X149299500Y-62024626D01*
X149294237Y-62042546D01*
X99500500Y-62042546D01*
X99500500Y-60624000D01*
X157494500Y-60624000D01*
X157494500Y-61876000D01*
X157495466Y-61884990D01*
X157506052Y-61983450D01*
X157506054Y-61983462D01*
X157517260Y-62034972D01*
X157551383Y-62137497D01*
X157551386Y-62137503D01*
X157629171Y-62258537D01*
X157629179Y-62258548D01*
X157674923Y-62311340D01*
X157674926Y-62311343D01*
X157674930Y-62311347D01*
X157783664Y-62405567D01*
X157783667Y-62405568D01*
X157783668Y-62405569D01*
X157877925Y-62448616D01*
X157914541Y-62465338D01*
X157981580Y-62485023D01*
X157981584Y-62485024D01*
X158124000Y-62505500D01*
X161875990Y-62505500D01*
X161876000Y-62505500D01*
X161983456Y-62493947D01*
X162034967Y-62482741D01*
X162069197Y-62471347D01*
X162137497Y-62448616D01*
X162137501Y-62448613D01*
X162137504Y-62448613D01*
X162164909Y-62431001D01*
X162173000Y-62425800D01*
X162258543Y-62370825D01*
X162311347Y-62325070D01*
X162405567Y-62216336D01*
X162465338Y-62085459D01*
X162485023Y-62018420D01*
X162485024Y-62018416D01*
X162505500Y-61876000D01*
X162505500Y-61624000D01*
X185994500Y-61624000D01*
X185994500Y-65376000D01*
X185994501Y-65376009D01*
X186006052Y-65483450D01*
X186006054Y-65483462D01*
X186017260Y-65534972D01*
X186051383Y-65637497D01*
X186051386Y-65637503D01*
X186129171Y-65758537D01*
X186129179Y-65758548D01*
X186174923Y-65811340D01*
X186174926Y-65811343D01*
X186174930Y-65811347D01*
X186283664Y-65905567D01*
X186283667Y-65905568D01*
X186283668Y-65905569D01*
X186377925Y-65948616D01*
X186414541Y-65965338D01*
X186481580Y-65985023D01*
X186481584Y-65985024D01*
X186624000Y-66005500D01*
X188375990Y-66005500D01*
X188376000Y-66005500D01*
X188483456Y-65993947D01*
X188534967Y-65982741D01*
X188569197Y-65971347D01*
X188637497Y-65948616D01*
X188637501Y-65948613D01*
X188637504Y-65948613D01*
X188758543Y-65870825D01*
X188811347Y-65825070D01*
X188905567Y-65716336D01*
X188965338Y-65585459D01*
X188985023Y-65518420D01*
X188985024Y-65518416D01*
X189005500Y-65376000D01*
X189005500Y-61624000D01*
X188993947Y-61516544D01*
X188982741Y-61465033D01*
X188979696Y-61455885D01*
X188948616Y-61362502D01*
X188948613Y-61362496D01*
X188925427Y-61326418D01*
X188870825Y-61241457D01*
X188870820Y-61241451D01*
X188825076Y-61188659D01*
X188825072Y-61188656D01*
X188825070Y-61188653D01*
X188716336Y-61094433D01*
X188716333Y-61094431D01*
X188716331Y-61094430D01*
X188585465Y-61034664D01*
X188585460Y-61034662D01*
X188585459Y-61034662D01*
X188518420Y-61014977D01*
X188518422Y-61014977D01*
X188518417Y-61014976D01*
X188456347Y-61006052D01*
X188376000Y-60994500D01*
X188375998Y-60994500D01*
X186624010Y-60994500D01*
X186624000Y-60994500D01*
X186623991Y-60994500D01*
X186623990Y-60994501D01*
X186516549Y-61006052D01*
X186516537Y-61006054D01*
X186465027Y-61017260D01*
X186362502Y-61051383D01*
X186362496Y-61051386D01*
X186241462Y-61129171D01*
X186241451Y-61129179D01*
X186188659Y-61174923D01*
X186094433Y-61283664D01*
X186094430Y-61283668D01*
X186034664Y-61414534D01*
X186014976Y-61481582D01*
X186009949Y-61516549D01*
X185994500Y-61624000D01*
X162505500Y-61624000D01*
X162505500Y-60624000D01*
X162493947Y-60516544D01*
X162482741Y-60465033D01*
X162482637Y-60464722D01*
X162448616Y-60362502D01*
X162448613Y-60362496D01*
X162370828Y-60241462D01*
X162370825Y-60241457D01*
X162370820Y-60241451D01*
X162325076Y-60188659D01*
X162325072Y-60188656D01*
X162325070Y-60188653D01*
X162216336Y-60094433D01*
X162216333Y-60094431D01*
X162216331Y-60094430D01*
X162085465Y-60034664D01*
X162085460Y-60034662D01*
X162085459Y-60034662D01*
X162018420Y-60014977D01*
X162018422Y-60014977D01*
X162018417Y-60014976D01*
X161956347Y-60006052D01*
X161876000Y-59994500D01*
X161875998Y-59994500D01*
X158124010Y-59994500D01*
X158124000Y-59994500D01*
X158123991Y-59994500D01*
X158123990Y-59994501D01*
X158016549Y-60006052D01*
X158016537Y-60006054D01*
X157965027Y-60017260D01*
X157862502Y-60051383D01*
X157862496Y-60051386D01*
X157741462Y-60129171D01*
X157741451Y-60129179D01*
X157688659Y-60174923D01*
X157594433Y-60283664D01*
X157594430Y-60283668D01*
X157534664Y-60414534D01*
X157514976Y-60481582D01*
X157509949Y-60516549D01*
X157494500Y-60624000D01*
X99500500Y-60624000D01*
X99500500Y-59042546D01*
X149294237Y-59042546D01*
X149326416Y-59204315D01*
X149326417Y-59204319D01*
X149326418Y-59204322D01*
X149326421Y-59204332D01*
X149326424Y-59204340D01*
X149326429Y-59204354D01*
X149379217Y-59331797D01*
X149379222Y-59331806D01*
X149379232Y-59331823D01*
X149455886Y-59446543D01*
X149455887Y-59446544D01*
X149455892Y-59446550D01*
X149553448Y-59544106D01*
X149553454Y-59544111D01*
X149553458Y-59544114D01*
X149668182Y-59620771D01*
X149668195Y-59620778D01*
X149795667Y-59673578D01*
X149795672Y-59673580D01*
X149795676Y-59673580D01*
X149795677Y-59673581D01*
X149839957Y-59682389D01*
X149931002Y-59700500D01*
X150068995Y-59700500D01*
X150068996Y-59700500D01*
X150114518Y-59691444D01*
X150160041Y-59682389D01*
X150204328Y-59673580D01*
X150331811Y-59620775D01*
X150446542Y-59544114D01*
X150544114Y-59446542D01*
X150620775Y-59331811D01*
X150673580Y-59204328D01*
X150700500Y-59068993D01*
X150700500Y-58931007D01*
X150700500Y-58931004D01*
X150700500Y-58931001D01*
X150673640Y-58795975D01*
X150673639Y-58795970D01*
X150673340Y-58794469D01*
X150671260Y-58790072D01*
X150620778Y-58668195D01*
X150620771Y-58668182D01*
X150544114Y-58553458D01*
X150544111Y-58553454D01*
X150544106Y-58553448D01*
X150446550Y-58455892D01*
X150446544Y-58455887D01*
X150446543Y-58455886D01*
X150331823Y-58379232D01*
X150331822Y-58379231D01*
X150331817Y-58379228D01*
X150331804Y-58379221D01*
X150331797Y-58379217D01*
X150204354Y-58326429D01*
X150204340Y-58326424D01*
X150204332Y-58326421D01*
X150204322Y-58326418D01*
X150204319Y-58326417D01*
X150204315Y-58326416D01*
X150068998Y-58299500D01*
X150068995Y-58299500D01*
X150068993Y-58299500D01*
X149931007Y-58299500D01*
X149931005Y-58299500D01*
X149931000Y-58299500D01*
X149795683Y-58326416D01*
X149795677Y-58326418D01*
X149795667Y-58326421D01*
X149795662Y-58326422D01*
X149795644Y-58326429D01*
X149668201Y-58379217D01*
X149668192Y-58379222D01*
X149668175Y-58379232D01*
X149553455Y-58455886D01*
X149553454Y-58455887D01*
X149553448Y-58455892D01*
X149455892Y-58553448D01*
X149455887Y-58553454D01*
X149455886Y-58553455D01*
X149379232Y-58668175D01*
X149379222Y-58668192D01*
X149379217Y-58668201D01*
X149326429Y-58795644D01*
X149326416Y-58795683D01*
X149299500Y-58931000D01*
X149299500Y-59024626D01*
X149294237Y-59042546D01*
X99500500Y-59042546D01*
X99500500Y-54602139D01*
X153529500Y-54602139D01*
X153529500Y-56397876D01*
X153529659Y-56399806D01*
X153529885Y-56401454D01*
X153535907Y-56457482D01*
X153562670Y-56529235D01*
X153586202Y-56592328D01*
X153586205Y-56592334D01*
X153672450Y-56707542D01*
X153672452Y-56707544D01*
X153672455Y-56707547D01*
X153787664Y-56793793D01*
X153787671Y-56793797D01*
X153922517Y-56844091D01*
X153922516Y-56844091D01*
X153929444Y-56844835D01*
X153982127Y-56850500D01*
X155777872Y-56850499D01*
X155837483Y-56844091D01*
X155972331Y-56793796D01*
X156087546Y-56707546D01*
X156173796Y-56592331D01*
X156216772Y-56477105D01*
X156233680Y-56446136D01*
X156242000Y-56435021D01*
X156297928Y-56393149D01*
X156367616Y-56388159D01*
X156372101Y-56389134D01*
X156433426Y-56422614D01*
X156540535Y-56529723D01*
X156540540Y-56529727D01*
X156712442Y-56654620D01*
X156901782Y-56751095D01*
X156901787Y-56751096D01*
X156901790Y-56751098D01*
X157009625Y-56786135D01*
X157103871Y-56816757D01*
X157170000Y-56827231D01*
X157170000Y-56112250D01*
X157189685Y-56045211D01*
X157242489Y-55999456D01*
X157311647Y-55989512D01*
X157326093Y-55992475D01*
X157354174Y-56000000D01*
X157485825Y-56000000D01*
X157485826Y-56000000D01*
X157513905Y-55992476D01*
X157583755Y-55994137D01*
X157641618Y-56033299D01*
X157669123Y-56097527D01*
X157670000Y-56112250D01*
X157670000Y-56827229D01*
X157670000Y-56827230D01*
X157726486Y-56818283D01*
X157726492Y-56818283D01*
X157736126Y-56816757D01*
X157736129Y-56816757D01*
X157938217Y-56751095D01*
X158127557Y-56654620D01*
X158299459Y-56529727D01*
X158299464Y-56529723D01*
X158449723Y-56379464D01*
X158449727Y-56379459D01*
X158574620Y-56207558D01*
X158574629Y-56207539D01*
X158575157Y-56206680D01*
X158577139Y-56204089D01*
X158577483Y-56203617D01*
X158577494Y-56203625D01*
X158590734Y-56186326D01*
X158600367Y-56176127D01*
X158660709Y-56140906D01*
X158730514Y-56143898D01*
X158784227Y-56180066D01*
X158790297Y-56187071D01*
X158801752Y-56204056D01*
X158802401Y-56203659D01*
X158804944Y-56207809D01*
X158804947Y-56207813D01*
X158804949Y-56207817D01*
X158929890Y-56379786D01*
X158929891Y-56379787D01*
X158929892Y-56379788D01*
X159080216Y-56530112D01*
X159252169Y-56655042D01*
X159252200Y-56655060D01*
X159252442Y-56655182D01*
X159441588Y-56751557D01*
X159643757Y-56817246D01*
X159853713Y-56850500D01*
X159853714Y-56850500D01*
X160066286Y-56850500D01*
X160066287Y-56850500D01*
X160276243Y-56817246D01*
X160478412Y-56751557D01*
X160667816Y-56655051D01*
X160754138Y-56592335D01*
X160839786Y-56530109D01*
X160839788Y-56530106D01*
X160839792Y-56530104D01*
X160839799Y-56530096D01*
X160839849Y-56530061D01*
X160840605Y-56529290D01*
X160990104Y-56379792D01*
X160990106Y-56379788D01*
X160990109Y-56379786D01*
X161115048Y-56207820D01*
X161115050Y-56207817D01*
X161115051Y-56207816D01*
X161115487Y-56206959D01*
X161120653Y-56199652D01*
X161124158Y-56196875D01*
X161131756Y-56186091D01*
X161140647Y-56176678D01*
X161174911Y-56156677D01*
X161175424Y-56156271D01*
X161175644Y-56156249D01*
X161200985Y-56141457D01*
X161270791Y-56144447D01*
X161324503Y-56180612D01*
X161330707Y-56187771D01*
X161342729Y-56204193D01*
X161344949Y-56207817D01*
X161344951Y-56207820D01*
X161469890Y-56379786D01*
X161469891Y-56379787D01*
X161469892Y-56379788D01*
X161620216Y-56530112D01*
X161792169Y-56655042D01*
X161792200Y-56655060D01*
X161792442Y-56655182D01*
X161981588Y-56751557D01*
X162183757Y-56817246D01*
X162393713Y-56850500D01*
X162393714Y-56850500D01*
X162606286Y-56850500D01*
X162606287Y-56850500D01*
X162816243Y-56817246D01*
X163018412Y-56751557D01*
X163207816Y-56655051D01*
X163294138Y-56592335D01*
X163379786Y-56530109D01*
X163379788Y-56530106D01*
X163379792Y-56530104D01*
X163379799Y-56530096D01*
X163379849Y-56530061D01*
X163380605Y-56529290D01*
X163530104Y-56379792D01*
X163530106Y-56379788D01*
X163530109Y-56379786D01*
X163530338Y-56379472D01*
X163580972Y-56309777D01*
X163655048Y-56207820D01*
X163655050Y-56207817D01*
X163655051Y-56207816D01*
X163751557Y-56018412D01*
X163817246Y-55816243D01*
X163850500Y-55606287D01*
X163850500Y-55393713D01*
X163817246Y-55183757D01*
X163751557Y-54981588D01*
X163655051Y-54792184D01*
X163655049Y-54792181D01*
X163655048Y-54792179D01*
X163654702Y-54791703D01*
X163654700Y-54791699D01*
X163530112Y-54620216D01*
X163379788Y-54469892D01*
X163379786Y-54469890D01*
X163207820Y-54344951D01*
X163104781Y-54292450D01*
X163040245Y-54259567D01*
X163040240Y-54259565D01*
X163018414Y-54248444D01*
X163018413Y-54248443D01*
X163018412Y-54248443D01*
X162921550Y-54216970D01*
X162825074Y-54185623D01*
X162820552Y-54183770D01*
X162811362Y-54181600D01*
X162806599Y-54181226D01*
X162753198Y-54172768D01*
X162654957Y-54157208D01*
X162635489Y-54154124D01*
X162606290Y-54149500D01*
X162606287Y-54149500D01*
X162393713Y-54149500D01*
X162393709Y-54149500D01*
X162354776Y-54155666D01*
X162345042Y-54157208D01*
X162307654Y-54163129D01*
X162183763Y-54182752D01*
X161981582Y-54248445D01*
X161792182Y-54344949D01*
X161620210Y-54469892D01*
X161469892Y-54620210D01*
X161469656Y-54620535D01*
X161344952Y-54792179D01*
X161344945Y-54792188D01*
X161344634Y-54792696D01*
X161343499Y-54794177D01*
X161342085Y-54796125D01*
X161342036Y-54796089D01*
X161329060Y-54813041D01*
X161319353Y-54823319D01*
X161259011Y-54858542D01*
X161189205Y-54855550D01*
X161135488Y-54819378D01*
X161129285Y-54812219D01*
X161117274Y-54795811D01*
X161115053Y-54792187D01*
X161115051Y-54792184D01*
X161115050Y-54792182D01*
X160990109Y-54620213D01*
X160839786Y-54469890D01*
X160667820Y-54344951D01*
X160564781Y-54292450D01*
X160500245Y-54259567D01*
X160500240Y-54259565D01*
X160478414Y-54248444D01*
X160478413Y-54248443D01*
X160478412Y-54248443D01*
X160381550Y-54216970D01*
X160285074Y-54185623D01*
X160280552Y-54183770D01*
X160271362Y-54181600D01*
X160266599Y-54181226D01*
X160213198Y-54172768D01*
X160114957Y-54157208D01*
X160095489Y-54154124D01*
X160066290Y-54149500D01*
X160066287Y-54149500D01*
X159853713Y-54149500D01*
X159853709Y-54149500D01*
X159814776Y-54155666D01*
X159805042Y-54157208D01*
X159767654Y-54163129D01*
X159643763Y-54182752D01*
X159441582Y-54248445D01*
X159252182Y-54344949D01*
X159080210Y-54469892D01*
X158929886Y-54620216D01*
X158804943Y-54792187D01*
X158804188Y-54793421D01*
X158788613Y-54813768D01*
X158779070Y-54823872D01*
X158718728Y-54859094D01*
X158648922Y-54856100D01*
X158595209Y-54819931D01*
X158589108Y-54812890D01*
X158577096Y-54796481D01*
X158574623Y-54792445D01*
X158449731Y-54620545D01*
X158449726Y-54620538D01*
X158449724Y-54620536D01*
X158449715Y-54620526D01*
X158299470Y-54470281D01*
X158299465Y-54470277D01*
X158299464Y-54470276D01*
X158299459Y-54470272D01*
X158127557Y-54345379D01*
X157938215Y-54248903D01*
X157938211Y-54248901D01*
X157938206Y-54248899D01*
X157736126Y-54183241D01*
X157736127Y-54183241D01*
X157670000Y-54172767D01*
X157670000Y-54887749D01*
X157650315Y-54954788D01*
X157597511Y-55000543D01*
X157528353Y-55010487D01*
X157513908Y-55007524D01*
X157485828Y-55000000D01*
X157485826Y-55000000D01*
X157354174Y-55000000D01*
X157354171Y-55000000D01*
X157326092Y-55007524D01*
X157256242Y-55005861D01*
X157198380Y-54966698D01*
X157170877Y-54902469D01*
X157170000Y-54887749D01*
X157170000Y-54172768D01*
X157169999Y-54172768D01*
X157169995Y-54172768D01*
X157103871Y-54183241D01*
X156901792Y-54248899D01*
X156901784Y-54248902D01*
X156901784Y-54248903D01*
X156816316Y-54292452D01*
X156712438Y-54345381D01*
X156540545Y-54470267D01*
X156439473Y-54571339D01*
X156439471Y-54571340D01*
X156439471Y-54571341D01*
X156411216Y-54592491D01*
X156399033Y-54599143D01*
X156330760Y-54613993D01*
X156265296Y-54589574D01*
X156261624Y-54586825D01*
X156219755Y-54530892D01*
X156173798Y-54407673D01*
X156173797Y-54407671D01*
X156173795Y-54407668D01*
X156173793Y-54407664D01*
X156087547Y-54292455D01*
X156087544Y-54292452D01*
X156087542Y-54292450D01*
X156018641Y-54240871D01*
X155972335Y-54206206D01*
X155972332Y-54206204D01*
X155972330Y-54206203D01*
X155972328Y-54206202D01*
X155837482Y-54155908D01*
X155837483Y-54155908D01*
X155777883Y-54149501D01*
X155777881Y-54149500D01*
X155777873Y-54149500D01*
X155777864Y-54149500D01*
X155776841Y-54149500D01*
X153982123Y-54149500D01*
X153980192Y-54149659D01*
X153978545Y-54149885D01*
X153922516Y-54155908D01*
X153787666Y-54206204D01*
X153787665Y-54206205D01*
X153672456Y-54292450D01*
X153672450Y-54292456D01*
X153586205Y-54407665D01*
X153586203Y-54407668D01*
X153535907Y-54542516D01*
X153529501Y-54602116D01*
X153529500Y-54602139D01*
X99500500Y-54602139D01*
X99500500Y-42699983D01*
X170649500Y-42699983D01*
X170649500Y-44300001D01*
X170649501Y-44300018D01*
X170660000Y-44402796D01*
X170660001Y-44402799D01*
X170694031Y-44505493D01*
X170715186Y-44569334D01*
X170807288Y-44718656D01*
X170931344Y-44842712D01*
X171080666Y-44934814D01*
X171247203Y-44989999D01*
X171349991Y-45000500D01*
X172650008Y-45000499D01*
X172752797Y-44989999D01*
X172919334Y-44934814D01*
X173068656Y-44842712D01*
X173192712Y-44718656D01*
X173279090Y-44578613D01*
X173301704Y-44551518D01*
X173312021Y-44542238D01*
X173375027Y-44512040D01*
X173444355Y-44520699D01*
X173453080Y-44524489D01*
X173491348Y-44550536D01*
X173620535Y-44679723D01*
X173620540Y-44679727D01*
X173792442Y-44804620D01*
X173981782Y-44901095D01*
X173981787Y-44901096D01*
X173981790Y-44901098D01*
X174089625Y-44936135D01*
X174183871Y-44966757D01*
X174250000Y-44977231D01*
X174250000Y-44112250D01*
X174269685Y-44045211D01*
X174322489Y-43999456D01*
X174391647Y-43989512D01*
X174406093Y-43992475D01*
X174434174Y-44000000D01*
X174565825Y-44000000D01*
X174565826Y-44000000D01*
X174593905Y-43992476D01*
X174663755Y-43994137D01*
X174721618Y-44033299D01*
X174749123Y-44097527D01*
X174750000Y-44112250D01*
X174750000Y-44977229D01*
X174750000Y-44977230D01*
X174806486Y-44968283D01*
X174806492Y-44968283D01*
X174816126Y-44966757D01*
X174816129Y-44966757D01*
X175018217Y-44901095D01*
X175207557Y-44804620D01*
X175379459Y-44679727D01*
X175379464Y-44679723D01*
X175529723Y-44529464D01*
X175529727Y-44529459D01*
X175654620Y-44357557D01*
X175751095Y-44168217D01*
X175816757Y-43966130D01*
X175816757Y-43966127D01*
X175850000Y-43756246D01*
X175850000Y-43750000D01*
X175112250Y-43750000D01*
X175045211Y-43730315D01*
X174999456Y-43677511D01*
X174989512Y-43608353D01*
X174992476Y-43593905D01*
X174999999Y-43565828D01*
X175000000Y-43565825D01*
X175000000Y-43434175D01*
X174999999Y-43434171D01*
X174992476Y-43406095D01*
X174994137Y-43336245D01*
X175033299Y-43278382D01*
X175097527Y-43250877D01*
X175112250Y-43250000D01*
X175850000Y-43250000D01*
X175850000Y-43243754D01*
X175818284Y-43043511D01*
X175818283Y-43043505D01*
X175818283Y-43043506D01*
X175816756Y-43033865D01*
X175791062Y-42954788D01*
X175751095Y-42831782D01*
X175654620Y-42642442D01*
X175529727Y-42470540D01*
X175529723Y-42470535D01*
X175529720Y-42470532D01*
X175529717Y-42470528D01*
X175379470Y-42320281D01*
X175379465Y-42320277D01*
X175379464Y-42320276D01*
X175379459Y-42320272D01*
X175207557Y-42195379D01*
X175018215Y-42098903D01*
X175018211Y-42098901D01*
X175018206Y-42098899D01*
X174816126Y-42033241D01*
X174816127Y-42033241D01*
X174750000Y-42022767D01*
X174750000Y-42887749D01*
X174730315Y-42954788D01*
X174677511Y-43000543D01*
X174608353Y-43010487D01*
X174593908Y-43007524D01*
X174565828Y-43000000D01*
X174565826Y-43000000D01*
X174434174Y-43000000D01*
X174434171Y-43000000D01*
X174406092Y-43007524D01*
X174336242Y-43005861D01*
X174278380Y-42966698D01*
X174250877Y-42902469D01*
X174250000Y-42887749D01*
X174250000Y-42022768D01*
X174249999Y-42022768D01*
X174249995Y-42022768D01*
X174183871Y-42033241D01*
X173981792Y-42098899D01*
X173792438Y-42195381D01*
X173620545Y-42320267D01*
X173494276Y-42446536D01*
X173494274Y-42446537D01*
X173494274Y-42446538D01*
X173466019Y-42467688D01*
X173453836Y-42474340D01*
X173385563Y-42489190D01*
X173320099Y-42464771D01*
X173320098Y-42464770D01*
X173312483Y-42459069D01*
X173281258Y-42424901D01*
X173192712Y-42281344D01*
X173068657Y-42157289D01*
X173068656Y-42157288D01*
X172919334Y-42065186D01*
X172761265Y-42012807D01*
X172758445Y-42011641D01*
X172752792Y-42009999D01*
X172650019Y-41999500D01*
X172650010Y-41999500D01*
X171349998Y-41999500D01*
X171349981Y-41999501D01*
X171335959Y-42000933D01*
X171247198Y-42010000D01*
X171247193Y-42010001D01*
X171247032Y-42010056D01*
X171080667Y-42065185D01*
X171080665Y-42065186D01*
X171080663Y-42065187D01*
X171026001Y-42098903D01*
X170931340Y-42157290D01*
X170807290Y-42281340D01*
X170715185Y-42430667D01*
X170715178Y-42430685D01*
X170710180Y-42445768D01*
X170710180Y-42445772D01*
X170702918Y-42467688D01*
X170670299Y-42566123D01*
X170661852Y-42579067D01*
X170660365Y-42593630D01*
X170659542Y-42599881D01*
X170659387Y-42602913D01*
X170659396Y-42603104D01*
X170659355Y-42603514D01*
X170649500Y-42699983D01*
X99500500Y-42699983D01*
X99500500Y-39642329D01*
X99505523Y-39607393D01*
X99509927Y-39592395D01*
X99547672Y-39533644D01*
X99547700Y-39533619D01*
X99547699Y-39533619D01*
X99549041Y-39532456D01*
X99603920Y-39504977D01*
X99611479Y-39503333D01*
X99637832Y-39500500D01*
X192357670Y-39500500D01*
X192392606Y-39505523D01*
G37*
%TD.AperFunction*%
%TD*%
%TA.AperFunction,Conductor*%
%TO.N,/SWDIO*%
G36*
X161943039Y-60519685D02*
G01*
X161988794Y-60572489D01*
X162000000Y-60624000D01*
X162000000Y-61876000D01*
X161980315Y-61943039D01*
X161927511Y-61988794D01*
X161876000Y-62000000D01*
X158124000Y-62000000D01*
X158056961Y-61980315D01*
X158011206Y-61927511D01*
X158000000Y-61876000D01*
X158000000Y-60624000D01*
X158019685Y-60556961D01*
X158072489Y-60511206D01*
X158124000Y-60500000D01*
X161876000Y-60500000D01*
X161943039Y-60519685D01*
G37*
%TD.AperFunction*%
%TD*%
M02*
